<svg width="28" height="28" viewBox="0 0 28 28" fill="none" xmlns="http://www.w3.org/2000/svg">
<path d="M23.3541 6.825C21.6303 3.21125 18.0778 0.927501 14.0791 0.875001C10.0716 0.822501 6.51905 3.0275 4.73405 6.65C2.87905 10.4038 3.31655 14.7525 5.88905 18.0163L12.5303 26.4513C12.8716 26.88 13.3791 27.125 13.9216 27.125C14.4641 27.125 14.9716 26.88 15.3128 26.4513L22.1291 17.7887C24.6053 14.6388 25.0691 10.4475 23.3541 6.83375V6.825ZM20.7641 16.7038L13.9128 25.3663L7.27156 16.9313C5.12781 14.21 4.7603 10.5613 6.30905 7.42875C7.79655 4.41875 10.6403 2.63375 13.9303 2.63375H14.0616C17.4391 2.68625 20.3266 4.5325 21.7791 7.58625C23.2316 10.64 22.8553 14.0438 20.7641 16.7038Z" fill="white" stroke="white" stroke-width="0.6"/>
<path d="M13.9211 6.26495C11.2873 6.26495 9.14355 8.4087 9.14355 11.0425C9.14355 13.6762 11.2873 15.82 13.9211 15.82C16.5548 15.82 18.6986 13.6762 18.6986 11.0425C18.6986 8.4087 16.5548 6.26495 13.9211 6.26495ZM13.9211 14.0612C12.2498 14.0612 10.8936 12.705 10.8936 11.0337C10.8936 9.36245 12.2498 8.0062 13.9211 8.0062C15.5923 8.0062 16.9486 9.36245 16.9486 11.0337C16.9486 12.705 15.5923 14.0612 13.9211 14.0612Z" fill="white" stroke="white" stroke-width="0.6"/>
</svg>
