<svg xmlns="http://www.w3.org/2000/svg" width="100" height="24" viewBox="0 0 100 24" fill="none">
            <path d="M7.87368 16.321C6.50155 16.321 5.31739 15.316 5.31739 13.5252C5.31739 11.7345 6.50155 10.7659 7.83601 10.7659C9.22688 10.7659 9.84716 11.643 10.0539 12.429L12.0086 11.7345C11.6327 10.3092 10.2795 8.81065 7.81727 8.81065C5.18583 8.81065 3.13721 10.7842 3.13721 13.5252C3.13721 16.2297 5.18583 18.258 7.87368 18.258C10.2795 18.258 11.6514 16.7415 12.0837 15.3524L10.1667 14.6765C9.95978 15.3524 9.30202 16.321 7.87368 16.321Z" fill="#34312E"></path>
            <path d="M15.2605 4.75398H13.0803V17.984H15.2605V4.75398Z" fill="#34312E"></path>
            <path d="M19.3018 9.08485H17.1401V17.984H19.3018V9.08485Z" fill="#34312E"></path>
            <path d="M18.2117 4.57143C17.4409 4.57143 16.8019 5.1927 16.8019 5.96009C16.8019 6.72748 17.4409 7.33053 18.2117 7.33053C19.001 7.33053 19.64 6.72748 19.64 5.96009C19.64 5.1927 19.001 4.57143 18.2117 4.57143Z" fill="#34312E"></path>
            <path d="M25.2038 16.321C23.8317 16.321 22.6475 15.316 22.6475 13.5252C22.6475 11.7345 23.8317 10.7659 25.1662 10.7659C26.557 10.7659 27.1773 11.643 27.384 12.429L29.3388 11.7345C28.9628 10.3092 27.6096 8.81065 25.1474 8.81065C22.516 8.81065 20.4674 10.7842 20.4674 13.5252C20.4674 16.2297 22.516 18.258 25.2038 18.258C27.6096 18.258 28.9816 16.7415 29.4139 15.3524L27.4968 14.6765C27.2899 15.3524 26.6322 16.321 25.2038 16.321Z" fill="#34312E"></path>
            <path d="M48.5675 10.8938C49.5071 10.1995 50.4469 9.24937 50.4469 7.97021C50.4469 6.03333 48.8868 4.75398 46.8007 4.75398C45.0714 4.75398 43.2294 5.92365 43.2294 8.06148C43.2294 9.26759 44.1128 10.2726 44.7519 10.9121L44.9775 11.1496L44.8459 11.2411C43.4551 12.2461 42.534 13.1597 42.534 14.8226C42.534 16.5221 43.9249 18.2216 46.4999 18.2216C47.9472 18.2216 49.1124 17.5271 50.1461 16.4488L51.6498 17.984H54.563L47.9846 11.3141L48.5675 10.8938ZM46.8194 6.54492C47.6841 6.54492 48.3042 7.1662 48.3042 7.93359C48.3042 8.42696 48.0975 8.90212 47.402 9.41371L46.6315 9.96192L46.2555 9.55983C45.7857 9.06645 45.3721 8.55486 45.3721 7.93359C45.3721 7.00168 46.124 6.54492 46.8194 6.54492ZM48.7742 15.0602L48.7552 15.0784C48.0787 15.7911 47.421 16.3027 46.5376 16.3027C45.4473 16.3027 44.7708 15.4805 44.7708 14.6765C44.7708 13.8359 45.2218 13.3061 45.8609 12.8491L46.3119 12.5201L48.7742 15.0602Z" fill="#34312E"></path>
            <path d="M77.5215 8.81316C74.7962 8.81316 72.7851 10.805 72.7851 13.5276C72.7851 16.2686 74.7962 18.2604 77.5215 18.2604C80.2657 18.2604 82.2768 16.2686 82.2768 13.5276C82.2768 10.805 80.2657 8.81316 77.5215 8.81316ZM77.5215 16.36C76.1871 16.36 74.9654 15.3732 74.9654 13.5276C74.9654 11.682 76.1871 10.7318 77.5215 10.7318C78.8748 10.7318 80.0777 11.682 80.0777 13.5276C80.0777 15.3916 78.8748 16.36 77.5215 16.36Z" fill="#34312E"></path>
            <path d="M94.6449 9.08727L92.8217 15.2453L90.6602 9.08727H88.4048L86.2433 15.2453L84.3826 9.08727H82.0519L85.0216 17.9863H87.2583L89.4762 11.5907L91.7504 17.9863H93.9306L96.8627 9.08727H94.6449Z" fill="#34312E"></path>
            <path d="M53.4626 13.3912C54.0667 12.7388 53.8785 10.9956 53.8785 10.9956C53.8785 10.9956 52.0757 10.9965 51.4717 11.6489C50.8676 12.3013 51.0557 14.0446 51.0557 14.0446C51.0557 14.0446 52.8586 14.0437 53.4626 13.3912Z" fill="#34312E"></path>
            <path d="M70.1577 9.30349C69.8541 9.53503 69.6584 9.987 69.5331 10.4287V9.08727H67.3528V17.9863H69.5331V11.6229C70.0214 11.6828 71.2485 11.7815 71.8109 11.3527C72.5213 10.8109 72.6443 9.06222 72.6443 9.06222C72.6443 9.06222 70.8681 8.76174 70.1577 9.30349Z" fill="#34312E"></path>
            <path d="M65.5625 12.7614C65.563 11.6777 65.1076 10.687 64.3766 9.978C63.6474 9.26731 62.6284 8.82457 61.5137 8.82511C60.3992 8.82457 59.3802 9.26731 58.6509 9.978C57.9199 10.687 57.4645 11.6777 57.465 12.7614C57.4645 13.845 57.9199 14.8357 58.6509 15.5447C59.3802 16.2554 60.3992 16.6982 61.5137 16.6976C62.0404 16.6982 62.5074 16.9022 62.8537 17.2372C63.1983 17.5739 63.4082 18.0279 63.4087 18.5399C63.4082 19.052 63.1983 19.5059 62.8537 19.8426C62.5074 20.1776 62.0404 20.3817 61.5137 20.3822C60.987 20.3817 60.5202 20.1776 60.1738 19.8426C59.8292 19.5059 59.6194 19.052 59.6188 18.5399H57.465C57.4645 19.6236 57.9199 20.6143 58.6509 21.3233C59.3802 22.034 60.3992 22.4767 61.5137 22.4762C62.6284 22.4767 63.6474 22.034 64.3766 21.3233C65.1076 20.6143 65.563 19.6236 65.5625 18.5399C65.563 17.4563 65.1076 16.4656 64.3766 15.7566C64.3386 15.7195 64.2965 15.6863 64.2569 15.6506C64.2965 15.615 64.3386 15.5818 64.3766 15.5447C65.1076 14.8357 65.563 13.845 65.5625 12.7614ZM60.1738 14.0641C59.8292 13.7274 59.6194 13.2734 59.6188 12.7614C59.6194 12.2493 59.8292 11.7954 60.1738 11.4587C60.5202 11.1236 60.987 10.9196 61.5137 10.9191C62.0404 10.9196 62.5074 11.1236 62.8537 11.4587C63.1983 11.7954 63.4082 12.2493 63.4087 12.7614C63.4082 13.2734 63.1983 13.7274 62.8537 14.0641C62.5074 14.3991 62.0404 14.6031 61.5137 14.6037C60.987 14.6031 60.5202 14.3991 60.1738 14.0641Z" fill="#34312E"></path>
            <path d="M36.084 9.08497L32.5472 12.7393V9.08497H30.3847V17.984H32.3514C32.3498 17.1449 32.6304 16.4042 33.0272 15.914C33.2249 15.6681 33.4479 15.4853 33.6723 15.3675C33.898 15.2497 34.1218 15.1928 34.3607 15.1921C34.5996 15.1923 34.8472 15.2515 35.0989 15.3773C35.4752 15.5644 35.8508 15.9085 36.1231 16.3646C36.3963 16.8201 36.5661 17.379 36.5658 17.984H38.7294C38.728 16.6672 38.2435 15.4727 37.4685 14.5849C37.0799 14.1409 36.6157 13.7712 36.0901 13.5075C35.7818 13.3528 35.4504 13.2365 35.1051 13.1659L39.0547 9.08497H36.084Z" fill="#34312E"></path>
          </svg>