<svg width="16" height="16" viewBox="0 0 16 16" fill="none" xmlns="http://www.w3.org/2000/svg">
<path d="M13.0486 3.76709H2.94861C2.71665 3.78144 2.49693 3.87614 2.32721 4.03491C2.15749 4.19368 2.04839 4.4066 2.01862 4.63708L0.658633 14.1971C0.640526 14.3332 0.650655 14.4716 0.688357 14.6036C0.726058 14.7356 0.790502 14.8584 0.877749 14.9644C0.964995 15.0705 1.07314 15.1574 1.19544 15.2198C1.31774 15.2821 1.45159 15.3187 1.58863 15.3271H14.4086C14.5448 15.3174 14.6775 15.2799 14.7986 15.2169C14.9198 15.154 15.0267 15.0669 15.1129 14.961C15.1991 14.8551 15.2627 14.7328 15.2998 14.6014C15.3369 14.47 15.3467 14.3324 15.3286 14.1971L13.9686 4.63708C13.9392 4.40818 13.8316 4.1965 13.6639 4.03793C13.4962 3.87936 13.2788 3.78367 13.0486 3.76709Z" stroke="#404040" stroke-width="1.3" stroke-miterlimit="10"/>
<path d="M5.05859 3.4075C5.1195 2.66963 5.45561 1.98163 6.00024 1.4801C6.54488 0.978574 7.25822 0.700195 7.9986 0.700195C8.73897 0.700195 9.45225 0.978574 9.99689 1.4801C10.5415 1.98163 10.8776 2.66963 10.9385 3.4075" stroke="#404040" stroke-width="1.3" stroke-miterlimit="10"/>
</svg>
