<svg width="35" height="39" viewBox="0 0 35 39" fill="none" xmlns="http://www.w3.org/2000/svg">
<path d="M26.9725 24.4331H34.2309L33.9544 34.1421C33.9363 34.5241 33.7936 34.8898 33.548 35.184C33.3023 35.4783 32.967 35.6852 32.5926 35.7735H17.4883" stroke="black" stroke-miterlimit="10"/>
<path d="M6.56245 35.7735H4.00475C3.62706 35.6881 3.28771 35.4826 3.0382 35.1882C2.78869 34.8938 2.64264 34.5265 2.62221 34.1421L2.3457 24.4331H10.8587" stroke="black" stroke-miterlimit="10"/>
<path d="M6.75125 36.1576H4.08984V35.7729H6.68212L6.75125 36.1576Z" stroke="black" stroke-miterlimit="10"/>
<path d="M2.37891 25.0205H9.93106" stroke="black" stroke-miterlimit="10"/>
<path d="M31.0565 1H11.5142C11.2328 1 10.9629 1.11108 10.7639 1.30881C10.5649 1.50654 10.4531 1.77473 10.4531 2.05436C10.4531 2.33399 10.5649 2.60218 10.7639 2.79991C10.9629 2.99764 11.2328 3.10872 11.5142 3.10872H30.3479C30.4402 3.10643 30.5319 3.1225 30.6178 3.15599C30.7037 3.18948 30.7819 3.23972 30.848 3.30373C30.914 3.36774 30.9665 3.44424 31.0023 3.52872C31.0381 3.61319 31.0565 3.70394 31.0565 3.7956V24.402H33.1753V3.10872C33.1757 2.83196 33.1212 2.55783 33.015 2.30201C32.9087 2.04618 32.7527 1.81369 32.5559 1.61783C32.3591 1.42197 32.1254 1.2666 31.8681 1.16059C31.6108 1.05457 31.335 1 31.0565 1V1Z" stroke="black" stroke-miterlimit="10"/>
<path d="M26.334 25.0205H34.1938" stroke="black" stroke-miterlimit="10"/>
<path d="M13.5195 24.4331H19.1085" stroke="black" stroke-miterlimit="10"/>
<path d="M14.2871 25.0205H19.8069" stroke="black" stroke-miterlimit="10"/>
<path d="M32.4838 36.1576H17.4141L17.4901 35.7729H32.4838V36.1576Z" stroke="black" stroke-miterlimit="10"/>
<path d="M13.9688 20.2846C14.2816 20.8367 14.6701 21.3429 15.1232 21.7888C15.243 21.9101 15.3869 22.0053 15.5458 22.0684C15.7046 22.1315 15.8749 22.161 16.0459 22.1552C16.2168 22.1494 16.3847 22.1083 16.5389 22.0346C16.693 21.9609 16.83 21.8561 16.9412 21.727C18.0645 20.4185 19.5335 17.7362 16.8755 14.3327C16.7635 14.1884 16.6204 14.0706 16.4568 13.9882C16.2932 13.9057 16.1131 13.8605 15.9296 13.8559C15.7462 13.8513 15.5641 13.8874 15.3964 13.9615C15.2288 14.0357 15.08 14.1461 14.9607 14.2847C13.9999 15.4146 12.8074 17.3996 13.6715 19.6492" stroke="black" stroke-miterlimit="10"/>
<path d="M15.9512 17.5366V28.015V28.7843" stroke="black" stroke-miterlimit="10"/>
<path d="M15.9258 27.2659C15.9258 27.2659 16.1712 22.3994 23.6888 22.3994" stroke="black" stroke-miterlimit="10"/>
<path d="M15.9437 27.7024C15.9437 27.7024 15.9886 25.4976 12.6152 25.4976" stroke="black" stroke-miterlimit="10"/>
<path d="M26.7415 22.9492C25.3209 21.6235 22.4522 19.8273 19.1928 22.7157C19.0651 22.8284 18.9623 22.9662 18.8909 23.1203C18.8194 23.2745 18.7808 23.4417 18.7776 23.6114C18.7743 23.7811 18.8065 23.9496 18.872 24.1063C18.9375 24.2631 19.035 24.4047 19.1582 24.5221C20.4129 25.707 23.0328 27.304 26.5929 24.845C26.7441 24.7417 26.8701 24.6062 26.9618 24.4483C27.0535 24.2904 27.1084 24.1141 27.1227 23.9323C27.1369 23.7506 27.1101 23.568 27.0441 23.3979C26.9782 23.2278 26.8748 23.0745 26.7415 22.9492V22.9492Z" stroke="black" stroke-miterlimit="10"/>
<path d="M10.5218 24.6286C11.4032 24.0894 13.0899 23.4609 14.4759 25.3155C14.5303 25.3879 14.5689 25.4707 14.5894 25.5588C14.6099 25.6468 14.6117 25.7381 14.5948 25.8269C14.5779 25.9157 14.5427 26 14.4912 26.0746C14.4398 26.1491 14.3734 26.2122 14.2962 26.2599C13.515 26.7442 11.9804 27.2902 10.3905 25.6349C10.3229 25.5645 10.272 25.48 10.2416 25.3875C10.2111 25.2951 10.2019 25.197 10.2144 25.1006C10.227 25.0041 10.2612 24.9117 10.3144 24.83C10.3675 24.7483 10.4384 24.6795 10.5218 24.6286Z" stroke="black" stroke-miterlimit="10"/>
<path d="M14.3246 28.7842H15.1264C16.8892 28.7842 18.5621 28.9525 18.5621 29.2444C18.5621 29.787 17.4249 36.0273 17.3074 36.6798C17.2244 37.1263 15.078 37.2774 13.6298 37.1229L12.8867 37.0507" stroke="black" stroke-miterlimit="10"/>
<path d="M12.9025 36.996C12.7573 37.7962 7.10617 37.7962 6.95755 36.996C6.80892 36.1958 5.46094 28.8668 5.46094 28.1112C5.46094 27.3557 14.4025 27.3763 14.4025 28.1112C14.4025 28.7603 13.0477 36.2198 12.9025 36.996Z" stroke="black" stroke-miterlimit="10"/>
<path d="M3.92925 15.5345C2.52251 14.906 1.65496 14.1608 1.83123 13.7109C2.00751 13.261 3.21379 13.3674 4.56869 13.8105" stroke="black" stroke-miterlimit="10"/>
<path d="M4.14862 17.3955C2.65201 17.4917 1.47685 17.2375 1.42154 16.7739C1.36624 16.3102 2.73152 15.6817 4.47698 15.4825C4.99985 15.4202 5.52699 15.4007 6.05308 15.4242" stroke="black" stroke-miterlimit="10"/>
<path d="M7.79365 16.3378C7.70724 16.8736 6.86735 17.8077 5.6749 18.632C4.23014 19.6314 2.81994 20.095 2.51924 19.6623C2.21854 19.2296 3.15175 18.0825 4.59306 17.0831C5.29145 16.5734 6.07394 16.1888 6.90537 15.9463" stroke="black" stroke-miterlimit="10"/>
<path d="M7.75358 16.0335C8.15455 15.6998 7.56442 14.3436 6.43552 13.0044C5.30661 11.6652 4.06642 10.8501 3.66546 11.1838C3.2645 11.5176 3.8546 12.8737 4.98351 14.2129C6.11241 15.5521 7.35262 16.3672 7.75358 16.0335Z" stroke="black" stroke-miterlimit="10"/>
<path d="M7.84677 12.2678C7.47003 10.7842 6.88244 9.80192 6.41583 9.89808C5.94922 9.99425 5.83862 11.1345 6.03218 12.5323" stroke="black" stroke-miterlimit="10"/>
<path d="M9.66177 12.8109C10.0074 11.3616 9.97284 10.1664 9.52697 10.0325C9.02579 9.8848 8.21009 11.1212 7.70892 12.78C7.54941 13.2797 7.43376 13.7922 7.36328 14.3117" stroke="black" stroke-miterlimit="10"/>
<path d="M7.97133 16.1905C8.52089 16.1905 9.59238 15.5414 10.6189 14.518C11.8632 13.2816 12.5683 11.9834 12.1985 11.6159C11.8286 11.2484 10.5221 11.9594 9.28129 13.1923C8.67961 13.7547 8.18648 14.4216 7.82617 15.1602" stroke="black" stroke-miterlimit="10"/>
<path d="M14.0516 19.5835C12.9679 19.7231 11.9659 20.2304 11.2151 21.0195C10.4644 21.8087 10.011 22.8312 9.93164 23.9143L10.0768 23.8731C14.0827 23.1381 14.0516 19.5835 14.0516 19.5835Z" stroke="black" stroke-miterlimit="10"/>
<path d="M4.40039 21.6267C5.4555 21.3446 6.57629 21.4332 7.57324 21.8775C8.5702 22.3218 9.38214 23.0945 9.87182 24.0651H9.72666C5.73801 24.9271 4.40039 21.6267 4.40039 21.6267Z" stroke="black" stroke-miterlimit="10"/>
<path d="M7.88779 16.1836C7.83249 16.2969 9.92706 16.582 9.92706 21.6786V27.6098" stroke="black" stroke-miterlimit="10"/>
</svg>
