<svg width="18" height="18" viewBox="0 0 18 18" fill="none" xmlns="http://www.w3.org/2000/svg">
<path d="M9 17C13.4183 17 17 13.4183 17 9C17 4.58172 13.4183 1 9 1C4.58172 1 1 4.58172 1 9C1 13.4183 4.58172 17 9 17Z" stroke="#404040" stroke-width="1.3" stroke-miterlimit="10"/>
<path d="M9.00203 9.1901C10.6147 9.1901 11.922 7.88277 11.922 6.2701C11.922 4.65743 10.6147 3.3501 9.00203 3.3501C7.38936 3.3501 6.08203 4.65743 6.08203 6.2701C6.08203 7.88277 7.38936 9.1901 9.00203 9.1901Z" stroke="#404040" stroke-width="1.3" stroke-miterlimit="10"/>
<path d="M2.78125 14.0303C3.56179 13.1533 4.51911 12.4514 5.59027 11.9708C6.66144 11.4902 7.82217 11.2417 8.99622 11.2417C10.1703 11.2417 11.3311 11.4902 12.4022 11.9708C13.4734 12.4514 14.4307 13.1533 15.2112 14.0303" stroke="#404040" stroke-width="1.3" stroke-miterlimit="10"/>
</svg>
