<svg width="40" height="40" viewBox="0 0 40 40" fill="none" xmlns="http://www.w3.org/2000/svg">
<path fill-rule="evenodd" clip-rule="evenodd" d="M34.4988 7.9605C32.9689 6.74862 31.1024 6.06376 29.1673 6.00424C27.2323 5.94471 25.329 6.51382 23.7306 7.6298C22.2245 8.44393 20.9096 9.58276 19.8764 10.9669C19.4392 10.3229 18.9361 9.72857 18.3759 9.19313C17.6251 8.26565 16.6565 7.54742 15.5609 7.10578C14.4649 6.66444 13.2775 6.51352 12.1092 6.66775C9.94199 6.87429 7.85925 7.6286 6.04837 8.86242C1.28212 12.2897 2.60608 19.445 6.57794 24.4356C10.0903 28.2432 14.2087 31.4147 18.7584 33.8156C18.8472 33.8901 18.9505 33.944 19.0617 33.9737C19.1726 34.0032 19.2888 34.008 19.4018 33.9875C19.5148 33.9668 19.6222 33.9214 19.7163 33.8544C19.8105 33.7873 19.8893 33.7004 19.9476 33.5991C20.0055 33.4981 20.0417 33.3851 20.0529 33.2684C20.0644 33.1518 20.0509 33.0339 20.0132 32.923C19.9755 32.812 19.9152 32.711 19.8355 32.6262C19.7561 32.5415 19.6596 32.4756 19.5527 32.4326C15.3584 29.9124 11.5681 26.749 8.3138 23.0527C7.257 21.7635 6.49263 20.251 6.07544 18.6239C5.65823 16.9972 5.5988 15.2958 5.90126 13.6426C6.40641 12.5468 7.19904 11.6154 8.19112 10.9522C9.18321 10.2887 10.3356 9.91918 11.5207 9.8846C12.3825 9.62786 13.3004 9.6456 14.1519 9.93571C15.0036 10.2258 15.7483 10.7742 16.287 11.5081C18.0817 13.2818 17.7286 13.823 18.5818 14.755C18.7622 14.9633 18.9887 15.1248 19.2423 15.2252C19.4962 15.3259 19.7699 15.3632 20.0405 15.3337C20.3112 15.3043 20.571 15.2092 20.7984 15.0562C21.0259 14.9032 21.2142 14.697 21.3475 14.4543C21.5828 14.0936 21.7888 13.4923 21.9653 13.2518C23.2672 11.4533 25.1048 10.1347 27.2023 9.49377C28.0902 9.05634 29.0838 8.89189 30.0614 9.02026C31.0394 9.14864 31.9597 9.56442 32.7105 10.2171C33.4617 10.8698 34.011 11.7314 34.2916 12.6971C34.5726 13.6628 34.5729 14.6909 34.2928 15.6569C32.8512 21.9403 27.5259 27.1414 22.2889 30.6889C22.1151 30.8329 21.9991 31.0371 21.9629 31.2625C21.9267 31.4883 21.9732 31.7195 22.093 31.9125C22.2127 32.1055 22.3981 32.2468 22.6131 32.3094C22.8282 32.3722 23.0583 32.3518 23.2598 32.2523C27.4165 29.6842 31.0359 26.3023 33.9103 22.3011C37.0584 17.4307 38.6472 11.7185 34.4988 7.9605Z" fill="#34312E"/>
</svg>
