<svg width="40" height="40" viewBox="0 0 40 40" fill="none" xmlns="http://www.w3.org/2000/svg">
<path d="M15.3977 28.0408L15.3969 28.0405L15.396 28.0402L15.3977 28.0408Z" fill="#34312E"/>
<path d="M14.0346 10.9342C14.0351 10.9337 14.0357 10.9333 14.0362 10.9329C14.0372 10.9321 14.0381 10.9314 14.0391 10.9306L14.0346 10.9342Z" fill="#34312E"/>
<path d="M10.7254 23.6067C10.7251 23.6061 10.7248 23.6055 10.7246 23.6049C10.7243 23.6043 10.7239 23.6037 10.7237 23.6031L10.7254 23.6067Z" fill="#34312E"/>
<path d="M29.418 24.2219L29.419 24.2206L29.4184 24.2214L29.418 24.2219Z" fill="#34312E"/>
<path d="M26.4688 26.9012C26.4679 26.9018 26.4671 26.9022 26.4662 26.9028C26.4658 26.903 26.4654 26.9033 26.465 26.9036L26.4688 26.9012Z" fill="#34312E"/>
<path d="M21.9409 28.615C21.9402 28.6151 21.9395 28.6152 21.9387 28.6154C21.9381 28.6155 21.9375 28.6156 21.9368 28.6157L21.9409 28.615Z" fill="#34312E"/>
<path d="M30.9933 15.9483C30.9935 15.9487 30.9936 15.9491 30.9937 15.9495C30.9939 15.9501 30.9941 15.9506 30.9942 15.9511L30.9933 15.9483Z" fill="#34312E"/>
<path d="M31.3628 19.3187C31.392 19.0404 31.4066 18.7614 31.4066 18.4828C31.4066 17.6233 31.2678 16.7677 30.9937 15.9495C30.5631 14.6442 29.7912 13.4773 28.7565 12.5709L28.7548 12.5694C27.5597 11.5307 26.1627 10.7497 24.6498 10.2757C24.6478 10.275 24.6461 10.2739 24.6442 10.2732C24.196 10.123 23.7444 10.0041 23.3285 9.88437C23.2174 9.65205 23.0359 9.45972 22.807 9.33523C22.0875 8.85822 21.2434 8.60346 20.3807 8.60343L20.3613 8.60348C20.3366 8.60327 20.312 8.60314 20.2874 8.60314C19.425 8.60315 18.5672 8.73213 17.7437 8.98647C16.3941 9.3922 15.1356 10.0538 14.0362 10.9329C11.6013 12.844 10.0967 15.7003 9.90089 18.7888L9.90105 18.7888C9.87512 19.075 9.86186 19.3614 9.86186 19.6473C9.86186 21.0099 10.1544 22.3599 10.7246 23.6049C11.6405 25.6387 13.3176 27.2315 15.3969 28.0405C16.679 28.5436 18.0433 28.8074 19.4203 28.8183C19.4216 28.8184 19.423 28.8187 19.4243 28.8187C19.4782 28.8194 19.532 28.8197 19.5857 28.8197C20.3739 28.8197 21.1614 28.7516 21.9387 28.6154C23.5456 28.3446 25.0839 27.7618 26.4662 26.9028C27.6103 26.2031 28.6131 25.2934 29.4184 24.2214C30.4969 22.7933 31.1695 21.1006 31.3625 19.3206L31.3628 19.3187ZM27.8424 14.7726C28.6003 15.6172 29.0624 16.6877 29.1566 17.8194L29.1567 17.8206C29.1738 18.0215 29.1823 18.2223 29.1823 18.4226C29.1823 19.6854 28.8445 20.9303 28.1996 22.0255L28.1939 22.0355C27.4379 23.3779 26.326 24.4827 24.9766 25.2297L24.9702 25.2332C23.9589 25.8093 22.8569 26.2105 21.711 26.4219L21.7048 26.4231C21.0358 26.5539 20.3573 26.6198 19.6788 26.6198C19.1936 26.6198 18.7085 26.587 18.2272 26.5207L18.2189 26.5197C17.0714 26.378 15.9678 25.9796 14.9957 25.3555C13.9889 24.6781 13.1958 23.7256 12.7111 22.6131L12.7099 22.6105C12.302 21.6865 12.0918 20.69 12.0918 19.6826C12.0918 19.6042 12.0931 19.5257 12.0956 19.4472L12.096 19.4327C12.1102 17.6217 12.6978 15.8604 13.7749 14.4029L13.7761 14.4014C14.7389 13.0895 16.0457 12.0672 17.5516 11.4459L17.561 11.4419C18.2279 11.1533 18.9337 10.9682 19.6563 10.8902C19.658 10.8901 19.6589 10.89 19.6607 10.8899C19.8223 10.8729 20.0019 10.8674 20.1897 10.8655C20.2319 10.9863 20.2942 11.0986 20.3739 11.1973C20.5191 11.3778 20.7269 11.5148 20.9675 11.5742C21.2964 11.6776 21.6347 11.7609 21.9677 11.8438L21.9832 11.8474C23.0566 12.0839 24.1044 12.4202 25.1156 12.8509L25.1166 12.8514C26.1512 13.2897 27.081 13.9444 27.8424 14.7726Z" fill="#34312E"/>
<path d="M17.7411 8.9872C17.742 8.98694 17.7428 8.98673 17.7437 8.98647C17.7443 8.98627 17.745 8.98602 17.7457 8.98582L17.7411 8.9872Z" fill="#34312E"/>
<path d="M14.4603 28.1393C14.2937 28.0478 14.1094 28.0023 13.9263 28.0024C13.7235 28.0023 13.5204 28.0592 13.3422 28.1695C13.3361 28.1729 13.3297 28.1755 13.3237 28.1791C12.6563 28.5842 11.9861 28.9826 11.3177 29.4171L11.3194 29.416C9.93569 30.3091 8.56891 31.2191 7.19805 32.117L7.19304 32.1204C6.99215 32.2551 6.7649 32.3897 6.52514 32.5459C6.41002 32.6133 6.30735 32.6988 6.22265 32.8015C6.1268 32.9177 6.05302 33.0556 6.01056 33.2085L6.01019 33.2084C6.00987 33.2095 6.00977 33.2107 6.00945 33.2119C6.00908 33.2132 6.0085 33.2145 6.00813 33.2159L6.00861 33.216C5.98183 33.3129 5.9681 33.4121 5.9681 33.5104C5.9681 33.7204 6.02793 33.9266 6.14042 34.1049C6.31052 34.3745 6.58704 34.5544 6.89466 34.6067C6.95682 34.6174 7.01955 34.6227 7.08198 34.6227C7.31561 34.623 7.54349 34.5472 7.73197 34.4115C8.62737 33.8349 9.45126 33.297 10.4067 32.6785L10.4072 32.6782C11.3689 32.0543 12.306 31.4258 13.2744 30.8149C13.6673 30.5753 14.0654 30.3271 14.4535 30.0927L14.4529 30.0917C14.6154 30.0036 14.7539 29.8793 14.8539 29.7282C14.9643 29.5618 15.0301 29.3639 15.0383 29.1571C15.0383 29.1568 15.0384 29.1566 15.0384 29.1563C15.0387 29.1476 15.0387 29.1405 15.0389 29.1327V29.1325C15.039 29.126 15.0392 29.1187 15.0392 29.1128C15.0385 28.7053 14.8165 28.3344 14.4603 28.1393Z" fill="#34312E"/>
<path d="M14.4591 28.1385L14.4603 28.1393L14.4615 28.1398L14.4591 28.1385Z" fill="#34312E"/>
<path d="M37.6176 29.1838C37.6171 29.184 37.6167 29.1842 37.6164 29.1844C37.6159 29.1847 37.6154 29.1851 37.6149 29.1854L37.6176 29.1838Z" fill="#34312E"/>
<path d="M38.1418 28.1891C38.1417 28.1868 38.1412 28.1846 38.141 28.1822C38.1407 28.1764 38.1408 28.1708 38.1403 28.1648C38.1395 28.155 38.1375 28.1455 38.1362 28.1358C38.106 27.798 37.9319 27.4946 37.6602 27.2965L37.6607 27.296C36.8312 26.6283 36.0354 25.9163 35.2802 25.1642C35.2783 25.1621 35.2768 25.1597 35.2748 25.1576C34.7866 24.6468 34.3107 24.1368 33.8737 23.6106C33.6533 23.3174 33.4537 23.009 33.2767 22.6866L33.2762 22.6869C33.1153 22.3861 32.8333 22.1712 32.5027 22.0952L32.4897 22.0923C32.417 22.0773 32.3436 22.07 32.271 22.07C31.9443 22.0701 31.6326 22.2184 31.4248 22.4795L31.4239 22.4788C31.4193 22.4844 31.4154 22.4904 31.4108 22.496C31.4086 22.4989 31.406 22.5013 31.4038 22.5042L31.4043 22.5046C31.2513 22.6992 31.1721 22.9362 31.1723 23.1727C31.1722 23.3552 31.2211 23.5384 31.3141 23.7036L31.3128 23.7043C31.6176 24.2996 31.9947 24.8559 32.436 25.3592L32.4371 25.3604C33.615 26.696 34.9057 27.9263 36.2933 29.0397C36.3494 29.0849 36.4202 29.1381 36.5116 29.1877L36.5123 29.1863C36.6815 29.2857 36.871 29.3382 37.0612 29.3382C37.2523 29.3382 37.4451 29.2873 37.6164 29.1844C37.947 28.986 38.1436 28.6325 38.144 28.254C38.144 28.2329 38.1426 28.211 38.1413 28.1891L38.1418 28.1891Z" fill="#34312E"/>
<path d="M36.2947 29.0408C36.2942 29.0405 36.2938 29.0401 36.2933 29.0397C36.2933 29.0397 36.293 29.0394 36.2928 29.0393L36.2947 29.0408Z" fill="#34312E"/>
<path d="M7.96644 22.0702C7.96708 22.0707 7.96761 22.0713 7.96824 22.0718C7.96893 22.0723 7.96967 22.0728 7.97035 22.0734L7.96644 22.0702Z" fill="#34312E"/>
<path d="M0.0434631 23.1024C0.0436744 23.1017 0.0439384 23.101 0.0441497 23.1003C0.0442025 23.1001 0.0442553 23.0998 0.0443081 23.0995L0.0434631 23.1024Z" fill="#34312E"/>
<path d="M7.29243 24.0456C7.58896 24.0376 7.87054 23.9127 8.07481 23.6967L8.07877 23.6925C8.26752 23.4896 8.37831 23.2179 8.378 22.9326C8.378 22.9084 8.3772 22.8842 8.37567 22.8601L8.37557 22.859C8.35571 22.5507 8.20499 22.2643 7.96824 22.0718C7.76851 21.9076 7.5212 21.8207 7.26782 21.8205C7.24833 21.8205 7.22879 21.8238 7.2092 21.8248C7.19409 21.8245 7.17894 21.8241 7.16373 21.8248L5.97935 21.8847C5.91471 21.8678 5.84653 21.8603 5.77635 21.8665C4.59741 21.9693 3.4088 22.0629 2.22004 22.1703L2.21571 22.1707C1.79238 22.2121 1.37545 22.2665 0.964793 22.3199L0.964846 22.3204C0.527259 22.3699 0.163871 22.6801 0.0441497 23.1003C0.0145759 23.2024 1.7869e-07 23.3073 1.7869e-07 23.4112C-0.000158252 23.6902 0.10504 23.9614 0.295369 24.1691C0.509515 24.4032 0.810639 24.5316 1.11858 24.5313C1.16748 24.5313 1.21649 24.5268 1.26539 24.5204C1.27416 24.5197 1.28292 24.5197 1.29169 24.5187L1.88375 24.45L1.88681 24.4496C3.13197 24.2984 4.37824 24.1908 5.62388 24.1304L5.62499 24.1304L7.29248 24.0463L7.29243 24.0456Z" fill="#34312E"/>
<path d="M28.7778 9.20967L28.7775 9.20997C28.7787 9.211 28.7799 9.21184 28.7811 9.21286C28.7819 9.21359 28.7826 9.21443 28.7834 9.21515L28.7836 9.21494C28.9876 9.39666 29.2479 9.49174 29.5079 9.4914C29.7411 9.49179 29.9784 9.4149 30.1736 9.26281L30.1903 9.2493C30.3012 9.15646 30.4052 9.04815 30.4967 8.92406L30.497 8.92426C30.9954 8.28569 31.5341 7.68225 32.1116 7.11548L34.297 5.1049C34.4088 5.00977 34.5169 4.90171 34.6142 4.77617L34.6265 4.75981C34.7616 4.57278 34.8312 4.35007 34.831 4.12739C34.8311 3.96402 34.7922 3.80001 34.7176 3.64909L34.7186 3.64862C34.7165 3.64414 34.7136 3.64027 34.7115 3.63583C34.7084 3.62977 34.7063 3.62337 34.7031 3.61736L34.7017 3.61809C34.5281 3.27225 34.1852 3.04941 33.8028 3.02524C33.793 3.02402 33.7835 3.02389 33.7737 3.02315C33.7606 3.02267 33.7478 3.02033 33.7346 3.02033L33.7249 3.02037V3.02052C33.724 3.02053 33.7231 3.02037 33.7223 3.02039C33.4249 3.02379 33.1387 3.14366 32.9254 3.35423L32.9253 3.35411C32.5829 3.66174 32.2527 3.9672 31.9196 4.25737L31.9238 4.25385C30.7422 5.26492 29.6644 6.38979 28.7042 7.61446L28.7049 7.61501C28.6365 7.69764 28.5754 7.78712 28.525 7.88507L28.5191 7.89687C28.4438 8.05135 28.407 8.21841 28.4071 8.38268C28.4071 8.53807 28.4396 8.69172 28.503 8.83413C28.5653 8.97415 28.6584 9.10325 28.7778 9.20967Z" fill="#34312E"/>
<path d="M4.58389 8.43029L4.59778 8.45187C4.65143 8.53124 4.71243 8.61495 4.78103 8.69899C4.78488 8.70417 4.78768 8.70996 4.79175 8.71503C5.09926 9.10091 5.40509 9.48467 5.70563 9.8721C6.32938 10.6999 7.00751 11.4871 7.7363 12.2262C7.73719 12.2271 7.73809 12.2281 7.73894 12.229C7.74015 12.2302 7.74126 12.2314 7.74242 12.2326L7.74253 12.2326C7.98181 12.4813 8.24116 12.7081 8.4777 12.9165L8.47818 12.916C8.68113 13.1029 8.94386 13.2026 9.2096 13.2024C9.34416 13.2024 9.47994 13.176 9.6089 13.1248L9.60916 13.1255C9.6126 13.1243 9.61566 13.1223 9.61909 13.121C9.62575 13.1183 9.63261 13.1164 9.63921 13.1135L9.63863 13.1121C9.82859 13.0355 9.98945 12.9095 10.1049 12.7523C10.2245 12.5898 10.2981 12.3936 10.3128 12.1846L10.3136 12.1847C10.3138 12.182 10.3138 12.179 10.3139 12.1763C10.314 12.1751 10.3143 12.174 10.3144 12.1729L10.3141 12.1729C10.3159 12.1464 10.3173 12.1196 10.3173 12.0919C10.3175 11.7534 10.1676 11.4311 9.90812 11.2108L9.9087 11.2102C8.99318 10.3707 8.15947 9.44429 7.42229 8.44408L7.41273 8.43145C7.08425 8.0098 6.75133 7.60225 6.4332 7.19746L6.43267 7.19786C6.21399 6.91396 5.87843 6.74698 5.51884 6.74646C5.50675 6.74646 5.49455 6.74665 5.48246 6.74704V6.74754C5.48003 6.74762 5.4777 6.74717 5.47527 6.74727C5.10111 6.76423 4.76973 6.97306 4.58663 7.29171L4.58558 7.29105C4.58183 7.29709 4.57935 7.30365 4.5757 7.30975C4.57164 7.31716 4.56657 7.32379 4.56266 7.33131L4.56398 7.332C4.47135 7.49636 4.42276 7.67903 4.42287 7.86133C4.42276 8.05863 4.47705 8.25642 4.58389 8.43029Z" fill="#34312E"/>
<path d="M25.4076 37.206C25.3429 36.7732 25.2872 36.393 25.239 35.9367C25.1938 35.494 25.1783 35.0373 25.1223 34.521L25.1197 34.501C25.0161 33.7807 24.9494 33.0575 24.9214 32.3308V32.1848L24.9204 32.1498C24.9036 31.8618 24.7714 31.591 24.5547 31.3994L24.5539 31.3987C24.3545 31.2236 24.1022 31.1289 23.8383 31.1284C23.8267 31.1284 23.8149 31.1293 23.8032 31.1297C23.7888 31.1301 23.7744 31.1302 23.7598 31.1313L23.7599 31.1319C23.4788 31.1431 23.2216 31.2622 23.0372 31.4474C22.8424 31.6413 22.7192 31.9153 22.7194 32.2135V32.6418C22.7084 32.6956 22.7034 32.7513 22.7078 32.8081C22.7302 33.09 22.7455 33.3918 22.7828 33.7068L22.7835 33.7123C22.8893 34.5339 22.9759 35.3593 23.0341 36.1824L23.0345 36.1868C23.0725 36.6737 23.1388 37.1595 23.2353 37.6404L23.2362 37.6402C23.2891 37.9529 23.476 38.2261 23.7466 38.3873C23.9167 38.489 24.1096 38.5406 24.302 38.5405C24.4235 38.5405 24.5452 38.5194 24.6615 38.4786L24.6617 38.4792C24.6651 38.478 24.6683 38.4766 24.6716 38.4754C24.6744 38.4744 24.6773 38.4737 24.6801 38.4727L24.6799 38.4723C24.9034 38.3936 25.0907 38.2482 25.2198 38.0667C25.3528 37.8802 25.4284 37.6537 25.4285 37.4157C25.4285 37.3461 25.4202 37.2759 25.4069 37.2061L25.4076 37.206Z" fill="#34312E"/>
<path d="M39.9929 13.1335L39.9942 13.1334C39.9936 13.1216 39.9916 13.1102 39.9904 13.0985C39.99 13.0949 39.9902 13.091 39.9897 13.0874L39.9893 13.0875C39.9621 12.8212 39.8388 12.5811 39.6557 12.409C39.4743 12.2373 39.2285 12.1283 38.9622 12.116L38.9623 12.1157C38.9461 12.1143 38.9299 12.1146 38.9137 12.1136C38.913 12.1136 38.9122 12.1135 38.9115 12.1135C38.8777 12.1116 38.8438 12.1092 38.81 12.1092C38.7592 12.1092 38.7084 12.1114 38.6577 12.1156L38.6379 12.1176C37.605 12.2386 36.5806 12.4182 35.5703 12.6522C35.5618 12.6542 35.5541 12.6578 35.5458 12.6602C35.1482 12.7549 34.7671 12.864 34.3943 12.9683L34.3944 12.9684C34.1612 13.0244 33.9575 13.1524 33.8096 13.3249C33.6587 13.5003 33.5625 13.7247 33.5435 13.9671L33.543 13.9671C33.5425 13.9714 33.5427 13.9759 33.5423 13.9803C33.5418 13.9875 33.5407 13.9946 33.5403 14.0018L33.5397 14.0292C33.5388 14.0472 33.5368 14.0651 33.5368 14.0832C33.5368 14.3535 33.6379 14.6065 33.8066 14.7979C33.9746 14.9898 34.2163 15.1244 34.4883 15.1573C34.5129 15.1603 34.5271 15.1613 34.5519 15.1616L34.5783 15.1618C34.759 15.1617 34.9399 15.135 35.1162 15.0808L35.1163 15.0813C36.1123 14.7951 37.1297 14.5811 38.1588 14.4378L38.1609 14.4375C38.4447 14.3965 38.7574 14.3676 39.094 14.3034V14.3035C39.0952 14.3033 39.0963 14.303 39.0974 14.3028C39.1014 14.302 39.1052 14.3015 39.1093 14.3007L39.1092 14.3003C39.3644 14.2539 39.5881 14.1191 39.7445 13.9333C39.9045 13.7441 40 13.4982 40 13.2359C40 13.2011 39.9961 13.1674 39.9929 13.1335Z" fill="#34312E"/>
<path d="M17.3797 6.20511L17.3796 6.20449C17.4133 6.48358 17.5515 6.73089 17.7478 6.90266C17.9436 7.07516 18.2022 7.17869 18.4789 7.17869C18.5256 7.17869 18.5725 7.17565 18.6193 7.1697C18.8988 7.13522 19.1448 6.99593 19.3154 6.80012C19.4872 6.60412 19.5906 6.34636 19.5907 6.0693C19.5907 6.02433 19.5879 5.97913 19.5824 5.93405L19.5804 5.91967C19.5329 5.59731 19.509 5.27242 19.509 4.94804C19.509 4.80655 19.5135 4.66524 19.5226 4.52433L19.5227 4.52132C19.5623 4.03837 19.6001 3.55464 19.6342 3.07013C19.6582 2.7968 19.6897 2.50028 19.69 2.17759C19.6916 2.15301 19.6953 2.12852 19.6953 2.10391C19.6952 1.83289 19.5956 1.57986 19.4288 1.38548C19.2628 1.19094 19.0226 1.05064 18.7486 1.01141C18.6957 1.00377 18.6429 1 18.5905 1C18.3195 1.00007 18.0667 1.09985 17.873 1.26585C17.6916 1.42065 17.5588 1.63924 17.5088 1.8891C17.5083 1.89086 17.5081 1.89262 17.5077 1.89438C17.5047 1.90984 17.5009 1.925 17.4985 1.94069L17.499 1.94077C17.481 2.02694 17.4696 2.11356 17.4657 2.20025L17.4649 2.20019C17.4473 2.44001 17.4087 2.72229 17.405 3.03995C17.3674 3.62374 17.318 4.21348 17.2643 4.91447L17.2626 4.95986L17.2648 5.01097C17.2932 5.34038 17.3279 5.78263 17.3797 6.20511Z" fill="#34312E"/>
<path d="M18.7482 1.01134L18.7486 1.01141L18.7488 1.01143L18.7482 1.01134Z" fill="#34312E"/>
<path d="M18.6207 7.16961C18.6202 7.16967 18.6198 7.16964 18.6193 7.1697C18.6186 7.16978 18.618 7.16995 18.6173 7.17003L18.6207 7.16961Z" fill="#34312E"/>
</svg>
