<svg width="40" height="40" viewBox="0 0 40 40" fill="none" xmlns="http://www.w3.org/2000/svg">
<g clip-path="url(#clip0_6146_319)">
<path d="M36.0138 7.68947C35.9923 7.41261 35.8523 7.15909 35.6294 6.99349C35.4065 6.82788 35.1234 6.76699 34.8521 6.82634C32.4245 7.35742 30.4921 8.12512 28.9594 9.04103C27.8102 9.72758 26.8871 10.4978 26.1555 11.3048C25.0571 12.515 24.3945 13.8049 24.0144 14.9943C23.6334 16.1847 23.53 17.2744 23.5298 18.1168C23.5302 19.1418 23.6827 19.8039 23.6953 19.8584C23.7936 20.2754 24.1503 20.5638 24.5558 20.5948C24.3886 20.9375 24.2277 21.2834 24.0736 21.6324C23.7965 22.2852 23.5381 22.9515 23.3297 23.6334C23.2413 23.4822 23.1524 23.3314 23.0627 23.1814C21.7867 21.0458 20.4323 18.9282 18.9414 16.9153C19.1036 16.7859 19.2257 16.604 19.277 16.3864C19.2895 16.3319 19.4812 15.5036 19.4816 14.218C19.4814 13.2786 19.3787 12.0939 19.0205 10.7939C18.7519 9.81919 18.3389 8.77984 17.7192 7.73881C16.7906 6.17682 15.3938 4.61565 13.3607 3.26803C11.3275 1.91906 8.6644 0.781401 5.1938 0.0222097C4.92254 -0.0371436 4.63933 0.0237616 4.41644 0.189377C4.19355 0.354992 4.05353 0.608546 4.03209 0.885401C4.03051 0.906315 4 1.30752 4 1.97819C4.00018 2.89403 4.05645 4.312 4.32485 5.95334C4.52642 7.18433 4.84717 8.54143 5.35906 9.9067C5.74312 10.9305 6.23499 11.9592 6.86746 12.9389C7.81501 14.4077 9.08476 15.7681 10.7606 16.8058C12.4354 17.8447 14.5084 18.5525 17.0184 18.7579C17.3435 18.7847 17.6436 18.6457 17.8368 18.4119C18.8547 19.984 19.843 21.5772 20.8252 23.1783C23.2193 27.03 25.4994 31.0619 26.6639 35.4737C27.0298 36.9365 27.2544 38.4516 27.0339 40C27.6648 38.5454 27.7269 36.8837 27.5842 35.3172C27.1612 31.399 25.6347 27.7075 23.71 24.2952C24.4793 23.5402 25.1575 22.7218 25.7811 21.8616C26.9197 21.7597 27.9476 21.5286 28.8676 21.1886C30.5264 20.5773 31.8302 19.6124 32.8189 18.488C33.5618 17.6447 34.1313 16.7144 34.5691 15.7706C35.2255 14.3542 35.5889 12.9067 35.7929 11.6365C35.9963 10.3661 36.0394 9.27164 36.0395 8.55908C36.0395 8.02898 36.0154 7.71039 36.0138 7.68947ZM13.6735 16.0991C11.8979 15.4417 10.5515 14.4415 9.49692 13.2468C8.70732 12.3506 8.08568 11.3424 7.59879 10.2926C6.86816 8.71885 6.44394 7.05271 6.20717 5.57286C5.98732 4.20195 5.92747 2.99296 5.91992 2.16795C8.29229 2.78046 10.1781 3.57911 11.6752 4.47375C12.9721 5.249 13.9794 6.09565 14.7674 6.96436C15.9484 8.26757 16.641 9.6234 17.0463 10.8866C17.4507 12.1489 17.5628 13.3188 17.5626 14.218C17.5626 14.5506 17.5472 14.8451 17.5263 15.0934C16.3769 13.6829 15.1469 12.3409 13.8101 11.1037C13.2252 10.5756 12.6167 10.0706 11.9708 9.61506C11.324 9.17261 10.6479 8.72583 9.88707 8.51209C10.5483 8.91441 11.0851 9.47365 11.6211 10.0217C12.6717 11.1345 13.6113 12.3433 14.5222 13.5709C15.2995 14.6331 16.0481 15.7139 16.7792 16.8065C15.6155 16.6807 14.5862 16.4362 13.6735 16.0991ZM33.1681 14.1501C32.9047 14.8527 32.5716 15.5453 32.1546 16.1911C31.528 17.1605 30.7182 18.0226 29.6501 18.685C28.9607 19.1113 28.1599 19.4573 27.217 19.6882C27.2388 19.6525 27.2609 19.6171 27.2826 19.5813C28.4636 17.6249 29.3975 15.5155 30.0693 13.3277C29.5517 13.6199 29.1381 14.0707 28.7164 14.4807C27.4617 15.8053 26.3924 17.2809 25.4827 18.8522C25.4636 18.6504 25.4487 18.402 25.4488 18.1168C25.4487 17.5081 25.5162 16.7354 25.7474 15.897C25.9209 15.2679 26.1858 14.6015 26.5846 13.9314C27.1839 12.9267 28.0817 11.9087 29.4644 10.9901C30.6297 10.217 32.1459 9.51666 34.115 8.98243C34.0987 9.61135 34.0423 10.4526 33.8893 11.3872C33.7466 12.2602 33.5195 13.2137 33.1681 14.1501Z" fill="#34312E"/>
</g>
<defs>
<clipPath id="clip0_6146_319">
<rect width="40" height="40" fill="white"/>
</clipPath>
</defs>
</svg>
