<?xml version="1.0" encoding="utf-8"?>
<!-- Generator: Adobe Illustrator 23.0.2, SVG Export Plug-In . SVG Version: 6.00 Build 0)  -->
<svg version="1.1" id="Layer_1" xmlns="http://www.w3.org/2000/svg" xmlns:xlink="http://www.w3.org/1999/xlink" x="0px" y="0px"
	 width="20px" height="14px" viewBox="0 0 20 14" style="enable-background:new 0 0 20 14;" xml:space="preserve">
<path style="fill:#27C224;" d="M6.8,13.7L0.3,7.6C0.1,7.5,0,7.2,0,7c0-0.3,0.1-0.5,0.3-0.7L1.7,5c0.2-0.2,0.4-0.3,0.7-0.3
	c0.3,0,0.5,0.1,0.7,0.3l4.4,4.1l9.4-8.8C17.1,0.1,17.3,0,17.6,0c0.3,0,0.5,0.1,0.7,0.3l1.4,1.3C19.9,1.8,20,2,20,2.3
	c0,0.2-0.1,0.5-0.3,0.7L8.2,13.7C8,13.9,7.8,14,7.5,14C7.2,14,7,13.9,6.8,13.7z"/>
</svg>
