<svg width="41" height="37" viewBox="0 0 41 37" fill="none" xmlns="http://www.w3.org/2000/svg">
<path d="M20.4197 16.5215C13.9097 19.7655 7.81445 22.544 7.81445 22.544" stroke="black" stroke-miterlimit="10"/>
<path d="M24.3802 12.6182L35.8923 7.07568C35.8923 8.32675 29.719 11.8035 23.1602 15.1494" stroke="black" stroke-miterlimit="10"/>
<path d="M9.04492 20.0417L21.7673 13.8931" stroke="black" stroke-miterlimit="10"/>
<path d="M16.9311 27.9512L29.8829 1.28125C27.1988 1.28125 14.2227 29.2701 14.2227 29.2701" stroke="black" stroke-miterlimit="10"/>
<path d="M22.4617 14.9311C22.68 14.9311 22.857 14.7552 22.857 14.5383C22.857 14.3214 22.68 14.1455 22.4617 14.1455C22.2434 14.1455 22.0664 14.3214 22.0664 14.5383C22.0664 14.7552 22.2434 14.9311 22.4617 14.9311Z" stroke="black" stroke-miterlimit="10"/>
<path d="M5.0201 22.1366C6.41082 22.1366 7.53822 21.0163 7.53822 19.6344C7.53822 18.2526 6.41082 17.1323 5.0201 17.1323C3.62937 17.1323 2.50195 18.2526 2.50195 19.6344C2.50195 21.0163 3.62937 22.1366 5.0201 22.1366Z" stroke="black" stroke-miterlimit="10"/>
<path d="M5.01727 23.6603C7.25429 23.6603 9.06774 21.8584 9.06774 19.6356C9.06774 17.4128 7.25429 15.6108 5.01727 15.6108C2.78025 15.6108 0.966797 17.4128 0.966797 19.6356C0.966797 21.8584 2.78025 23.6603 5.01727 23.6603Z" stroke="black" stroke-miterlimit="10"/>
<path d="M17.2408 34.4774C18.6315 34.4774 19.7589 33.3572 19.7589 31.9753C19.7589 30.5934 18.6315 29.4731 17.2408 29.4731C15.85 29.4731 14.7227 30.5934 14.7227 31.9753C14.7227 33.3572 15.85 34.4774 17.2408 34.4774Z" stroke="black" stroke-miterlimit="10"/>
<path d="M17.2419 36.0002C19.4789 36.0002 21.2924 34.1982 21.2924 31.9754C21.2924 29.7526 19.4789 27.9507 17.2419 27.9507C15.0049 27.9507 13.1914 29.7526 13.1914 31.9754C13.1914 34.1982 15.0049 36.0002 17.2419 36.0002Z" stroke="black" stroke-miterlimit="10"/>
<path d="M39.7956 29.6434C40.2836 30.5695 34.4909 34.924 33.7199 34.2209C32.9488 33.5178 25.8483 27.0588 25.2578 26.2878C24.6673 25.5168 33.8273 18.6505 34.4031 19.4021C34.9155 20.0664 39.3076 28.7366 39.7956 29.6434Z" stroke="black" stroke-miterlimit="10"/>
<path d="M37.7689 32.1016L39.9698 35.011C40.3261 35.4959 39.15 36.2863 38.8279 35.8693L36.627 32.9841" stroke="black" stroke-miterlimit="10"/>
<path d="M34.4799 19.5233C35.0264 18.8881 35.2802 18.4226 35.1387 18.2335C34.7678 17.7486 31.9569 19.2518 28.858 21.589C25.7592 23.9263 23.5387 26.1957 23.9047 26.6806C24.0511 26.8745 24.5733 26.7533 25.3443 26.3993" stroke="black" stroke-miterlimit="10"/>
</svg>
