<svg width="16" height="12" viewBox="0 0 16 12" fill="none" xmlns="http://www.w3.org/2000/svg">
<path d="M15.8154 1.80905L5.96923 11.8191C5.84615 11.9397 5.72308 12 5.53846 12C5.35385 12 5.16923 11.9397 5.10769 11.8191L0.307693 6.75377L0.184616 6.63317C0.0615388 6.51256 0 6.33166 0 6.21105C0 6.09045 0.0615388 5.90955 0.184616 5.78895L1.04615 4.94472C1.29231 4.70352 1.66154 4.70352 1.90769 4.94472L1.96923 5.00502L5.35385 8.56281C5.47692 8.68342 5.66154 8.68342 5.78462 8.56281L14.0308 0.180905H14.0923C14.3385 -0.0603015 14.7077 -0.0603015 14.9538 0.180905L15.8154 1.02513C16.0615 1.20603 16.0615 1.56784 15.8154 1.80905Z" fill="#40AE28"/>
</svg>
