<svg width="56" height="37" viewBox="0 0 56 37" fill="none" xmlns="http://www.w3.org/2000/svg">
<path d="M1 26.5449L1.20926 33.2919C1.20926 33.2919 0.981259 35.3713 3.60488 35.8585H52.0825C54.703 35.3713 54.4781 33.2919 54.4781 33.2919L54.6843 26.5449" stroke="black" stroke-miterlimit="10"/>
<path d="M54.6843 25.9644H1V26.5447H54.6843V25.9644Z" stroke="black" stroke-miterlimit="10"/>
<path d="M52.0078 35.8618H3.67383V36.2963H52.0078V35.8618Z" stroke="black" stroke-miterlimit="10"/>
<path d="M49.634 1H6.05065C4.80285 1 3.6061 1.49232 2.72347 2.36876C1.84085 3.24519 1.34458 4.43401 1.34375 5.67388V25.9584H3.42391V5.1649C3.42391 4.60766 3.64669 4.07325 4.04324 3.67922C4.43978 3.28519 4.97762 3.06382 5.53842 3.06382H50.1525C50.7133 3.06382 51.2511 3.28519 51.6477 3.67922C52.0442 4.07325 52.267 4.60766 52.267 5.1649V25.9584H54.3471V5.67388C54.3467 5.05943 54.2245 4.45107 53.9874 3.88359C53.7502 3.31611 53.4029 2.80061 52.9652 2.36656C52.5275 1.93251 52.008 1.58842 51.4364 1.35394C50.8649 1.11946 50.2524 0.999189 49.634 1V1Z" stroke="black" stroke-miterlimit="10"/>
</svg>
