<svg width="24" height="24" viewBox="0 0 24 24" fill="none" xmlns="http://www.w3.org/2000/svg">
<g clip-path="url(#clip0)">
<path d="M12.0007 0C5.37351 0 0.000976562 5.37269 0.000976562 11.9999C0.000976562 18.6269 5.37351 24 12.0007 24C18.6279 24 24.0008 18.6269 24.0008 11.9999C24.0008 5.37269 18.6279 0 12.0007 0ZM12.0009 4.21492L19.102 8.64297H4.89983L12.0009 4.21492ZM19.1905 15.714H19.1898C19.1898 16.4242 18.6142 16.9998 17.904 16.9998H6.09784C5.38759 16.9998 4.81206 16.4242 4.81206 15.714V8.92473C4.81206 8.84961 4.81975 8.77657 4.83222 8.70481L11.6169 12.9355C11.6253 12.9407 11.6341 12.9442 11.6427 12.949C11.6517 12.954 11.6608 12.9588 11.6699 12.9633C11.7178 12.988 11.7672 13.008 11.8177 13.021C11.8229 13.0224 11.8281 13.0231 11.8333 13.0243C11.8886 13.0373 11.9447 13.0455 12.0007 13.0455H12.0011C12.0015 13.0455 12.0019 13.0455 12.0019 13.0455C12.0579 13.0455 12.114 13.0376 12.1693 13.0243C12.1745 13.023 12.1797 13.0224 12.1849 13.021C12.2353 13.008 12.2845 12.988 12.3327 12.9633C12.3418 12.9588 12.3509 12.954 12.3599 12.949C12.3684 12.9442 12.3773 12.9407 12.3857 12.9355L19.1704 8.70481C19.1828 8.77657 19.1905 8.84945 19.1905 8.92473V15.714Z" fill="#5BBC46"/>
</g>
<defs>
<clipPath id="clip0">
<rect width="24" height="24" fill="white"/>
</clipPath>
</defs>
</svg>
