<svg width="29" height="36" viewBox="0 0 29 36" fill="none" xmlns="http://www.w3.org/2000/svg">
<path d="M14.2974 11.8138C14.6209 12.3884 15.0253 12.9142 15.4984 13.3752C15.6231 13.5013 15.7728 13.6004 15.938 13.666C16.1033 13.7316 16.2805 13.7624 16.4583 13.7563C16.6362 13.7503 16.8108 13.7076 16.9712 13.6309C17.1315 13.5542 17.2741 13.4452 17.3898 13.3108C18.5584 11.9532 20.0866 9.16273 17.3215 5.62201C17.2049 5.47182 17.056 5.34936 16.8858 5.26354C16.7156 5.17772 16.5282 5.13069 16.3374 5.1259C16.1466 5.1211 15.9571 5.15868 15.7827 5.23585C15.6083 5.31302 15.4535 5.42785 15.3294 5.572C14.3298 6.74748 13.0893 8.8126 13.9882 11.1528" stroke="black" stroke-miterlimit="10"/>
<path d="M16.3633 8.95166V19.8525" stroke="black" stroke-miterlimit="10"/>
<path d="M16.334 19.0743C16.334 19.0743 16.5857 14.0151 24.4064 14.0151" stroke="black" stroke-miterlimit="10"/>
<path d="M16.3628 19.5318C16.3628 19.5318 16.4095 17.2344 12.8965 17.2344" stroke="black" stroke-miterlimit="10"/>
<path d="M27.584 14.5831C26.1097 13.2075 23.1253 11.3389 19.7345 14.3437C19.6007 14.4604 19.4929 14.6035 19.4179 14.764C19.3429 14.9244 19.3024 15.0986 19.2991 15.2755C19.2957 15.4523 19.3295 15.628 19.3982 15.7911C19.467 15.9543 19.5693 16.1014 19.6985 16.223C21.0038 17.4557 23.7294 19.1171 27.433 16.5589C27.5901 16.4508 27.7209 16.3092 27.816 16.1445C27.911 15.9798 27.9678 15.7961 27.9823 15.6068C27.9968 15.4174 27.9685 15.2273 27.8996 15.0502C27.8307 14.8731 27.7229 14.7135 27.584 14.5831Z" stroke="black" stroke-miterlimit="10"/>
<path d="M10.7098 16.3299C11.6303 15.7725 13.385 15.1187 14.8269 17.0445C14.883 17.12 14.9227 17.2062 14.9437 17.2977C14.9647 17.3892 14.9665 17.484 14.949 17.5762C14.9314 17.6684 14.8949 17.7561 14.8418 17.8336C14.7886 17.9112 14.7199 17.977 14.6399 18.027C13.8273 18.5272 12.2272 19.0989 10.5768 17.3767C10.5069 17.3035 10.4543 17.2157 10.4227 17.1198C10.3911 17.0239 10.3814 16.9222 10.3941 16.8221C10.4068 16.7219 10.4417 16.6259 10.4963 16.5407C10.5509 16.4556 10.6238 16.3836 10.7098 16.3299V16.3299Z" stroke="black" stroke-miterlimit="10"/>
<path d="M16.7907 21.2354C19.4659 21.2604 21.9973 21.4926 21.9973 21.9321C21.9973 22.7574 20.2786 32.2184 20.0988 33.2045C19.9729 33.8833 16.7188 34.1084 14.5254 33.8798" stroke="black" stroke-miterlimit="10"/>
<path d="M14.6408 33.7012C14.4179 34.916 5.85286 34.9124 5.62993 33.7012C5.40699 32.49 3.35742 21.3819 3.35742 20.235C3.35742 19.0881 16.9097 19.1238 16.9097 20.235C16.9205 21.1961 14.8566 32.5043 14.6408 33.7012Z" stroke="black" stroke-miterlimit="10"/>
<path d="M3.85303 6.87297C2.38957 6.21913 1.49064 5.44381 1.67402 4.97577C1.8574 4.50772 3.11231 4.61849 4.51825 5.07582" stroke="black" stroke-miterlimit="10"/>
<path d="M4.08307 8.80936C2.52612 8.90582 1.29998 8.64143 1.24604 8.16267C1.18491 7.62673 2.60523 7.02291 4.42467 6.81926C4.96862 6.75443 5.51702 6.73413 6.06432 6.75853" stroke="black" stroke-miterlimit="10"/>
<path d="M7.87686 7.70501C7.78696 8.26595 6.91319 9.23777 5.66907 10.0953C4.16965 11.135 2.699 11.6173 2.38976 11.1671C2.08053 10.7169 3.04419 9.5236 4.5472 8.48389C5.27251 7.95383 6.08536 7.55362 6.94915 7.30127" stroke="black" stroke-miterlimit="10"/>
<path d="M7.83442 7.39267C8.25155 7.0455 7.63764 5.63464 6.46322 4.24144C5.28879 2.84824 3.99858 2.00029 3.58145 2.34746C3.16432 2.69464 3.77822 4.10547 4.95265 5.49867C6.12708 6.89187 7.41729 7.73985 7.83442 7.39267Z" stroke="black" stroke-miterlimit="10"/>
<path d="M7.93221 3.47516C7.54387 1.93168 6.929 0.909822 6.44717 1.00629C5.96534 1.10276 5.84668 2.2961 6.04445 3.75026" stroke="black" stroke-miterlimit="10"/>
<path d="M9.81859 4.04629C10.1782 2.5421 10.1422 1.29516 9.67476 1.15939C9.20732 1.02362 8.30838 2.28842 7.7834 4.0177C7.62052 4.53837 7.50027 5.07128 7.42383 5.61121" stroke="black" stroke-miterlimit="10"/>
<path d="M8.05922 7.55487C8.63094 7.55487 9.74562 6.8796 10.8136 5.81488C12.1044 4.52864 12.8415 3.17452 12.4568 2.79579C12.0721 2.41707 10.7129 3.15309 9.422 4.43218C8.79497 5.01627 8.28178 5.7103 7.9082 6.47943" stroke="black" stroke-miterlimit="10"/>
<path d="M14.4028 11.0815C13.2703 11.2213 12.2216 11.7466 11.4349 12.568C10.6483 13.3894 10.1723 14.4562 10.0879 15.5869L10.2353 15.5441C14.4028 14.783 14.4028 11.0815 14.4028 11.0815Z" stroke="black" stroke-miterlimit="10"/>
<path d="M4.33594 13.2148C5.43359 12.9213 6.59957 13.0135 7.63672 13.4757C8.67387 13.9379 9.51856 14.7418 10.028 15.7515H9.87336C5.73827 16.6447 4.33594 13.2148 4.33594 13.2148Z" stroke="black" stroke-miterlimit="10"/>
<path d="M7.97392 7.54834C7.91279 7.66624 10.0918 7.96279 10.0918 13.2649V19.4317" stroke="black" stroke-miterlimit="10"/>
</svg>
