<svg width="15" height="16" viewBox="0 0 15 16" fill="none" xmlns="http://www.w3.org/2000/svg">
<path d="M12.3987 4.07178H2.29871C2.06675 4.08613 1.84703 4.18083 1.67731 4.3396C1.50759 4.49837 1.39848 4.71128 1.36872 4.94177L0.00873017 14.1718C-0.00937611 14.3078 0.00075284 14.4462 0.0384543 14.5782C0.0761557 14.7103 0.1406 14.8331 0.227846 14.9391C0.315093 15.0451 0.423235 15.132 0.545534 15.1944C0.667834 15.2568 0.801686 15.2933 0.938723 15.3018H13.7587C13.8949 15.292 14.0276 15.2546 14.1487 15.1916C14.2699 15.1286 14.3768 15.0415 14.463 14.9357C14.5492 14.8298 14.6128 14.7074 14.6499 14.576C14.687 14.4447 14.6968 14.3071 14.6787 14.1718L13.3187 4.94177C13.2893 4.71287 13.1817 4.50119 13.014 4.34262C12.8463 4.18405 12.6289 4.08836 12.3987 4.07178Z" fill="#B23F0D"/>
<path d="M5.05884 3.38181C5.06089 3.10441 5.12063 2.83046 5.23425 2.57739C5.34788 2.32432 5.51293 2.09766 5.71887 1.9118C6.16458 1.50565 6.74587 1.28052 7.34888 1.28052C7.95189 1.28052 8.53311 1.50565 8.97882 1.9118C9.18476 2.09766 9.34982 2.32432 9.46344 2.57739C9.57706 2.83046 9.63681 3.10441 9.63885 3.38181H10.9388C10.9353 2.92672 10.8386 2.47717 10.6545 2.06094C10.4705 1.64472 10.2031 1.27064 9.86884 0.961792C9.18334 0.342706 8.29251 0 7.36884 0C6.44516 0 5.55434 0.342706 4.86884 0.961792C4.53269 1.26913 4.26402 1.64291 4.07983 2.05948C3.89565 2.47605 3.79995 2.92634 3.79883 3.38181H5.05884Z" fill="#B23F0D"/>
</svg>
