<svg width="8" height="9" viewBox="0 0 8 9" fill="none" xmlns="http://www.w3.org/2000/svg">
<path d="M0.308594 8.22461C0.132812 8.05371 0.137695 7.76074 0.308594 7.58984L3.22363 4.66992L0.308594 1.75488C0.137695 1.58398 0.137695 1.2959 0.308594 1.12012C0.479492 0.944336 0.772461 0.949219 0.938477 1.12012L3.8584 4.04004L6.77832 1.12012C6.94922 0.949219 7.23242 0.949219 7.4082 1.12012C7.58398 1.29102 7.58398 1.58398 7.41309 1.75488L4.49316 4.66992L7.41309 7.58984C7.58398 7.76074 7.5791 8.04883 7.4082 8.22461C7.2373 8.40039 6.94922 8.39551 6.77832 8.22461L3.8584 5.30469L0.938477 8.22461C0.772461 8.39551 0.484375 8.39551 0.308594 8.22461Z" fill="#FCFAF6"/>
</svg>
