<svg xmlns="http://www.w3.org/2000/svg" width="20" height="20" viewBox="0 0 20 20" fill="none">
          <path d="M14.9052 13.283L16.2637 14.6415H17.6599L15.6599 12.5283L17.6599 10.4151H16.2637L14.9807 11.8113L13.6976 10.4151H12.2637L14.2637 12.566L12.2637 14.6792H13.6222L14.9052 13.283Z" fill="#FAFAD5"></path>
          <path d="M17.9995 13.7736V11.3208L16.792 12.5283L17.9995 13.7736Z" fill="#FAFAD5"></path>
          <path d="M12.264 11.3585V10.4528L8.7168 10.4151V14.6792H12.2637L12.264 13.7736H9.7734V13.0189H12.1885V12.1132H9.7734V11.3585H12.264Z" fill="#FAFAD5"></path>
          <path d="M2 2V18H18V15.4717H15.7736L14.9434 14.5283L14.1132 15.4717H7.84906V10.4151H5.77358L8.37736 4.56604H10.9057L11.5094 5.88679V4.56604H14.6415L15.1321 5.92453L15.6604 4.5283H18V2H2Z" fill="#FAFAD5"></path>
          <path d="M15.3585 7.50943L15.1321 8.11321L14.9057 7.50943L14.0755 5.3585H12.2642V9.53585L10.4151 5.3585H8.94343L7.05664 9.62264H8.30192L8.64154 8.79246H10.717L11.0566 9.62264H13.3963V6.30189L13.6227 6.86793L14.6793 9.66038H15.6604L16.717 6.86793L16.9057 6.30189V9.62264H18V5.3585H16.1887L15.3585 7.50943ZM9.05664 7.92453L9.47173 6.83019L9.69815 6.30189L9.92457 6.83019L10.3774 7.92453H9.05664Z" fill="#FAFAD5"></path>
        </svg>