<svg xmlns="http://www.w3.org/2000/svg" width="64" height="20" viewBox="0 0 64 20" fill="none">
          <path d="M26.592 8.43397C26.351 8.41844 26.1102 8.46762 25.8946 8.57643C25.6789 8.68524 25.4963 8.84973 25.3656 9.05284C25.2487 8.85863 25.0822 8.69898 24.8833 8.59024C24.6844 8.48149 24.4602 8.42757 24.2336 8.43397C24.0334 8.42399 23.8341 8.46644 23.6554 8.55712C23.4767 8.64779 23.3248 8.78354 23.2147 8.95095V8.52077H22.46V12.0076H23.2147V10.0755C23.1977 9.9561 23.2075 9.83445 23.2433 9.71929C23.279 9.60413 23.3399 9.49834 23.4214 9.40955C23.503 9.32075 23.6033 9.25116 23.715 9.20579C23.8267 9.16042 23.9471 9.1404 24.0675 9.14718C24.5694 9.14718 24.8222 9.47548 24.8222 10.0679V12.0076H25.5769V10.0755C25.5614 9.95634 25.5721 9.83524 25.6084 9.72069C25.6447 9.60614 25.7056 9.50092 25.7869 9.41244C25.8681 9.32396 25.9678 9.25435 26.0789 9.20853C26.19 9.1627 26.3097 9.14176 26.4298 9.14718C26.9468 9.14718 27.1845 9.47548 27.1845 10.0679V12.0076H27.9392V9.81888C27.9515 9.63704 27.9254 9.45465 27.8626 9.28357C27.7998 9.11248 27.7016 8.95655 27.5746 8.82591C27.4475 8.69527 27.2943 8.59285 27.125 8.52532C26.9557 8.45779 26.7741 8.42667 26.592 8.43397Z" fill="#FAFAD5"></path>
          <path d="M31.4755 8.93964C31.3456 8.77327 31.1778 8.64027 30.9862 8.55168C30.7945 8.46308 30.5845 8.42145 30.3736 8.43021C30.1375 8.43042 29.9039 8.4786 29.687 8.57182C29.47 8.66504 29.2743 8.80135 29.1116 8.97249C28.9489 9.14363 28.8227 9.34604 28.7406 9.56742C28.6585 9.78881 28.6222 10.0246 28.634 10.2604C28.6222 10.4962 28.6585 10.732 28.7406 10.9534C28.8227 11.1747 28.9489 11.3771 29.1116 11.5483C29.2743 11.7194 29.47 11.8557 29.687 11.949C29.9039 12.0422 30.1375 12.0904 30.3736 12.0906C30.5845 12.0993 30.7945 12.0577 30.9862 11.9691C31.1778 11.8805 31.3456 11.7475 31.4755 11.5811V12.0038H32.2302V8.517H31.4755V8.93964ZM30.4529 11.3736C30.3087 11.3755 30.1658 11.3475 30.033 11.2915C29.9002 11.2354 29.7804 11.1525 29.6812 11.048C29.5819 10.9435 29.5054 10.8195 29.4564 10.684C29.4074 10.5484 29.3869 10.4042 29.3963 10.2604C29.3841 10.115 29.4026 9.96877 29.4503 9.83097C29.4981 9.69318 29.5742 9.5669 29.6738 9.46028C29.7733 9.35365 29.894 9.26904 30.0282 9.21186C30.1624 9.15469 30.307 9.12623 30.4529 9.12832C30.5981 9.12729 30.7419 9.15653 30.8752 9.21417C31.0085 9.27181 31.1283 9.35659 31.227 9.46309C31.3257 9.5696 31.4011 9.69551 31.4484 9.83278C31.4958 9.97006 31.514 10.1157 31.5019 10.2604C31.5118 10.4037 31.492 10.5475 31.4436 10.6828C31.3952 10.8181 31.3194 10.9419 31.2209 11.0464C31.1223 11.151 31.0033 11.234 30.8711 11.2903C30.7389 11.3466 30.5965 11.375 30.4529 11.3736Z" fill="#FAFAD5"></path>
          <path d="M34.85 9.90948L34.4915 9.86042C34.1632 9.81514 33.9028 9.75099 33.9028 9.51702C33.9028 9.28306 34.1519 9.10948 34.5669 9.10948C34.9474 9.11498 35.3202 9.2176 35.65 9.40759L35.9783 8.79627C35.5516 8.53619 35.0589 8.40513 34.5594 8.41892C33.6764 8.41892 33.1066 8.84156 33.1066 9.55099C33.1066 10.117 33.5292 10.468 34.3103 10.5774L34.6688 10.6302C35.0839 10.6868 35.2801 10.7963 35.2801 11.0076C35.2801 11.2793 35.0009 11.4302 34.4839 11.4302C34.0663 11.4381 33.6583 11.3051 33.3254 11.0529L32.9707 11.6416C33.4123 11.9504 33.9415 12.1092 34.4801 12.0944C35.4877 12.0944 36.0688 11.6189 36.0688 10.9623C36.0688 10.3057 35.6085 10.0189 34.85 9.90948Z" fill="#FAFAD5"></path>
          <path d="M13.7126 5.00003C12.681 4.99773 11.6722 5.30249 10.8145 5.8755L10.939 5.98116C11.5488 6.51016 12.0378 7.16395 12.3731 7.89832C12.7084 8.63268 12.8821 9.43049 12.8824 10.2378C12.8806 11.0448 12.7063 11.8421 12.3711 12.5763C12.0359 13.3104 11.5476 13.9644 10.939 14.4944L10.8145 14.6C11.6722 15.173 12.681 15.4778 13.7126 15.4755C14.4005 15.476 15.0818 15.3409 15.7175 15.0778C16.3532 14.8148 16.9308 14.429 17.4173 13.9425C17.9038 13.456 18.2896 12.8784 18.5526 12.2427C18.8156 11.6071 18.9508 10.9257 18.9503 10.2378C18.9508 9.5498 18.8156 8.86848 18.5526 8.23278C18.2896 7.59709 17.9038 7.01949 17.4173 6.53302C16.9308 6.04656 16.3532 5.66077 15.7175 5.39772C15.0818 5.13468 14.4005 4.99953 13.7126 5.00003Z" fill="#FAFAD5"></path>
          <path d="M18.3477 13.3132H18.4156V13.483H18.4495V13.3132H18.5175V13.2793H18.3477V13.3132Z" fill="#FAFAD5"></path>
          <path d="M12.4756 10.2377C12.4765 9.48862 12.3162 8.74808 12.0056 8.06637C11.695 7.38466 11.2414 6.77774 10.6756 6.2868L10.4756 6.12077C10.4077 6.1736 10.3435 6.2302 10.2794 6.2868C9.71244 6.77707 9.25787 7.38377 8.9466 8.06557C8.63533 8.74737 8.47468 9.48825 8.47559 10.2377C8.47468 10.9872 8.63533 11.7281 8.9466 12.4099C9.25787 13.0917 9.71244 13.6984 10.2794 14.1887C10.3435 14.2453 10.4077 14.3019 10.4756 14.3547L10.6756 14.1887C11.2414 13.6978 11.695 13.0908 12.0056 12.4091C12.3162 11.7274 12.4765 10.9869 12.4756 10.2377Z" fill="#FAFAD5"></path>
          <path d="M18.6718 13.4189L18.6114 13.2793H18.5586V13.483H18.5963V13.3283L18.6529 13.4604H18.6907L18.751 13.3283V13.483H18.7888V13.2793H18.736L18.6718 13.4189Z" fill="#FAFAD5"></path>
          <path d="M8.07171 10.2378C8.07128 9.43072 8.24424 8.63302 8.57888 7.89864C8.91351 7.16426 9.40203 6.51034 10.0113 5.98115L10.1396 5.87549C9.28053 5.30238 8.27044 4.99765 7.23774 5.00001C5.8486 5.00001 4.51637 5.55185 3.5341 6.53411C2.55184 7.51638 2 8.84862 2 10.2378C2 11.6269 2.55184 12.9591 3.5341 13.9414C4.51637 14.9237 5.8486 15.4755 7.23774 15.4755C8.27044 15.4779 9.28053 15.1731 10.1396 14.6L10.0113 14.4944C9.40203 13.9652 8.91351 13.3112 8.57888 12.5769C8.24424 11.8425 8.07128 11.0448 8.07171 10.2378Z" fill="#FAFAD5"></path>
          <path d="M55.3582 8.93964V8.517H54.6035V12.0038H55.3582V10.0491C55.3582 9.47172 55.6073 9.15096 56.1129 9.15096C56.2759 9.14875 56.4377 9.17956 56.5884 9.24153L56.8224 8.52455C56.6489 8.46371 56.4666 8.43184 56.2828 8.43021C56.097 8.42384 55.913 8.46783 55.7503 8.55751C55.5875 8.6472 55.4521 8.77923 55.3582 8.93964Z" fill="#FAFAD5"></path>
          <path d="M61.6111 11.9057C61.6163 11.8924 61.6163 11.8775 61.6111 11.8642C61.6125 11.8551 61.6115 11.8458 61.6082 11.8372C61.6049 11.8286 61.5994 11.821 61.5922 11.8151C61.5749 11.8021 61.5535 11.7954 61.5318 11.7963H61.4375V12.0038H61.479V11.9283L61.5432 12.0038H61.596L61.5281 11.9246C61.5418 11.9321 61.5579 11.9344 61.5732 11.9309C61.5885 11.9274 61.602 11.9185 61.6111 11.9057ZM61.4941 11.9057V11.8302H61.5733C61.575 11.8338 61.5759 11.8376 61.5759 11.8416C61.5759 11.8455 61.575 11.8493 61.5733 11.8529C61.5733 11.8529 61.5734 11.8529 61.5432 11.8529L61.4941 11.9057Z" fill="#FAFAD5"></path>
          <path d="M59.8873 8.93963C59.7573 8.77326 59.5896 8.64027 59.3979 8.55167C59.2063 8.46308 58.9963 8.42144 58.7854 8.4302C58.5491 8.43044 58.3154 8.47861 58.0982 8.57178C57.8811 8.66496 57.6851 8.80121 57.5221 8.97229C57.3592 9.14337 57.2326 9.34574 57.1501 9.56714C57.0675 9.78854 57.0308 10.0244 57.042 10.2604C57.0308 10.4964 57.0675 10.7322 57.1501 10.9536C57.2326 11.175 57.3592 11.3774 57.5221 11.5485C57.6851 11.7196 57.8811 11.8558 58.0982 11.949C58.3154 12.0422 58.5491 12.0903 58.7854 12.0906C58.9963 12.0993 59.2063 12.0577 59.3979 11.9691C59.5896 11.8805 59.7573 11.7475 59.8873 11.5811V12.0038H60.642V7.12077H59.8873V8.93963ZM58.8797 11.3736C58.7356 11.3755 58.5927 11.3475 58.4599 11.2915C58.3271 11.2354 58.2073 11.1525 58.1081 11.048C58.0088 10.9435 57.9323 10.8195 57.8833 10.684C57.8342 10.5484 57.8138 10.4042 57.8231 10.2604C57.811 10.115 57.8294 9.96877 57.8772 9.83097C57.925 9.69317 58.0011 9.5669 58.1006 9.46027C58.2002 9.35365 58.3209 9.26903 58.4551 9.21186C58.5892 9.15469 58.7339 9.12622 58.8797 9.12831C59.0249 9.12728 59.1688 9.15652 59.302 9.21416C59.4353 9.2718 59.5551 9.35658 59.6538 9.46309C59.7525 9.5696 59.8279 9.6955 59.8753 9.83278C59.9226 9.97005 59.9409 10.1157 59.9288 10.2604C59.9387 10.4034 59.9189 10.5469 59.8708 10.6819C59.8226 10.8169 59.7471 10.9405 59.649 11.045C59.5509 11.1495 59.4323 11.2326 59.3005 11.2892C59.1688 11.3457 59.0269 11.3745 58.8835 11.3736H58.8797Z" fill="#FAFAD5"></path>
          <path d="M38.5511 11.3698C38.1738 11.3698 38.0492 11.1359 38.0492 10.7849V9.21135H39.287V8.51702H38.0492V7.46041H37.2945V8.51702H36.5889V9.21135H37.2945V10.8C37.2945 11.6076 37.6077 12.0906 38.5059 12.0906C38.8409 12.0913 39.1693 11.9971 39.453 11.8189L39.2342 11.1698C39.0274 11.2941 38.7922 11.363 38.5511 11.3698Z" fill="#FAFAD5"></path>
          <path d="M61.7397 11.8302C61.7282 11.8033 61.7115 11.7789 61.6906 11.7585C61.6703 11.7384 61.6458 11.7229 61.6189 11.7132C61.5916 11.7012 61.562 11.6947 61.5321 11.6943C61.5022 11.6947 61.4727 11.7012 61.4453 11.7132C61.4184 11.7229 61.394 11.7384 61.3736 11.7585C61.3527 11.7789 61.3361 11.8033 61.3246 11.8302C61.3189 11.8588 61.3189 11.8883 61.3246 11.917C61.3189 11.9456 61.3189 11.9751 61.3246 12.0038C61.3351 12.0301 61.352 12.0534 61.3736 12.0717C61.3926 12.0943 61.4174 12.1112 61.4453 12.1208C61.4727 12.1328 61.5022 12.1392 61.5321 12.1396C61.562 12.1392 61.5916 12.1328 61.6189 12.1208C61.6468 12.1112 61.6716 12.0943 61.6906 12.0717C61.7123 12.0534 61.7291 12.0301 61.7397 12.0038C61.7517 11.9764 61.7582 11.9469 61.7586 11.917C61.7582 11.8871 61.7517 11.8576 61.7397 11.8302ZM61.6906 11.9849C61.6816 12.0048 61.6687 12.0227 61.6529 12.0377C61.6379 12.0536 61.6199 12.0664 61.6 12.0755C61.5775 12.079 61.5546 12.079 61.5321 12.0755C61.5096 12.079 61.4867 12.079 61.4642 12.0755C61.4443 12.0664 61.4264 12.0536 61.4114 12.0377C61.3943 12.0238 61.3813 12.0056 61.3736 11.9849C61.3701 11.9624 61.3701 11.9395 61.3736 11.917C61.3701 11.8945 61.3701 11.8716 61.3736 11.8491C61.3813 11.8284 61.3943 11.8102 61.4114 11.7962C61.4253 11.7792 61.4436 11.7662 61.4642 11.7585C61.4867 11.755 61.5096 11.755 61.5321 11.7585C61.5546 11.755 61.5775 11.755 61.6 11.7585C61.6207 11.7662 61.6389 11.7792 61.6529 11.7962C61.6687 11.8113 61.6816 11.8292 61.6906 11.8491C61.6942 11.8716 61.6942 11.8945 61.6906 11.917C61.6928 11.9345 61.6928 11.9523 61.6906 11.9698V11.9849Z" fill="#FAFAD5"></path>
          <path d="M52.8571 8.93965C52.7276 8.77281 52.5599 8.63948 52.3682 8.55084C52.1765 8.4622 51.9663 8.42084 51.7553 8.43022C51.5193 8.43097 51.2859 8.47951 51.0693 8.57292C50.8526 8.66632 50.657 8.80265 50.4945 8.97368C50.3319 9.14471 50.2057 9.34689 50.1234 9.56804C50.0411 9.78919 50.0044 10.0247 50.0156 10.2604C50.0044 10.4961 50.0411 10.7316 50.1234 10.9528C50.2057 11.1739 50.3319 11.3761 50.4945 11.5471C50.657 11.7182 50.8526 11.8545 51.0693 11.9479C51.2859 12.0413 51.5193 12.0898 51.7553 12.0906C51.9663 12.1 52.1765 12.0586 52.3682 11.97C52.5599 11.8813 52.7276 11.748 52.8571 11.5812V12.0038H53.6119V8.51701H52.8571V8.93965ZM51.8496 11.3736C51.7055 11.3755 51.5625 11.3475 51.4297 11.2915C51.2969 11.2355 51.1771 11.1526 51.0779 11.048C50.9787 10.9435 50.9021 10.8195 50.8531 10.684C50.8041 10.5485 50.7836 10.4042 50.793 10.2604C50.7815 10.1152 50.8003 9.96916 50.8483 9.83162C50.8963 9.69408 50.9724 9.56804 51.0718 9.46154C51.1712 9.35504 51.2917 9.27041 51.4256 9.21304C51.5595 9.15567 51.7039 9.12683 51.8496 9.12833C51.9951 9.12678 52.1394 9.15563 52.2731 9.21303C52.4068 9.27044 52.5271 9.35514 52.6262 9.4617C52.7253 9.56827 52.8011 9.69436 52.8486 9.83189C52.8962 9.96943 52.9145 10.1154 52.9024 10.2604C52.9123 10.404 52.8924 10.5482 52.8438 10.6837C52.7952 10.8193 52.719 10.9432 52.6201 11.0479C52.5212 11.1525 52.4016 11.2354 52.269 11.2915C52.1364 11.3476 51.9936 11.3755 51.8496 11.3736Z" fill="#FAFAD5"></path>
          <path d="M41.6489 8.434C41.4114 8.42858 41.1753 8.47296 40.956 8.56429C40.7366 8.65562 40.5388 8.79187 40.3753 8.96427C40.2118 9.13668 40.0861 9.34141 40.0065 9.5653C39.9269 9.78918 39.8951 10.0273 39.9131 10.2642C39.897 10.5048 39.9317 10.7462 40.0151 10.9725C40.0985 11.1988 40.2286 11.405 40.397 11.5777C40.5654 11.7504 40.7683 11.8856 40.9925 11.9746C41.2166 12.0637 41.457 12.1045 41.698 12.0944C42.2188 12.1125 42.7281 11.9378 43.1282 11.6038L42.7508 11.0453C42.4649 11.2797 42.1091 11.4125 41.7395 11.4227C41.4891 11.4439 41.2402 11.3668 41.0457 11.2075C40.8513 11.0483 40.7265 10.8196 40.698 10.5698H43.2829C43.2829 10.4755 43.2829 10.3812 43.2829 10.2793C43.2829 9.18872 42.6263 8.434 41.6489 8.434ZM40.7093 9.94343C40.722 9.70953 40.826 9.48995 40.9989 9.33188C41.1717 9.17382 41.3997 9.0899 41.6338 9.09815C41.7481 9.09463 41.862 9.11374 41.9689 9.15436C42.0758 9.19499 42.1736 9.25635 42.2567 9.3349C42.3398 9.41344 42.4066 9.50764 42.4532 9.61208C42.4997 9.71651 42.5252 9.82912 42.5282 9.94343H40.7093Z" fill="#FAFAD5"></path>
          <path d="M44.8348 8.93966V8.51702H44.0801V12.0038H44.8348V10.0491C44.8348 9.47174 45.0801 9.15098 45.5895 9.15098C45.7513 9.14876 45.9118 9.17958 46.0612 9.24155L46.2952 8.52457C46.1218 8.46312 45.9394 8.43123 45.7556 8.43023C45.5703 8.42373 45.3868 8.4677 45.2246 8.55743C45.0625 8.64716 44.9277 8.77928 44.8348 8.93966Z" fill="#FAFAD5"></path>
          <path d="M48.3507 9.14344C48.6816 9.14614 49.0025 9.25751 49.2639 9.46042L49.6413 8.84533C49.2902 8.55531 48.8433 8.40723 48.3885 8.43023C48.1433 8.41631 47.8978 8.45391 47.6681 8.5406C47.4383 8.62729 47.2292 8.76116 47.0543 8.93358C46.8794 9.106 46.7425 9.31314 46.6525 9.54167C46.5626 9.7702 46.5214 10.015 46.5319 10.2604C46.5214 10.5058 46.5626 10.7506 46.6525 10.9792C46.7425 11.2077 46.8794 11.4148 47.0543 11.5873C47.2292 11.7597 47.4383 11.8936 47.6681 11.9802C47.8978 12.0669 48.1433 12.1045 48.3885 12.0906C48.8433 12.1136 49.2902 11.9655 49.6413 11.6755L49.2639 11.0604C49.0011 11.2603 48.6809 11.3701 48.3507 11.3736C48.2069 11.3756 48.0643 11.3476 47.9318 11.2915C47.7994 11.2354 47.6801 11.1524 47.5814 11.0477C47.4828 10.943 47.407 10.819 47.3588 10.6835C47.3107 10.5479 47.2912 10.4039 47.3017 10.2604C47.2912 10.1168 47.3107 9.97257 47.3588 9.83685C47.4069 9.70112 47.4827 9.57685 47.5813 9.47189C47.6798 9.36692 47.7991 9.28354 47.9316 9.227C48.064 9.17047 48.2067 9.14202 48.3507 9.14344Z" fill="#FAFAD5"></path>
        </svg>