<svg xmlns="http://www.w3.org/2000/svg" width="37" height="20" viewBox="0 0 37 20" fill="none">
          <path d="M7.93472 6.66038C7.55736 6.23019 6.91963 6 6.04793 6H3.47434C3.38944 6.00357 3.30824 6.03569 3.24386 6.09116C3.17948 6.14664 3.1357 6.22221 3.11962 6.30566L2.07436 12.9208C2.07006 12.9516 2.0724 12.983 2.08122 13.0129C2.09004 13.0428 2.10513 13.0704 2.12549 13.094C2.14585 13.1176 2.17101 13.1365 2.19928 13.1496C2.22756 13.1627 2.2583 13.1696 2.28945 13.1698H3.51962C3.604 13.1664 3.68483 13.1349 3.74914 13.0801C3.81345 13.0254 3.85752 12.9507 3.87434 12.8679L4.15736 11.083C4.17343 10.9996 4.21722 10.924 4.2816 10.8685C4.34597 10.813 4.42717 10.7809 4.51208 10.7774H5.32341C7.0253 10.7774 8.00642 9.95472 8.26302 8.32453C8.33465 8.04012 8.34236 7.74337 8.28559 7.45562C8.22883 7.16787 8.109 6.89628 7.93472 6.66038ZM6.35359 8.41887C6.21019 9.3434 5.50453 9.3434 4.82151 9.3434H4.44416L4.71964 7.61509C4.72695 7.56443 4.75241 7.51814 4.79127 7.48482C4.83014 7.45151 4.87978 7.43344 4.93096 7.43396H5.10831C5.57624 7.43396 6.01397 7.43396 6.24039 7.69811C6.31021 7.80294 6.35648 7.92165 6.37602 8.04608C6.39557 8.1705 6.38791 8.29769 6.35359 8.41887Z" fill="#FAFAD5"></path>
          <path d="M13.7685 8.38866H12.5346C12.4831 8.38878 12.4334 8.407 12.3941 8.44012C12.3548 8.47324 12.3283 8.51915 12.3195 8.56979L12.2667 8.91696L12.1798 8.78866C11.9119 8.4113 11.3157 8.27168 10.7195 8.27168C10.0378 8.28629 9.38414 8.54551 8.87773 9.00204C8.37132 9.45857 8.04594 10.082 7.96098 10.7585C7.89763 11.0876 7.90597 11.4265 7.98542 11.7521C8.06486 12.0777 8.21356 12.3823 8.42137 12.6453C8.61701 12.8595 8.85829 13.027 9.1274 13.1355C9.3965 13.2439 9.68656 13.2904 9.97608 13.2717C10.2944 13.2749 10.6101 13.2142 10.9044 13.0929C11.1987 12.9717 11.4656 12.7925 11.6893 12.566L11.6327 12.9094C11.6278 12.9401 11.6296 12.9714 11.6379 13.0013C11.6463 13.0312 11.661 13.0589 11.6811 13.0825C11.7011 13.1062 11.7261 13.1252 11.7542 13.1383C11.7823 13.1515 11.813 13.1583 11.844 13.1585H12.9761C13.0605 13.1551 13.1413 13.1235 13.2056 13.0688C13.2699 13.0141 13.314 12.9393 13.3308 12.8566L13.9987 8.6264C14.0028 8.59486 13.9998 8.56279 13.9898 8.53258C13.9798 8.50238 13.9631 8.47483 13.941 8.45197C13.9189 8.42912 13.8919 8.41156 13.862 8.40059C13.8321 8.38963 13.8002 8.38555 13.7685 8.38866ZM12.0478 10.7924C11.9991 11.1257 11.8303 11.4297 11.5732 11.6472C11.316 11.8647 10.9883 11.9808 10.6515 11.9736C10.4972 11.9833 10.3426 11.9586 10.199 11.9012C10.0554 11.8437 9.92639 11.755 9.82135 11.6415C9.72769 11.5197 9.6619 11.3789 9.62864 11.2289C9.59539 11.0789 9.59547 10.9235 9.6289 10.7736C9.67484 10.4402 9.84091 10.1351 10.0959 9.91553C10.3509 9.69596 10.6773 9.57705 11.0138 9.58112C11.1676 9.5729 11.3212 9.59913 11.4635 9.65789C11.6059 9.71665 11.7333 9.80645 11.8365 9.92074C11.9328 10.042 12.0016 10.1828 12.0381 10.3333C12.0745 10.4838 12.0779 10.6405 12.0478 10.7924Z" fill="#FAFAD5"></path>
          <path d="M20.3497 8.38871H19.1082C19.0499 8.3889 18.9925 8.40346 18.9412 8.4311C18.8898 8.45875 18.8461 8.49862 18.8139 8.5472L17.1007 11.083L16.3724 8.66041C16.3479 8.58785 16.302 8.52444 16.2406 8.47861C16.1793 8.43278 16.1055 8.40668 16.029 8.4038H14.8101C14.7758 8.40299 14.7417 8.41056 14.711 8.42585C14.6802 8.44115 14.6536 8.46371 14.6336 8.49159C14.6135 8.51946 14.6005 8.55181 14.5958 8.58583C14.591 8.61985 14.5946 8.65451 14.6063 8.68682L15.9723 12.7019L14.6856 14.517C14.6626 14.5493 14.649 14.5874 14.6463 14.6269C14.6436 14.6665 14.6519 14.706 14.6703 14.7411C14.6886 14.7762 14.7163 14.8056 14.7503 14.826C14.7843 14.8464 14.8233 14.857 14.8629 14.8566H16.1007C16.1589 14.8556 16.2161 14.8411 16.2679 14.8143C16.3196 14.7874 16.3644 14.749 16.3988 14.7019L20.5271 8.73965C20.5534 8.70742 20.5698 8.66824 20.5743 8.62685C20.5789 8.58547 20.5713 8.54366 20.5525 8.50651C20.5337 8.46936 20.5046 8.43845 20.4686 8.41754C20.4326 8.39663 20.3913 8.38661 20.3497 8.38871Z" fill="#FAFAD5"></path>
          <path d="M26.3423 6.66038C25.9649 6.23019 25.3272 6.00001 24.4555 6.00001H21.8743C21.7894 6.00357 21.7082 6.03569 21.6438 6.09117C21.5795 6.14664 21.5357 6.22222 21.5196 6.30567L20.4781 12.9208C20.4725 12.9515 20.4738 12.9831 20.4819 13.0133C20.49 13.0434 20.5047 13.0714 20.5249 13.0952C20.5451 13.1191 20.5703 13.1381 20.5988 13.151C20.6272 13.1639 20.6582 13.1703 20.6894 13.1698H22.014C22.0733 13.1696 22.1306 13.1482 22.1756 13.1095C22.2206 13.0707 22.2503 13.0172 22.2592 12.9585L22.5574 11.0717C22.5734 10.9883 22.6172 10.9127 22.6816 10.8572C22.7459 10.8017 22.8272 10.7696 22.9121 10.766H23.7272C25.4291 10.766 26.4064 9.9434 26.663 8.31322C26.7347 8.03111 26.7432 7.73663 26.6877 7.45088C26.6323 7.16513 26.5143 6.89518 26.3423 6.66038ZM24.7611 8.41888C24.6177 9.3434 23.9121 9.3434 23.2291 9.3434H22.8517L23.1234 7.6151C23.1307 7.56443 23.1562 7.51814 23.195 7.48483C23.2339 7.45152 23.2835 7.43344 23.3347 7.43397H23.5159C23.98 7.43397 24.4177 7.43397 24.6479 7.69812C24.7178 7.80295 24.764 7.92166 24.7836 8.04608C24.8031 8.17051 24.7955 8.29769 24.7611 8.41888Z" fill="#FAFAD5"></path>
          <path d="M32.1766 8.38867H30.9427C30.8915 8.38814 30.8419 8.40621 30.803 8.43953C30.7641 8.47284 30.7387 8.51913 30.7314 8.5698L30.6747 8.91697L30.588 8.78867C30.32 8.41131 29.7238 8.27169 29.1276 8.27169C28.4462 8.28707 27.7929 8.54656 27.2866 9.00294C26.7804 9.45933 26.4548 10.0823 26.3691 10.7585C26.3057 11.0876 26.3141 11.4265 26.3935 11.7521C26.473 12.0777 26.6217 12.3823 26.8295 12.6453C27.0258 12.8596 27.2678 13.0271 27.5375 13.1355C27.8073 13.244 28.0979 13.2905 28.388 13.2717C28.7056 13.2747 29.0207 13.2137 29.3144 13.0925C29.608 12.9713 29.8743 12.7922 30.0974 12.566L30.0408 12.9094C30.0365 12.9403 30.0388 12.9717 30.0476 13.0016C30.0565 13.0314 30.0716 13.0591 30.0919 13.0827C30.1123 13.1062 30.1374 13.1252 30.1657 13.1383C30.194 13.1514 30.2247 13.1582 30.2559 13.1585H31.3615C31.4465 13.1585 31.5286 13.1281 31.593 13.0727C31.6574 13.0173 31.6998 12.9406 31.7125 12.8566L32.3842 8.6264C32.3868 8.59705 32.3834 8.56747 32.3742 8.53945C32.3651 8.51143 32.3504 8.48554 32.331 8.46334C32.3116 8.44114 32.288 8.42308 32.2615 8.41025C32.2349 8.39742 32.2061 8.39008 32.1766 8.38867ZM30.4559 10.7924C30.4072 11.1257 30.2384 11.4297 29.9813 11.6472C29.7241 11.8647 29.3964 11.9808 29.0597 11.9736C28.9053 11.9833 28.7507 11.9586 28.6071 11.9012C28.4635 11.8437 28.3345 11.755 28.2295 11.6415C28.1367 11.5193 28.0715 11.3784 28.0383 11.2286C28.005 11.0788 28.0046 10.9236 28.037 10.7736C28.0837 10.4405 28.25 10.1359 28.5048 9.91648C28.7597 9.69706 29.0856 9.57786 29.4219 9.58112C29.5757 9.5729 29.7293 9.59913 29.8717 9.65789C30.014 9.71665 30.1414 9.80645 30.2446 9.92074C30.3409 10.042 30.4097 10.1828 30.4462 10.3333C30.4827 10.4838 30.486 10.6405 30.4559 10.7924Z" fill="#FAFAD5"></path>
          <path d="M35.0369 6.00001H33.8445C33.7939 6.0017 33.7454 6.02056 33.707 6.05349C33.6686 6.08641 33.6426 6.13143 33.6332 6.18114L32.5765 12.9208C32.571 12.9515 32.5723 12.9831 32.5804 13.0133C32.5885 13.0434 32.6031 13.0714 32.6233 13.0952C32.6436 13.1191 32.6688 13.1381 32.6972 13.151C32.7257 13.1639 32.7567 13.1703 32.7879 13.1698H33.852C33.9364 13.1664 34.0172 13.1349 34.0815 13.0801C34.1458 13.0254 34.1899 12.9507 34.2067 12.8679L35.252 6.24906C35.2563 6.21821 35.254 6.18679 35.2452 6.15691C35.2363 6.12703 35.2213 6.09939 35.2009 6.07582C35.1805 6.05224 35.1554 6.03328 35.1271 6.02021C35.0988 6.00713 35.0681 6.00025 35.0369 6.00001Z" fill="#FAFAD5"></path>
        </svg>