<svg xmlns="http://www.w3.org/2000/svg" width="16" height="17" viewBox="0 0 16 17" fill="none">
                <g clip-path="url(#clip0_6041_3364)">
                  <path d="M8 0.5C3.58125 0.5 0 4.08125 0 8.5C0 11.8906 2.10938 14.7844 5.08437 15.95C5.01562 15.3156 4.95 14.3469 5.1125 13.6562C5.25938 13.0312 6.05 9.68125 6.05 9.68125C6.05 9.68125 5.80937 9.20313 5.80937 8.49375C5.80937 7.38125 6.45312 6.55 7.25625 6.55C7.9375 6.55 8.26875 7.0625 8.26875 7.67812C8.26875 8.36562 7.83125 9.39062 7.60625 10.3406C7.41875 11.1375 8.00625 11.7875 8.79062 11.7875C10.2125 11.7875 11.3062 10.2875 11.3062 8.125C11.3062 6.20938 9.93125 4.86875 7.96562 4.86875C5.69062 4.86875 4.35313 6.575 4.35313 8.34062C4.35313 9.02812 4.61875 9.76562 4.95 10.1656C5.01562 10.2437 5.025 10.3156 5.00625 10.3938C4.94688 10.6469 4.80938 11.1906 4.78438 11.3C4.75 11.4469 4.66875 11.4781 4.51562 11.4062C3.51562 10.9406 2.89062 9.48125 2.89062 8.30625C2.89062 5.78125 4.725 3.46563 8.175 3.46563C10.95 3.46563 13.1062 5.44375 13.1062 8.0875C13.1062 10.8438 11.3688 13.0625 8.95625 13.0625C8.14688 13.0625 7.38437 12.6406 7.12187 12.1438C7.12187 12.1438 6.72188 13.6719 6.625 14.0469C6.44375 14.7406 5.95625 15.6125 5.63125 16.1438C6.38125 16.375 7.175 16.5 8 16.5C12.4187 16.5 16 12.9187 16 8.5C16 4.08125 12.4187 0.5 8 0.5Z" fill="#FAFAD5"></path>
                </g>
                <defs>
                  <clipPath id="clip0_6041_3364">
                    <rect width="16" height="16" fill="white" transform="translate(0 0.5)"></rect>
                  </clipPath>
                </defs>
              </svg>