<svg xmlns="http://www.w3.org/2000/svg" width="16" height="17" viewBox="0 0 16 17" fill="none">
              <path d="M8.32776 1.01445C9.14626 1.00195 9.95876 1.00845 10.7708 1.00195C10.7978 2.01745 11.2098 2.93145 11.8653 3.60845L11.8643 3.60745C12.5698 4.24295 13.4878 4.65495 14.4998 4.72495L14.5138 4.72595V7.24395C13.5578 7.21995 12.6588 6.99945 11.8483 6.62045L11.8893 6.63745C11.4973 6.44895 11.1658 6.25545 10.8508 6.03945L10.8768 6.05645C10.8708 7.88095 10.8828 9.70545 10.8643 11.5235C10.8128 12.45 10.5048 13.295 10.0108 14.0005L10.0208 13.985C9.19476 15.168 7.85676 15.9445 6.33526 15.9905H6.32826C6.26676 15.9935 6.19426 15.995 6.12126 15.995C5.25626 15.995 4.44776 15.754 3.75876 15.3355L3.77876 15.347C2.52476 14.5925 1.65976 13.3015 1.49976 11.8L1.49776 11.7795C1.48526 11.467 1.47926 11.1545 1.49176 10.8485C1.73676 8.45895 3.73876 6.61045 6.17226 6.61045C6.44576 6.61045 6.71376 6.63395 6.97426 6.67845L6.94626 6.67445C6.95876 7.59895 6.92126 8.52395 6.92126 9.44845C6.70976 9.37195 6.46576 9.32745 6.21126 9.32745C5.27726 9.32745 4.48276 9.92445 4.18876 10.758L4.18426 10.773C4.11776 10.9865 4.07926 11.232 4.07926 11.486C4.07926 11.589 4.08576 11.691 4.09776 11.791L4.09676 11.779C4.26276 12.802 5.13976 13.574 6.19726 13.574C6.22776 13.574 6.25776 13.5735 6.28776 13.572H6.28326C7.01476 13.55 7.64976 13.1565 8.00876 12.575L8.01376 12.566C8.14726 12.38 8.23876 12.155 8.26926 11.9105L8.26976 11.9035C8.33226 10.785 8.30726 9.67295 8.31326 8.55445C8.31926 6.03645 8.30726 3.52445 8.32576 1.01295L8.32776 1.01445Z" fill="#F0EBE1"></path>
            </svg>