<svg xmlns="http://www.w3.org/2000/svg" width="28" height="20" viewBox="0 0 28 20" fill="none">
          <path d="M26.3132 15.453H2V17.6416H26.3132V15.453Z" fill="#FAFAD5"></path>
          <path d="M26.3133 2.44922H2.0001V4.6379H26.3133V2.44922Z" fill="#FAFAD5"></path>
          <path d="M15.5395 11.9209C14.9853 11.9118 14.4386 11.7911 13.932 11.5662L13.6641 12.8605C14.2176 13.0831 14.811 13.1897 15.4075 13.1737C17.1056 13.1284 18.132 12.3247 18.132 11.0718C18.132 9.50956 15.9433 9.41899 15.9433 8.70578C15.9433 8.47937 16.166 8.25673 16.615 8.21145C17.1332 8.16019 17.6555 8.2529 18.1244 8.47937L18.3924 7.23032C17.9359 7.05473 17.4512 6.96393 16.9622 6.96239C15.4527 6.96239 14.3697 7.76617 14.3207 8.92843C14.3207 9.77749 15.0754 10.268 15.6603 10.5813C16.2452 10.8945 16.4641 11.0718 16.4641 11.336C16.4792 11.7435 15.9773 11.9209 15.5395 11.9209Z" fill="#FAFAD5"></path>
          <path d="M11.0724 13.0379H12.6346L13.9327 7.04921H12.3667L11.0724 13.0379Z" fill="#FAFAD5"></path>
          <path d="M19.6531 13.0379L19.9663 12.1473H21.9776L22.2003 13.0379H23.6305L22.3927 7.04921H21.0531C20.9101 7.05271 20.771 7.09678 20.6521 7.17628C20.5332 7.25579 20.4393 7.36745 20.3814 7.49827L18.0606 13.0379H19.6531ZM21.2606 8.70581L21.7097 10.9398H20.4569L21.2606 8.70581Z" fill="#FAFAD5"></path>
          <path d="M8.52481 11.1624L7.85311 7.67564C7.83181 7.5019 7.74737 7.34206 7.61585 7.22655C7.48434 7.11104 7.31495 7.04793 7.13992 7.04923H4.49841L4.45312 7.23036C4.98067 7.30616 5.49125 7.47209 5.96256 7.72092C6.1852 7.85677 6.23048 7.94357 6.33992 8.25678L7.58897 13.0379H9.24181L11.7474 7.04923L10.1361 7.09451L8.52481 11.1624Z" fill="#FAFAD5"></path>
        </svg>