<svg width="40" height="40" viewBox="0 0 40 40" fill="none" xmlns="http://www.w3.org/2000/svg">
<path d="M4.96027 9.02844C5.03165 9.642 5.07822 10.3765 5.07826 11.327C5.07826 11.8825 5.52946 12.3329 6.08605 12.3329C6.64264 12.3329 7.09383 11.8825 7.09383 11.327C7.09397 10.1626 7.02739 9.25995 6.9244 8.49835C7.44742 8.83463 8.05415 9.24804 8.80892 9.7979C9.25847 10.1254 9.88894 10.0272 10.2171 9.57852C10.5453 9.12981 10.4469 8.50055 9.9973 8.17301C9.03823 7.4742 8.28801 6.97235 7.64498 6.57197C7.47724 6.46751 7.31907 6.37199 7.16462 6.2799C7.83694 5.90102 8.62432 5.42359 9.6458 4.74559C10.1093 4.43799 10.2352 3.81363 9.927 3.35103C9.61881 2.88843 8.99327 2.76277 8.52979 3.07037C7.57386 3.70474 6.84785 4.14637 6.23403 4.49437C6.20647 4.50999 6.18107 4.5238 6.15394 4.53906C6.14376 4.46265 6.13395 4.38466 6.12458 4.30442C6.0532 3.69086 6.00664 2.95632 6.00659 2.00588C6.00659 1.45035 5.5554 1 4.99881 1C4.44222 1 3.99102 1.45035 3.99102 2.00588C3.9909 3.00848 4.04045 3.81624 4.11983 4.50806C3.57114 4.15894 2.93083 3.72543 2.11991 3.13466C1.67036 2.80712 1.0399 2.90534 0.711726 3.35405C0.383568 3.80275 0.481985 4.43202 0.931533 4.75956C1.76166 5.36441 2.43491 5.82134 3.01802 6.19299C2.32683 6.57947 1.5157 7.06871 0.449892 7.77611C-0.0135881 8.08371 -0.139484 8.70808 0.168682 9.17068C0.476864 9.63328 1.10242 9.75895 1.5659 9.45135C2.52185 8.81697 3.24786 8.37534 3.86167 8.02734C4.16787 7.85378 4.44546 7.70429 4.71309 7.56396C4.80929 8.00868 4.89498 8.46873 4.96027 9.02844Z" fill="#34312E"/>
<path d="M39.5863 27.7033C38.6272 27.0044 37.877 26.5026 37.234 26.1022C37.0663 25.9978 36.9081 25.9022 36.7536 25.8101C37.426 25.4313 38.2133 24.9538 39.2348 24.2758C39.6983 23.9682 39.8242 23.3439 39.516 22.8813C39.2079 22.4187 38.5823 22.293 38.1188 22.6006C37.1629 23.235 36.4369 23.6766 35.8231 24.0246C35.7955 24.0402 35.7701 24.0541 35.743 24.0693C35.7328 23.9929 35.723 23.9149 35.7136 23.8347C35.6422 23.2211 35.5957 22.4866 35.5956 21.5361C35.5956 20.9806 35.1444 20.5302 34.5878 20.5302C34.0312 20.5302 33.58 20.9806 33.58 21.5361C33.5799 22.5387 33.6295 23.3465 33.7089 24.0383C33.1602 23.6892 32.5199 23.2557 31.7089 22.6649C31.2594 22.3374 30.6289 22.4356 30.3008 22.8843C29.9726 23.333 30.071 23.9623 30.5205 24.2898C31.3507 24.8947 32.0239 25.3516 32.607 25.7232C31.9159 26.1097 31.1047 26.599 30.0389 27.3064C29.5754 27.614 29.4495 28.2383 29.7577 28.7009C30.0659 29.1635 30.6915 29.2892 31.1549 28.9816C32.1109 28.3472 32.8369 27.9056 33.4507 27.5576C33.7569 27.384 34.0345 27.2345 34.3021 27.0942C34.3983 27.5389 34.484 27.999 34.5493 28.5587C34.6207 29.1722 34.6672 29.9068 34.6673 30.8572C34.6673 31.4128 35.1185 31.8631 35.6751 31.8631C36.2317 31.8631 36.6828 31.4128 36.6828 30.8572C36.683 29.6928 36.6164 28.7902 36.5134 28.0286C37.0364 28.3649 37.6432 28.7783 38.398 29.3281C38.8475 29.6557 39.478 29.5575 39.8061 29.1088C40.1343 28.6601 40.0359 28.0308 39.5863 27.7033Z" fill="#34312E"/>
<path d="M29.9477 6.95388C29.9252 6.66364 29.7781 6.39782 29.544 6.2242C29.3099 6.05057 29.0125 5.98674 28.7276 6.04895C24.5992 6.95038 21.3354 8.24851 18.7622 9.78331C16.8326 10.934 15.2929 12.2181 14.0756 13.5581C12.2487 15.5679 11.1525 17.7 10.5212 19.67C9.88918 21.6411 9.71686 23.4496 9.71669 24.8461C9.71708 26.5451 9.97139 27.6376 9.98457 27.6947C10.053 27.9844 10.241 28.2139 10.4836 28.346C10.1842 28.7865 9.89029 29.2304 9.60154 29.6767C8.32022 31.6958 7.13312 33.7911 6.1071 35.951C5.60393 37.0425 5.11372 38.1372 4.69381 39.2656C5.49221 38.3638 6.22655 37.4204 6.9524 36.4665C8.5657 34.3575 10.1413 32.1918 11.7058 30.0313C11.8647 30.4327 12.2722 30.701 12.7255 30.6638C14.7046 30.5013 16.4738 30.1073 18.0484 29.5266C20.8051 28.5117 22.9573 26.9209 24.5993 25.0584C25.8322 23.6615 26.7823 22.1147 27.5152 20.5376C28.6144 18.1712 29.2286 15.7357 29.5731 13.5934C29.917 11.4509 29.9899 9.59997 29.9901 8.40025C29.99 7.50773 29.9494 6.97579 29.9477 6.95388ZM27.5674 13.3708C27.3158 14.9062 26.9155 16.587 26.2914 18.2473C25.8234 19.4927 25.23 20.7264 24.482 21.8825C23.3588 23.6176 21.8941 25.1766 19.9618 26.3722C18.0603 27.5468 15.697 28.377 12.7098 28.6445C12.892 28.3929 13.0741 28.1413 13.2562 27.8904C15.5417 24.8367 17.7595 21.7335 20.3729 18.953C20.5437 18.7777 20.8144 18.4876 20.9914 18.3249C21.4111 17.922 21.8604 17.4957 22.3488 17.1795C21.6744 17.3203 21.0581 17.66 20.4573 17.985C19.4735 18.5665 18.5533 19.2565 17.6866 19.9956C15.4783 21.9094 13.5547 24.112 11.8233 26.4544C11.7755 26.0481 11.7321 25.5003 11.7323 24.8461C11.7321 23.7517 11.8533 22.3645 12.2703 20.8552C12.5831 19.7228 13.0614 18.5214 13.7812 17.3144C14.862 15.5044 16.4827 13.6769 18.9439 12.0458C21.1806 10.5646 24.1202 9.24882 27.9742 8.29221C27.9743 8.32778 27.9745 8.36329 27.9745 8.40025C27.9746 9.53545 27.9032 11.3235 27.5674 13.3708Z" fill="#34312E"/>
</svg>
