<svg xmlns="http://www.w3.org/2000/svg" width="174" height="56" viewBox="0 0 174 56" fill="none">
          <path d="M49.2048 23.8493L49.0119 23.633C48.599 23.1912 48.0906 22.8447 47.5236 22.6187C46.9566 22.3926 46.3453 22.2927 45.7338 22.3261C42.7718 22.3261 40.4518 24.8346 40.4518 28.0341C40.4518 31.2336 42.7718 33.7421 45.7338 33.7421C46.3453 33.7755 46.9568 33.6755 47.5238 33.4493C48.0908 33.223 48.5991 32.8765 49.0119 32.4346L49.2048 32.2175V33.4335H52.369V17.9618L49.2048 19.0606V23.8493ZM46.4105 30.834C45.8414 30.8473 45.2813 30.6946 44.8017 30.3955C44.3219 30.0963 43.9443 29.6642 43.7171 29.1544C43.49 28.6446 43.4234 28.0802 43.5261 27.5334C43.6288 26.9865 43.8959 26.4818 44.2936 26.084C44.6912 25.6861 45.2011 25.4131 45.7582 25.2997C46.3155 25.1864 46.8946 25.2378 47.4216 25.4475C47.9488 25.6572 48.3999 26.0157 48.7176 26.4771C49.0351 26.9385 49.2048 27.4819 49.2048 28.0379C49.2309 28.4058 49.1769 28.7751 49.0466 29.1212C48.9161 29.4674 48.7124 29.7828 48.4484 30.0466C48.1846 30.3104 47.8666 30.5167 47.5154 30.6521C47.1642 30.7874 46.7876 30.8487 46.4105 30.8318V30.834Z" fill="#FAFAD5"></path>
          <path d="M55.6855 17.6991C55.3054 17.6991 54.9338 17.8092 54.6178 18.0155C54.3018 18.2218 54.0553 18.5151 53.9099 18.8582C53.7645 19.2013 53.7264 19.5788 53.8005 19.943C53.8747 20.3072 54.0578 20.6418 54.3265 20.9044C54.5953 21.167 54.9377 21.3458 55.3105 21.4182C55.6834 21.4907 56.0698 21.4535 56.421 21.3114C56.7722 21.1693 57.0724 20.9286 57.2835 20.6199C57.4947 20.3111 57.6075 19.948 57.6075 19.5767C57.601 19.0807 57.3965 18.6067 57.0374 18.2559C56.6783 17.9051 56.1933 17.7053 55.6855 17.6991Z" fill="#FAFAD5"></path>
          <path d="M57.2708 22.6339H54.106V33.4386H57.2708V22.6339Z" fill="#FAFAD5"></path>
          <path d="M75.8719 22.6339H72.7069V33.4386H75.8719V22.6339Z" fill="#FAFAD5"></path>
          <path d="M80.8914 29.6009V25.5933H82.7602L83.9426 22.6342H80.8922V19.5992L77.728 20.8204V29.6009C77.728 32.3115 79.184 33.5748 82.3089 33.5748C82.9107 33.5712 83.5117 33.5323 84.1086 33.4583L82.6373 30.6555C81.511 30.6555 80.8914 30.6359 80.8914 29.6009Z" fill="#FAFAD5"></path>
          <path d="M92.7857 23.8492L92.5935 23.6329C92.1806 23.1911 91.6721 22.8446 91.1052 22.6186C90.5382 22.3926 89.9269 22.2926 89.3155 22.3261C86.3535 22.3261 84.0341 24.8346 84.0341 28.0341C84.0341 31.2335 86.3542 33.742 89.3155 33.742C89.9269 33.7754 90.5384 33.6754 91.1054 33.4492C91.6724 33.223 92.1807 32.8764 92.5935 32.4345L92.7857 32.2175V33.4333H95.9499V22.634H92.7857V23.8492ZM89.992 30.834C89.423 30.8474 88.8629 30.6949 88.383 30.3958C87.9032 30.0967 87.5256 29.6647 87.2982 29.1549C87.0708 28.6451 87.0043 28.0808 87.1069 27.5338C87.2094 26.9868 87.4765 26.4821 87.8741 26.0843C88.2717 25.6863 88.7816 25.4132 89.3388 25.2998C89.8961 25.1863 90.4753 25.2377 91.0024 25.4474C91.5295 25.6571 91.9806 26.0155 92.2983 26.4769C92.616 26.9383 92.7857 27.4818 92.7857 28.0378C92.8117 28.4058 92.7579 28.7749 92.6277 29.1211C92.4973 29.4674 92.2936 29.7827 92.0298 30.0465C91.766 30.3103 91.4481 30.5167 91.0969 30.6521C90.7457 30.7873 90.3692 30.8486 89.992 30.8317V30.834Z" fill="#FAFAD5"></path>
          <path d="M97.6586 33.4389H100.824V17.6097L97.6586 18.7092V33.4389Z" fill="#FAFAD5"></path>
          <path d="M106.84 19.5053L103.651 20.6101L103.635 22.6379H102.566V25.597H103.636V29.6047C103.525 30.66 103.834 31.7164 104.497 32.5564C105.133 33.218 106.152 33.5259 107.704 33.5259C108.131 33.5259 108.609 33.5011 109.125 33.4508V30.6644C108.871 30.6779 108.663 30.6847 108.479 30.6847C108.061 30.7156 107.642 30.643 107.261 30.4736C107.107 30.3868 106.982 30.2586 106.9 30.1043C106.818 29.9501 106.784 29.7761 106.8 29.6031V25.5956H109.124V22.6349H106.799L106.84 19.5053Z" fill="#FAFAD5"></path>
          <path d="M123.165 22.3254C122.388 22.2962 121.612 22.4235 120.887 22.6994C120.162 22.9753 119.503 23.3939 118.951 23.9292C118.398 24.4645 117.964 25.1051 117.676 25.8111C117.388 26.5171 117.251 27.2735 117.274 28.0333C117.274 31.3958 119.799 33.7413 123.413 33.7413C124.323 33.7907 125.232 33.6226 126.061 33.2515C126.89 32.8805 127.614 32.3179 128.17 31.6121L125.645 30.1933C125.053 30.7324 124.268 31.0231 123.459 31.003C121.998 31.003 121.049 30.4607 120.649 29.3897L120.595 29.2463H128.667C128.745 28.8458 128.784 28.4388 128.783 28.031C128.813 27.2921 128.691 26.5547 128.422 25.8632C128.154 25.1717 127.745 24.5404 127.22 24.0073C126.695 23.4743 126.065 23.0505 125.369 22.7614C124.672 22.4724 123.922 22.324 123.165 22.3254ZM120.54 26.9969L120.578 26.8617C120.746 26.3343 121.082 25.8732 121.538 25.5457C121.993 25.2183 122.543 25.0417 123.109 25.0417C123.674 25.0417 124.225 25.2183 124.68 25.5457C125.135 25.8732 125.471 26.3343 125.639 26.8617L125.678 26.9969H120.54Z" fill="#FAFAD5"></path>
          <path d="M137.009 22.3255C136.419 22.2871 135.827 22.3848 135.282 22.6106C134.737 22.8364 134.254 23.184 133.872 23.6255L133.673 23.8914V22.6792L130.509 23.7788V33.4395H133.673V27.5303C133.673 26.0191 134.478 25.1532 135.881 25.1532C136.166 25.1362 136.45 25.1798 136.717 25.2811C136.983 25.3825 137.223 25.5391 137.419 25.7402C137.618 25.9412 137.767 26.1818 137.86 26.4452C137.953 26.7087 137.986 26.9888 137.957 27.2659V33.4395H141.121V26.7807C141.118 23.7029 139.054 22.3255 137.009 22.3255Z" fill="#FAFAD5"></path>
          <path d="M151.674 23.8478L151.483 23.6308C151.07 23.1889 150.562 22.8424 149.994 22.6164C149.428 22.3904 148.817 22.2905 148.204 22.3239C145.242 22.3239 142.923 24.8324 142.923 28.0319C142.923 31.2314 145.244 33.7399 148.204 33.7399C148.817 33.7733 149.428 33.6733 149.994 33.4471C150.562 33.221 151.07 32.8743 151.483 32.4324L151.674 32.2161V33.4319H154.838V18.2607L151.674 19.3603V23.8478ZM148.88 30.8326C148.311 30.8459 147.751 30.6932 147.272 30.3941C146.792 30.0949 146.415 29.6628 146.187 29.153C145.96 28.6431 145.894 28.0788 145.996 27.5319C146.098 26.985 146.366 26.4804 146.764 26.0825C147.162 25.6847 147.671 25.4117 148.228 25.2983C148.785 25.185 149.364 25.2363 149.891 25.4461C150.418 25.6558 150.87 26.0143 151.188 26.4756C151.505 26.937 151.674 27.4804 151.674 28.0365C151.701 28.4045 151.648 28.7739 151.517 29.1203C151.387 29.4667 151.183 29.7823 150.92 30.0464C150.656 30.3104 150.338 30.517 149.986 30.6525C149.635 30.788 149.257 30.8493 148.88 30.8326Z" fill="#FAFAD5"></path>
          <path d="M118.329 22.4172C118.031 22.3561 117.728 22.3254 117.425 22.3256H117.366C116.79 22.2879 116.213 22.3797 115.679 22.5939C115.145 22.8081 114.668 23.1389 114.285 23.561L114.089 23.8059V22.6665L114.031 22.6786V22.638L110.866 22.7581V33.4389H114.087V27.5297C114.087 26.0538 114.855 25.1923 116.201 25.1541C116.662 24.0805 117.394 23.1387 118.329 22.4172Z" fill="#FAFAD5"></path>
          <path d="M67.7595 23.8492L67.5673 23.6329C67.1544 23.1911 66.646 22.8446 66.0791 22.6186C65.5121 22.3926 64.9008 22.2926 64.2893 22.3261C61.3273 22.3261 59.008 24.8346 59.008 28.0341C59.008 31.2335 61.3281 33.742 64.2893 33.742C64.8859 33.7728 65.4823 33.6774 66.0376 33.4623C66.593 33.2473 67.0943 32.9177 67.5074 32.496L67.698 32.291V34.3242C67.6935 34.6755 67.6174 35.0224 67.4742 35.3448C67.331 35.6671 67.1236 35.9584 66.8639 36.2015C66.6043 36.4447 66.2978 36.6351 65.9621 36.7613C65.6265 36.8876 65.2685 36.9473 64.9089 36.937C64.3234 36.9745 63.7402 36.8338 63.2399 36.5343C62.7395 36.2348 62.3464 35.7912 62.1145 35.2645L62.033 35.0301L59.1755 36.0275L59.2463 36.2611C59.6906 37.3639 60.4735 38.3052 61.4875 38.9558C62.5013 39.6065 63.6965 39.9344 64.9089 39.8947C68.3383 39.8947 70.9253 37.4995 70.9253 34.3234V22.634H67.7595V23.8492ZM64.965 30.834C64.3961 30.8472 63.836 30.6946 63.3563 30.3954C62.8765 30.0963 62.499 29.6642 62.2718 29.1544C62.0446 28.6445 61.9781 28.0801 62.0808 27.5333C62.1835 26.9864 62.4506 26.4817 62.8482 26.0839C63.2459 25.6861 63.7558 25.4131 64.3129 25.2996C64.8702 25.1863 65.4492 25.2377 65.9763 25.4474C66.5035 25.6571 66.9546 26.0156 67.2723 26.477C67.5898 26.9384 67.7595 27.4818 67.7595 28.0378C67.7856 28.4058 67.7317 28.7749 67.6015 29.1211C67.4712 29.4674 67.2675 29.7827 67.0037 30.0465C66.7398 30.3103 66.4219 30.5167 66.0707 30.6521C65.7195 30.7873 65.343 30.8486 64.9658 30.8317L64.965 30.834Z" fill="#FAFAD5"></path>
          <path d="M74.341 17.6991C73.9609 17.6991 73.5893 17.8092 73.2732 18.0155C72.9572 18.2218 72.7109 18.5151 72.5653 18.8582C72.4199 19.2013 72.3819 19.5788 72.456 19.943C72.5302 20.3072 72.7132 20.6418 72.9821 20.9044C73.2508 21.167 73.5933 21.3458 73.9661 21.4182C74.3389 21.4907 74.7253 21.4535 75.0765 21.3114C75.4277 21.1693 75.7278 20.9286 75.939 20.6199C76.1501 20.3111 76.2629 19.948 76.2629 19.5767C76.2567 19.0806 76.0522 18.6065 75.6931 18.2557C75.334 17.9049 74.8488 17.7051 74.341 17.6991Z" fill="#FAFAD5"></path>
          <path d="M161.552 26.7115C160.603 26.4682 159.854 26.2752 159.854 25.7442C159.854 25.2935 160.249 25.0201 160.911 25.0201C161.152 25.0132 161.393 25.0595 161.614 25.1555C161.835 25.2516 162.031 25.395 162.189 25.5752L165.1 24.565L165.156 24.5357C164.705 23.839 164.077 23.2689 163.333 22.8815C162.589 22.4941 161.754 22.3026 160.911 22.3261C158.764 22.3261 156.599 23.4106 156.599 25.8328C156.599 28.1895 158.81 28.7911 160.424 29.2313C161.387 29.4934 162.148 29.7007 162.148 30.2189C162.148 30.5794 161.918 31.009 160.821 31.009C160.492 31.0294 160.164 30.9691 159.865 30.8334C159.567 30.6979 159.308 30.4916 159.112 30.2332L156.126 31.2666L156.111 31.2749C156.95 32.8927 158.576 33.7473 160.817 33.7473C163.032 33.7473 165.398 32.8258 165.398 30.2408C165.402 27.7006 163.177 27.1291 161.552 26.7115Z" fill="#FAFAD5"></path>
          <path fill-rule="evenodd" clip-rule="evenodd" d="M8.59218 12.6H36.0129C36.1191 12.6 36.2052 12.6841 36.2052 12.7878V39.577C36.2052 39.6807 36.1191 39.7649 36.0129 39.7649H8.59218C8.48604 39.7649 8.39999 39.6807 8.39999 39.577V12.7878C8.39999 12.6841 8.48604 12.6 8.59218 12.6ZM24.1206 24.4022H31.2908C31.3411 24.4032 31.389 24.4234 31.4243 24.4585C31.4595 24.4936 31.4791 24.5408 31.4791 24.5899V27.7744C31.4791 27.8242 31.4589 27.872 31.4229 27.9073C31.3868 27.9424 31.3379 27.9621 31.287 27.9621H24.1206V34.9634C24.1206 35.0133 24.1004 35.061 24.0643 35.0962C24.0282 35.1315 23.9793 35.1512 23.9284 35.1512H20.6689C20.6179 35.1512 20.569 35.1315 20.533 35.0962C20.497 35.061 20.4767 35.0133 20.4767 34.9634V27.9621H13.3103C13.2594 27.9621 13.2105 27.9424 13.1745 27.9073C13.1384 27.872 13.1182 27.8242 13.1182 27.7744V24.5899C13.1182 24.5401 13.1384 24.4924 13.1745 24.4572C13.2105 24.422 13.2594 24.4022 13.3103 24.4022H20.4767V17.4009C20.4767 17.3511 20.497 17.3033 20.533 17.2681C20.569 17.2329 20.6179 17.2131 20.6689 17.2131H23.9284C23.9793 17.2131 24.0282 17.2329 24.0643 17.2681C24.1004 17.3033 24.1206 17.3511 24.1206 17.4009V24.4022ZM13.7963 29.009H16.1279C16.4994 29.009 16.8006 29.3033 16.8006 29.6661V31.027C16.8006 31.39 16.4994 31.6842 16.1279 31.6842H13.7963C13.4248 31.6842 13.1236 31.39 13.1236 31.027V29.6661C13.1236 29.3033 13.4248 29.009 13.7963 29.009ZM18.877 32.4757H13.7963C13.4248 32.4757 13.1236 32.77 13.1236 33.1329V34.4938C13.1236 34.8568 13.4248 35.151 13.7963 35.151H18.877C19.2485 35.151 19.5497 34.8568 19.5497 34.4938V33.1329C19.5497 32.77 19.2485 32.4757 18.877 32.4757Z" fill="#FAFAD5"></path>
          <path d="M162.412 19.0763C162.419 18.7617 162.52 18.456 162.703 18.1975C162.888 17.939 163.145 17.7391 163.444 17.6231C163.744 17.507 164.071 17.4798 164.386 17.545C164.701 17.6101 164.99 17.7647 165.216 17.9893C165.441 18.2139 165.593 18.4986 165.654 18.8076C165.714 19.1166 165.681 19.4361 165.555 19.7262C165.43 20.0163 165.221 20.2639 164.953 20.4381C164.685 20.6123 164.37 20.7052 164.048 20.7053C163.83 20.7067 163.614 20.6653 163.413 20.5835C163.211 20.5017 163.03 20.3812 162.877 20.2293C162.725 20.0773 162.604 19.8969 162.526 19.6988C162.446 19.5008 162.407 19.2891 162.412 19.0763ZM165.415 19.0763C165.409 18.8134 165.322 18.5585 165.167 18.3433C165.012 18.1282 164.797 17.9623 164.546 17.8665C164.296 17.7708 164.022 17.7493 163.759 17.8049C163.496 17.8604 163.255 17.9906 163.068 18.1789C162.88 18.3673 162.753 18.6056 162.703 18.8639C162.653 19.1223 162.682 19.3893 162.787 19.6315C162.891 19.8737 163.067 20.0804 163.291 20.2257C163.516 20.371 163.779 20.4485 164.048 20.4484C164.231 20.4508 164.414 20.4167 164.583 20.3481C164.753 20.2796 164.907 20.1781 165.035 20.0497C165.164 19.9214 165.264 19.7689 165.33 19.6016C165.396 19.4342 165.427 19.2555 165.419 19.0763H165.415ZM163.463 18.163H164.089C164.17 18.1554 164.252 18.1649 164.328 18.1908C164.404 18.2168 164.474 18.2585 164.532 18.3132C164.591 18.3679 164.637 18.4342 164.666 18.5077C164.696 18.5812 164.709 18.6601 164.705 18.739C164.71 18.8641 164.671 18.9872 164.592 19.0862C164.513 19.1852 164.402 19.2536 164.276 19.279L164.793 19.955H164.535L164.042 19.2888H163.683V19.955H163.462L163.463 18.163ZM164.078 19.0898C164.346 19.0898 164.488 18.9771 164.488 18.7436C164.493 18.6905 164.485 18.6369 164.468 18.5869C164.449 18.5369 164.418 18.4918 164.379 18.4549C164.339 18.4181 164.291 18.3905 164.239 18.3743C164.187 18.358 164.132 18.3536 164.078 18.3613H163.683V19.0905L164.078 19.0898Z" fill="#FAFAD5"></path>
        </svg>