<svg xmlns="http://www.w3.org/2000/svg" width="155" height="56" viewBox="0 0 155 56" fill="none">
          <path d="M130.575 19.3667C130.575 18.0133 131 17.5467 131.71 17.5467C132.419 17.5467 132.987 17.8267 133.649 19.3667L137.671 28.3733V34.0667C137.671 35.42 137.103 35.7933 135.542 35.98V36.3533H142.97V35.98C141.361 35.7933 140.841 35.3733 140.841 34.0667V28.3733L144.72 19.6933C145.478 18.0133 146.235 17.64 147.37 17.4533V17.08H141.929V17.4533C143.774 17.64 144.436 18.1533 143.916 19.3667L140.51 27.0666L137.008 19.18C136.536 18.1067 136.819 17.78 138.854 17.5V17.1267H127.168V17.5C129.013 17.78 129.581 18.1067 129.581 19.4133V29.96L121.018 17.1267H116.807V17.5C118.179 17.6867 118.604 18.1067 118.604 19.4133V34.1133C118.604 35.4667 118.226 35.9333 117.752 35.9333C117.327 35.9333 117.09 35.7467 116.475 34.1133L110.135 17.0333H109.757L103.654 33.3666C102.991 35.1867 101.95 35.7933 100.91 36.0267V36.4H106.493V36.0267C104.553 35.84 103.938 35.0933 104.364 33.88L105.736 30.1467H111.507L112.833 33.6466C113.4 35.2333 113.069 35.7 111.413 35.98V36.3533H122.011V35.98C120.166 35.7 119.598 35.3733 119.598 34.0667V20.9067L129.959 36.4H130.575V19.3667ZM55.8688 26.6934C55.8688 20.72 58.7548 17.5933 62.1139 17.5933C64.101 17.5933 65.3785 18.0133 66.1355 18.8067C66.7032 19.3667 67.129 20.16 67.6021 21.42H67.9807V17.4067C66.0408 17.0333 64.2903 16.8 62.5398 16.8C57.4774 16.8 52.2258 20.02 52.2258 26.6934C52.2258 33.3666 57.4774 36.5866 62.2086 36.5866C64.2904 36.5866 66.1355 36.26 67.886 35.7467L68.4538 31.9666L68.1226 31.8733C67.6968 32.6666 67.1763 33.3666 66.6086 33.9733C65.3785 35.1867 63.7226 35.84 62.0666 35.84C58.8494 35.7933 55.8688 32.76 55.8688 26.6934ZM97.8344 27.2533C97.4086 27.2533 96.8408 27.2067 96.2731 27.1133V17.78H97.8344C100.437 17.78 101.572 19.1333 101.572 22.4933C101.572 25.9 100.39 27.2533 97.8344 27.2533ZM37.0387 21.7H37.4172C37.9849 18.76 39.1678 17.8267 41.1549 17.8267H42.1011V34.0667C42.1011 35.42 41.5333 35.7933 39.972 35.98V36.3533H47.4V35.98C45.7914 35.7933 45.2709 35.3733 45.2709 34.0667V17.78H46.2172C48.2043 17.78 49.3871 18.7133 49.9548 21.6533H50.3333V17.0333H37.0387V21.7ZM31.1247 36.5866C34.3419 36.5866 37.7483 34.7667 37.7483 31.0333C37.7483 28.84 36.5656 27.02 34.4839 25.9L30.7935 23.8933C28.8537 22.82 28.2861 21.84 28.2861 20.44C28.2861 18.8533 29.4688 17.5933 31.6925 17.5933C32.7806 17.5933 33.5849 17.8733 34.2473 18.48C34.815 19.04 35.3828 19.9733 35.9032 21.6533H36.2344V17.4067C34.9097 17.0333 33.5376 16.8 31.929 16.8C28.7592 16.8 26.3935 18.76 26.3935 22.0733C26.3935 24.1733 27.5763 26.0866 29.5162 27.2067L32.9226 29.0733C34.8624 30.1467 35.4774 31.1733 35.4774 32.7133C35.4774 34.5334 33.5849 35.84 31.5033 35.84C30.1312 35.84 28.9957 35.3733 28.1914 34.58C27.671 34.0667 27.1032 33.2733 26.7247 32.2467H28.9484V31.8733C28.3333 31.7333 27.9548 31.64 27.4344 30.4266L23.0817 20.2067H22.7032L18.4451 30.1933C17.8774 31.5467 17.4989 31.78 16.8366 31.8733V32.2467H20.6215V31.8733C19.2495 31.7333 18.8709 31.08 19.2021 30.24L19.8645 28.6534H23.6968L24.5484 30.6134C24.9269 31.5 24.3591 31.7333 22.9871 31.8267V32.2H26.0151V35.8866C27.5291 36.3066 29.4688 36.5866 31.1247 36.5866ZM79.1935 36.4L84.8237 20.9533L85.2494 34.1133C85.2968 35.42 84.7763 35.7933 83.1678 35.98V36.3533H98.6862V35.98C96.8408 35.7 96.2731 35.3733 96.2731 34.0667V27.86C96.8881 27.9533 97.5032 28 97.9763 28C101.714 28 104.931 26.6467 104.931 22.54C104.931 18.4333 101.714 17.08 97.9763 17.08H91.3054V17.4533C92.6774 17.64 93.1033 18.06 93.1033 19.3667V34.0667C93.1033 35.42 92.5355 35.98 90.9742 35.98H90.9268C89.271 35.98 88.5613 35.3733 88.514 34.1133L87.9462 19.4133C87.8989 18.06 88.3721 17.64 89.8387 17.4533V17.08H85.2494L80.2344 30.94L75.2194 17.08H70.2989V17.4533C71.7655 17.64 72.2387 18.1067 72.1914 19.4133L71.671 33.5067C71.6236 34.9066 70.8666 35.7467 69.4946 35.98V36.3533H74.699V35.98C73.3742 35.7933 72.6172 34.9533 72.6645 33.5067L73.0903 20.6733L78.815 36.3533L79.1935 36.4ZM64.101 32.34C66.6086 32.34 69.8258 30.1467 69.8258 26.6934C69.8258 23.2867 66.6559 21.0467 64.101 21.0467C61.5935 21.0467 58.3763 23.24 58.3763 26.6934C58.3763 30.1 61.5463 32.34 64.101 32.34ZM64.101 21.84C65.7097 21.84 66.7978 23.1467 66.7978 26.6934C66.7978 30.2867 65.6623 31.5467 64.101 31.5467C62.4925 31.5467 61.4043 30.24 61.4043 26.6934C61.4043 23.1 62.4925 21.84 64.101 21.84ZM111.271 29.3533H106.019L108.622 22.26L111.271 29.3533ZM23.4602 27.9067H20.243L21.8516 24.0333L23.4602 27.9067ZM17.3097 28.8867H17.6881V23.1H17.3097C16.6946 25.1533 16.0796 25.62 14.9441 25.62H12.7677V17.78H16.2215C18.2086 17.78 19.3914 18.7133 19.9591 21.6533H20.3377V17.0333H7.79999V17.4067C9.17203 17.5933 9.59784 18.0133 9.59784 19.32V34.02C9.59784 35.3733 9.17203 35.7467 7.79999 35.9333V36.3066H15.1806V35.9333C13.3355 35.6533 12.7677 35.3266 12.7677 34.02V26.32H14.9441C16.0323 26.3667 16.6946 26.8333 17.3097 28.8867Z" fill="#FAFAD5"></path>
        </svg>