<svg xmlns="http://www.w3.org/2000/svg" width="197" height="56" viewBox="0 0 197 56" fill="none">
          <path d="M23.7213 18.2605C23.7213 16.4948 21.8585 15.9349 20.2824 15.978V16.1502C21.2376 16.2364 21.9541 16.5809 21.9541 17.1408C21.9541 17.5284 21.6198 18.0452 20.7122 18.0452C19.9481 18.0452 18.754 17.6576 17.5599 17.313C16.2704 16.9254 15.0763 16.5378 14.0733 16.5378C12.1151 16.5378 10.5867 17.8729 10.5867 19.5095C10.5867 20.8445 11.733 21.2752 12.1628 21.4475L12.2106 21.3613C11.924 21.1891 11.733 20.9737 11.733 20.4139C11.733 19.9401 12.1151 19.2941 13.1181 19.2941C14.0255 19.2941 15.2196 19.6817 16.8435 20.0693C18.2286 20.4139 19.7092 20.7584 20.5212 20.8445V23.73L18.9928 24.8928L20.5212 26.0987V30.0609C19.7092 30.4915 18.8018 30.6207 17.9898 30.6207C16.5092 30.6207 15.1718 30.2331 14.0733 29.1565L18.2286 27.3476V21.0168L13.1658 23.084C13.6912 21.8781 14.6942 20.9737 15.7927 20.3708L15.745 20.2847C12.736 21.0168 9.96576 23.5147 9.96576 26.6155C9.96576 30.3193 13.2614 33.0325 17.0346 33.0325C21.1421 33.0325 23.5302 30.147 23.4825 27.0892H23.3869C22.766 28.252 21.8108 29.3718 20.6645 29.9747V26.0987L22.2884 24.9359L20.6645 23.7731V20.8876C22.1929 20.8445 23.7213 19.9401 23.7213 18.2605ZM15.1718 28.4243L13.9778 28.9842C13.2614 28.1229 12.7837 26.96 12.7837 25.4096C12.7837 24.7636 12.8792 23.9023 13.1181 23.2994L15.2196 22.438L15.1718 28.4243ZM34.229 23.3424L33.417 23.9023L31.0289 21.9643L28.211 23.9023V16.4086L24.3899 18.7773C24.8198 18.9065 25.3452 19.1218 25.3452 20.0263V30.4485L24.0556 31.3529L24.1989 31.4821L24.8676 31.0514L27.1124 32.9033L30.1692 31.0944L30.0259 30.9222L29.2616 31.396L28.211 30.4485V24.1607L28.9274 23.6869L30.5991 24.979V30.4485C30.5991 33.8939 29.7393 34.6259 28.0198 35.1859V35.2719C30.8856 35.4012 33.4647 34.4968 33.4647 30.0609V24.1176L34.3245 23.4716L34.229 23.3424ZM39.3395 32.8602L43.7336 29.6733L43.5903 29.5009L41.2977 31.1375L38.6231 29.2856V28.1229L43.2083 25.1943L40.9157 21.9643L35.8051 24.5052V30.4915L34.8021 31.1806L34.9454 31.3098L35.9006 30.6207L39.3395 32.8602ZM38.6231 27.8645V23.3424L40.8202 26.4863L38.6231 27.8645ZM61.9788 17.3992C61.9788 17.0977 61.8833 16.8824 61.7878 16.5378H61.6922C61.3579 17.313 61.0235 17.7006 60.0683 17.7006C59.2085 17.7006 58.5399 17.2269 58.1577 16.8824C58.1577 16.9254 55.2443 19.8971 55.2443 19.8971L55.3876 20.0263L56.1995 19.1649C56.8204 19.5956 57.3936 20.1124 58.7787 20.1124V27.7352L52.904 18.4758C52.4263 17.7868 51.6622 16.7532 50.277 16.7532C48.7009 16.7532 47.4591 18.0021 47.6501 20.0693H47.7456C47.8889 19.5525 48.2233 18.9065 48.8919 18.9065C49.4651 18.9065 49.895 19.3803 50.1815 19.8109V22.7825C48.3665 22.7825 47.3157 23.5577 47.3157 24.8498C47.3157 25.4096 47.7456 26.5725 48.9874 26.7447V26.6585C48.7964 26.4863 48.6532 26.3571 48.6532 26.0556C48.6532 25.5388 49.0829 25.2804 49.7994 25.2804C49.9427 25.2804 50.086 25.3235 50.1815 25.3235V29.1995C48.0322 29.2426 46.3606 30.2762 46.3606 32.1281C46.3606 33.8508 48.0323 34.669 49.7516 34.5829V34.4968C48.6532 34.3676 48.1278 33.8939 48.1278 33.1617C48.1278 32.3864 48.7487 31.9558 49.5606 31.9558C50.3725 31.9558 50.9457 32.4295 51.4711 32.9464L54.3846 30.0178L54.2413 29.8886L53.4771 30.6638C52.3786 29.7594 51.6622 29.3718 50.3725 29.1995V20.0693L58.5399 32.9033H58.9698V20.1124C60.5937 20.0263 61.9788 18.9926 61.9788 17.3992ZM64.7489 32.8602L69.1431 29.6733L68.9998 29.5009L66.7072 31.1375L64.0325 29.2426V28.0798L68.6177 25.1512L66.3251 21.9212L61.2146 24.4622V30.4485L60.2116 31.1375L60.3548 31.2668L61.3101 30.5777L64.7489 32.8602ZM64.0803 27.8645V23.3424L66.2774 26.4863L64.0803 27.8645ZM84.8091 22.9979L84.1404 23.4716L82.23 22.0073L79.9851 23.8161L80.8925 24.5914V31.396L78.6 29.9747V24.4622L79.412 23.9454L77.0716 21.9643L74.8745 23.7731L75.782 24.5483V31.1375L75.6388 31.2237L73.4894 29.8025V24.4191C73.4894 23.1702 72.773 22.7825 71.9133 22.3088C71.1491 21.8781 70.767 21.4905 70.767 20.8876C70.767 20.1985 71.4357 19.8971 71.6745 19.8109C70.9103 19.7679 68.761 20.5 68.7132 22.2657C68.6655 23.1702 69.1909 23.5577 69.6685 23.9884C70.1938 24.4191 70.6714 24.8498 70.6714 25.5819V30.8791L69.6208 31.6113L69.764 31.7404L70.767 31.0514L73.3462 32.9464L75.8298 31.396L78.5522 32.9464L83.8538 30.104V23.9454L85.0479 23.1271L84.8091 22.9979ZM102.577 17.8298L101.574 18.6481L99.3288 16.8824L96.272 19.1218V17.0546H96.081V31.9989C95.7466 31.9558 95.0302 31.7835 94.266 31.6544V19.1649C94.266 18.2605 93.5495 17.0116 91.7345 17.0116C89.8718 17.0116 88.7733 18.3897 88.7733 19.5956H88.8689C88.9644 19.0357 89.3942 18.562 89.9673 18.562C90.5882 18.562 91.1136 18.9065 91.1136 20.1124V23.6869C89.3942 23.7731 88.3435 24.7206 88.3435 25.7541C88.3435 26.3571 88.7733 27.4338 90.0629 27.4769V27.3907C89.6331 27.2185 89.5376 27.0031 89.5376 26.7878C89.5376 26.271 90.1107 26.0987 90.8749 26.0987H91.0659V31.8266C89.5853 32.3004 88.9167 33.1617 88.9167 34.2814C88.9167 35.7888 90.254 36.9947 92.2599 36.9947C93.6451 36.9947 94.6481 36.7794 95.9376 36.5209C96.9884 36.3056 98.087 36.0903 98.7079 36.0903C99.472 36.0903 99.8064 36.3917 99.8064 36.9085C99.8064 37.5545 99.5198 37.856 99.1377 37.9852V38.0714C100.809 37.7698 101.765 36.9085 101.765 35.5734C101.765 34.1953 100.284 33.3339 98.6601 33.3339C97.8004 33.3339 96.272 33.5924 95.0302 33.8508C93.6451 34.1523 92.4033 34.2814 91.9734 34.2814C91.257 34.2814 90.3972 33.9799 90.3972 33.1617C90.3972 32.3864 91.1136 31.7835 92.8331 31.7835C93.7884 31.7835 94.6958 31.9128 95.8421 32.1711C97.0839 32.4295 97.8959 32.731 98.9944 32.731C100.475 32.731 101.669 32.2573 101.669 30.3193V18.8634L102.768 17.959L102.577 17.8298ZM98.4212 23.8161C98.1347 24.0746 97.8482 24.2899 97.3228 24.2899C96.7496 24.2899 96.463 24.0315 96.2242 23.8161V19.3372L96.9407 18.8204L98.4212 19.9401V23.8161ZM98.4212 25.9695C98.1825 25.7541 97.8482 25.5388 97.3228 25.5388C96.7974 25.5388 96.4153 25.7972 96.2242 25.9695V24.0746C96.463 24.2468 96.7974 24.5052 97.3228 24.5052C97.8482 24.5052 98.1825 24.2899 98.4212 24.0746V25.9695ZM98.4212 30.4485C98.4212 31.1806 97.9915 31.9989 96.9407 31.9989C96.7496 31.9989 96.3675 31.9558 96.2242 31.9558V26.1848C96.463 25.9695 96.7974 25.7111 97.3228 25.7111C97.8482 25.7111 98.1347 25.9265 98.4212 26.1848V30.4485ZM107.018 32.8602L111.938 30.104V24.0746L108.738 21.9643L103.818 24.5052V30.4915L102.863 31.1806L102.959 31.3098L103.771 30.7069L107.018 32.8602ZM106.684 29.7594V23.2994L109.168 24.9359V31.3529L106.684 29.7594ZM121.347 22.0935C120.965 22.3519 120.631 22.4811 120.249 22.4811C119.866 22.4811 119.389 22.2657 119.15 21.9643C119.15 22.0073 117.335 23.73 117.335 23.73L115.52 21.9643L112.511 23.8161L112.607 23.9884L113.419 23.5147L114.517 24.5914V30.4485L113.228 31.3529L113.371 31.4821L114.04 31.0514L116.475 32.9033L119.58 31.0514L119.485 30.9222L118.673 31.3529L117.43 30.3193V23.9023C117.956 24.4191 118.53 24.8498 119.197 24.8498C120.344 24.8498 121.204 23.5147 121.347 22.0935ZM133.001 30.75L132.094 31.2668L126.983 24.4191L127.27 24.0746C127.843 24.376 128.321 24.8067 129.371 24.8067C130.422 24.8067 131.76 23.8161 131.903 21.9643C131.616 22.3088 131.091 22.6964 130.231 22.6964C129.61 22.6964 128.99 22.3088 128.607 21.9643L125.12 26.5725L129.705 32.9033L133.049 30.9222L133.001 30.75ZM126.792 30.9222L126.028 31.396L124.977 30.4485V16.4086L121.156 18.7773C121.586 18.9065 122.112 19.1218 122.112 20.0263V30.4485L120.821 31.3529L120.965 31.4821L121.634 31.0514L123.879 32.9033L126.935 31.0944L126.792 30.9222ZM149.192 18.2605C149.192 16.4948 147.329 15.9349 145.754 15.978V16.1502C146.709 16.2364 147.425 16.5809 147.425 17.1408C147.425 17.5284 147.091 18.0452 146.183 18.0452C145.419 18.0452 144.225 17.6576 143.031 17.313C141.742 16.9254 140.548 16.5378 139.545 16.5378C137.586 16.5378 136.058 17.8729 136.058 19.5095C136.058 20.8445 137.204 21.2752 137.634 21.4475L137.681 21.3613C137.395 21.1891 137.204 20.9737 137.204 20.4139C137.204 19.9401 137.586 19.2941 138.589 19.2941C139.496 19.2941 140.691 19.6817 142.315 20.0693C143.7 20.4139 145.181 20.7584 145.993 20.8445V23.73L144.464 24.8928L145.993 26.0987V30.0609C145.181 30.4915 144.273 30.6207 143.461 30.6207C141.98 30.6207 140.643 30.2331 139.545 29.1565L143.7 27.3476V21.0168L138.589 23.0409C139.115 21.8351 140.118 20.9307 141.216 20.3277L141.168 20.2416C138.159 20.9737 135.389 23.4716 135.389 26.5725C135.389 30.2762 138.685 32.9895 142.458 32.9895C146.565 32.9895 148.953 30.104 148.906 27.0462H148.81C148.189 28.209 147.234 29.3287 146.088 29.9317V26.0556L147.712 24.8928L146.088 23.73V20.8445C147.664 20.8445 149.192 19.9401 149.192 18.2605ZM140.596 28.4243L139.401 28.9842C138.685 28.1229 138.207 26.96 138.207 25.4096C138.207 24.7636 138.303 23.9023 138.541 23.2994L140.643 22.438L140.596 28.4243ZM152.297 17.5714L150.196 19.1649L152.011 21.0168L154.112 19.4233L152.297 17.5714ZM155.545 30.9222L154.781 31.396L153.73 30.4485V24.1176L154.638 23.4716L154.494 23.3424L153.73 23.8592L151.963 21.9643L149.049 23.7731L149.144 23.9454L149.861 23.5147L150.816 24.5914V30.4485L149.527 31.3529L149.67 31.4821L150.339 31.0514L152.583 32.9033L155.641 31.0944L155.545 30.9222ZM171.784 30.836L171.067 31.2668L169.921 30.2762V24.1176L170.829 23.4716L170.686 23.3424L169.874 23.9023L167.485 21.9643L164.763 23.8592L162.374 21.9643L159.7 23.8592L157.885 21.9643L154.972 23.7731L155.067 23.9454L155.784 23.5147L156.834 24.5914V30.4054L156.022 31.1375L158.315 32.9033L160.56 31.0944L159.652 30.3193V24.0746L160.273 23.6869L161.945 24.979V30.4054L161.181 31.1375L163.521 32.9033L165.718 31.0944L164.811 30.3193V24.0746L165.384 23.6439L167.056 24.979V30.3193L166.387 30.9653L168.728 32.9033L171.832 31.0084L171.784 30.836ZM180.238 29.544L177.945 31.1806L175.271 29.2856V28.1229L179.856 25.1943L177.564 21.9643L172.453 24.5052V30.6207L175.939 32.9033L180.334 29.7164L180.238 29.544ZM175.271 27.8645V23.3424L177.468 26.4863L175.271 27.8645ZM189.074 27.0031L187.115 25.6681C188.405 24.6344 188.883 23.3424 188.883 22.3949C188.883 22.2657 188.835 22.0073 188.835 21.792H188.739C188.548 22.2657 188.024 22.6964 187.259 22.6964C186.495 22.6964 186.017 22.3088 185.54 21.8351L181.05 24.0746V27.3476L182.77 28.5535C181.05 29.9317 180.715 30.793 180.715 31.5682C180.715 32.3864 181.241 33.0325 182.101 33.3339L182.196 33.2048C181.958 33.0325 181.766 32.9033 181.766 32.5157C181.766 32.2142 182.101 31.7404 182.865 31.7404C183.868 31.7404 184.44 32.3435 184.775 32.6879C184.775 32.6449 189.074 30.3193 189.074 30.3193V27.0031ZM188.071 24.333C187.402 25.4096 185.921 26.4863 185.014 27.0892L183.916 26.271V23.084C184.345 23.9454 185.253 24.6775 186.4 24.6775C187.115 24.6775 187.546 24.5483 188.071 24.333ZM186.208 31.4821C185.683 30.4485 184.632 29.7164 183.39 29.7164C183.104 29.7164 182.196 29.6733 181.432 30.147C181.91 29.458 183.247 28.209 185.014 27.2616L186.208 28.166V31.4821Z" fill="#FAFAD5"></path>
        </svg>