<svg xmlns="http://www.w3.org/2000/svg" width="155" height="56" viewBox="0 0 155 56" fill="none">
          <path d="M122.343 18.0245V35.9399H131.186C133.657 35.9399 135.087 35.5504 136.127 34.6417C137.428 33.4733 138.078 31.3961 138.078 26.9821C138.078 22.5683 137.428 20.4911 136.127 19.3227C135.087 18.4139 133.657 18.0245 131.186 18.0245H122.343ZM134.438 26.9821C134.438 30.8769 134.177 31.7856 133.397 32.3049C132.876 32.6944 132.226 32.8242 130.926 32.8242H125.984V21.0104H130.926C132.226 21.0104 132.876 21.0104 133.397 21.5297C134.177 22.1788 134.438 23.0875 134.438 26.9821ZM142.63 39.9H116.686V14H142.63V39.9ZM95.4897 21.0104V18.0245H110.835V23.7366H107.583V21.0104H101.341V25.2945H106.282V28.1506H101.341V32.954H107.714V29.8383H110.964V35.9399H95.4908V32.954H97.9606V21.0104H95.4897ZM81.5752 31.2664C81.5752 33.2137 81.7042 34.6417 81.9642 35.81H85.4765C85.3454 34.9013 85.2163 33.2137 85.2163 31.0066C85.0853 28.4103 84.305 28.0207 82.4844 27.6313C84.5651 27.2418 85.4765 26.3331 85.4765 23.0875C85.4765 20.4911 85.0853 19.4525 84.305 18.8034C83.7848 18.2841 82.8756 18.0245 81.4441 18.0245H70.5204V35.9399H74.1617V28.9296H79.2344C80.2747 28.9296 80.6638 29.0593 81.055 29.319C81.4462 29.5786 81.5752 29.9681 81.5752 31.2664ZM74.1617 26.0734V21.1402H80.0147C80.7949 21.1402 81.055 21.27 81.184 21.3999C81.4441 21.6595 81.7042 22.049 81.7042 23.6068C81.7042 25.1647 81.4441 25.684 81.184 25.9437C81.055 26.0734 80.7949 26.2033 80.0147 26.2033L74.1617 26.0734ZM90.6782 39.9H64.6695V14H90.6126V39.9H90.6782ZM57.9073 32.954V35.9399H45.5521V32.954H49.9736V21.0104H45.5521V18.0245H57.9062V21.0104H53.4848V32.954H57.9073ZM37.0349 18.0245H33.6538L31.1829 32.1751L28.3219 19.0631C28.1919 18.1543 27.8018 18.0245 27.0215 18.0245H25.2009C24.4206 18.0245 24.0305 18.2841 23.9005 19.0631L21.0395 32.1751L18.5687 18.0245H14.9275L18.4387 35.0312C18.5687 35.81 18.8288 35.9399 19.7391 35.9399H22.2099C22.9902 35.9399 23.2503 35.81 23.5104 35.0312L26.2413 22.6981L28.9721 35.0312C29.1022 35.81 29.3623 35.9399 30.2725 35.9399H32.6134C33.3936 35.9399 33.7837 35.81 33.9138 35.0312L37.0349 18.0245ZM38.8555 39.9H12.8468V14H38.7909V39.9H38.8555Z" fill="#FAFAD5"></path>
        </svg>