<svg width="64" height="64" viewBox="0 0 64 64" fill="none" xmlns="http://www.w3.org/2000/svg">
<g clip-path="url(#clip0)">
<path d="M63.7565 36.498C63.7545 36.4598 63.7509 36.4214 63.7454 36.3832L60.5375 14.0622C60.4829 13.6823 60.2569 13.3485 59.9245 13.1569C59.5923 12.9653 59.1902 12.9368 58.8338 13.08L44.0709 19.0153C43.4303 19.2728 43.1199 20.0009 43.3773 20.6414C43.6349 21.2822 44.3632 21.5925 45.0035 21.335L58.289 15.9937L61.2492 36.5907C61.2508 36.6487 61.2565 36.7069 61.2664 36.7652C61.9137 40.5754 61.205 44.5183 59.2714 47.8675C57.0445 51.7245 53.4448 54.4812 49.1349 55.6295C44.8239 56.7783 40.3188 56.1807 36.449 53.9467C36.4223 53.9312 36.3948 53.9182 36.3674 53.9049C37.197 53.2744 37.9774 52.5918 38.7053 51.8615L53.34 47.9402C54.007 47.7615 54.4028 47.0759 54.224 46.409C54.0454 45.7422 53.3594 45.3463 52.693 45.525L41.4323 48.5423C42.6697 46.7015 43.6377 44.6715 44.2992 42.4997L54.3457 39.8078C55.0127 39.6292 55.4084 38.9435 55.2297 38.2767C55.051 37.6098 54.365 37.2139 53.6987 37.3927L46.3064 39.3734L49.0862 34.5585L54.9605 32.9845C55.6275 32.8059 56.0233 32.1203 55.8445 31.4534C55.6658 30.7865 54.9799 30.3907 54.3135 30.5694L50.8542 31.4964L53.5142 26.889C53.8594 26.291 53.6545 25.5265 53.0567 25.1814C52.4587 24.8362 51.6942 25.041 51.349 25.6389L48.689 30.2462L47.762 26.7868C47.5833 26.1199 46.8977 25.724 46.231 25.9028C45.564 26.0814 45.1683 26.767 45.347 27.4339L46.921 33.3083L45.2945 36.1255C45.3425 32.1239 44.3187 28.1694 42.2665 24.6152C39.6824 20.1394 35.6043 16.6634 30.7783 14.8219C30.7704 14.8185 30.7623 14.8152 30.7543 14.8118L25.0978 12.516C24.4575 12.2564 23.729 12.5647 23.4694 13.2043C23.2098 13.8442 23.5179 14.5732 24.1577 14.8328L29.7627 17.1075C29.788 17.1192 29.8139 17.1299 29.8402 17.1399C34.1513 18.7725 37.7955 21.8712 40.1013 25.865C42.7853 30.514 43.4933 35.9329 42.0948 41.1239C40.8047 45.9122 37.8639 49.9764 33.7564 52.6919L31.6584 49.0582L36.2068 32.0837C36.3855 31.4167 35.9898 30.7313 35.3228 30.5525C34.6554 30.3739 33.9705 30.7697 33.7918 31.4365L29.8907 45.9963L25.2624 37.9799L28.4179 26.2039C28.5967 25.5369 28.2009 24.8515 27.5339 24.6728C26.8668 24.494 26.1817 24.8899 26.0029 25.5568L23.4947 34.9178L19.8463 28.5987L21.7467 21.5068C21.9254 20.8398 21.5297 20.1544 20.8627 19.9757C20.1954 19.797 19.5104 20.1928 19.3317 20.8597L18.0783 25.5365L14.622 19.55C14.2769 18.9522 13.5123 18.7472 12.9144 19.0925C12.3164 19.4377 12.1115 20.2023 12.4569 20.8002L15.9132 26.7865L11.2364 25.5334C10.5693 25.3547 9.88416 25.7505 9.70541 26.4174C9.52666 27.0844 9.92241 27.7698 10.5894 27.9485L17.6812 29.8489L21.3295 36.168L11.9688 33.6599C11.3017 33.4812 10.6165 33.877 10.4378 34.5439C10.259 35.2109 10.6548 35.8963 11.3218 36.075L23.0975 39.2304L27.7258 47.2468L13.1664 43.3457C12.4992 43.1669 11.8142 43.5628 11.6354 44.2297C11.4567 44.8967 11.8524 45.582 12.5194 45.7608L29.4938 50.309L31.5915 53.9424C22.1448 58.6507 10.5189 55.2597 5.18679 46.0243C2.85604 41.9873 2.00204 37.2348 2.78216 32.6422C2.79279 32.5802 2.79841 32.5183 2.79941 32.4567L6.36904 7.61353L14.6504 10.9747C15.2908 11.2344 16.0192 10.9262 16.2788 10.2864C16.5384 9.64653 16.2303 8.91753 15.5905 8.6579L5.82904 4.6959C5.47291 4.55153 5.06966 4.57878 4.73641 4.77015C4.40304 4.96153 4.17629 5.29578 4.12154 5.67653L0.301039 32.2608C0.294914 32.3029 0.291164 32.3452 0.289414 32.387C-0.540336 37.5017 0.427413 42.7817 3.02104 47.2739C7.19766 54.5083 14.8078 58.5547 22.6308 58.5545C26.0859 58.5545 29.5819 57.7622 32.8424 56.1095L34.3788 58.7705C34.6104 59.1715 35.0305 59.3958 35.4627 59.3958C35.6747 59.3958 35.8897 59.3418 36.0865 59.2282C36.6845 58.883 36.8894 58.1184 36.544 57.5205L35.9744 56.5338C38.7367 57.9678 41.7495 58.7014 44.7984 58.7014C46.4597 58.7014 48.1317 58.4843 49.7788 58.0454C54.735 56.7247 58.8754 53.5539 61.4368 49.1175C63.6354 45.3095 64.4569 40.834 63.7565 36.498Z" fill="#40AE28"/>
<path d="M20.6572 10.8201C20.4248 10.5876 20.1023 10.4539 19.7734 10.4539C19.4446 10.4539 19.1221 10.5876 18.8896 10.8201C18.6571 11.0539 18.5233 11.3751 18.5233 11.704C18.5233 12.034 18.6569 12.3554 18.8896 12.5891C19.1221 12.8217 19.4446 12.9554 19.7734 12.9554C20.1022 12.9554 20.4248 12.8216 20.6572 12.5891C20.8909 12.3554 21.0236 12.0327 21.0236 11.704C21.0236 11.3752 20.8909 11.0539 20.6572 10.8201Z" fill="#40AE28"/>
<path d="M55.4855 21.7959L55.478 21.7856C55.0722 21.227 54.2904 21.103 53.7319 21.5087C53.1732 21.9144 53.0491 22.6962 53.4549 23.2547L53.4624 23.2649C53.707 23.6016 54.0884 23.7805 54.475 23.7805C54.7296 23.7805 54.9867 23.7029 55.2086 23.5419C55.7671 23.1362 55.8911 22.3545 55.4855 21.7959Z" fill="#40AE28"/>
</g>
<defs>
<clipPath id="clip0">
<rect width="64" height="64" fill="white"/>
</clipPath>
</defs>
</svg>
