<svg width="64" height="64" viewBox="0 0 64 64" fill="none" xmlns="http://www.w3.org/2000/svg">
<g clip-path="url(#clip0)">
<path d="M5.12742 27.91C5.46052 28.0433 5.84682 28.0433 6.17992 27.8834L16.5847 23.1539C17.2508 22.8342 17.5306 22.0349 17.2108 21.3688C16.9045 20.7293 16.1451 20.4362 15.4922 20.7293L8.20488 24.0466C11.682 13.6418 21.3674 6.6875 32.5182 6.6875C44.202 6.6875 54.4202 14.4944 57.3644 25.6719C57.5508 26.3779 58.2836 26.8043 58.9897 26.6177C59.6957 26.4312 60.1221 25.6985 59.9355 24.9924C56.6848 12.656 45.4141 4.02307 32.5181 4.02307C20.2216 4.02307 9.52367 11.6967 5.66023 23.1807L2.59613 15.5203C2.36969 14.8275 1.61032 14.4412 0.917512 14.6677C0.224708 14.8941 -0.161599 15.6535 0.0648394 16.3463C0.0782034 16.3996 0.104806 16.4528 0.13141 16.5062L4.38128 27.164C4.51455 27.4971 4.78095 27.7769 5.12742 27.91Z" fill="#40AE28"/>
<path d="M63.919 47.5738C63.9056 47.5472 63.8924 47.5205 63.8924 47.4939L59.6425 36.836C59.5092 36.5029 59.2428 36.2232 58.8965 36.09C58.5634 35.9567 58.1771 35.9701 57.844 36.1166L47.4392 40.8461C46.7597 41.1259 46.44 41.9118 46.7198 42.5913C46.9996 43.2707 47.7855 43.5905 48.465 43.3107C48.4916 43.2973 48.5183 43.2841 48.5449 43.2707L55.8323 39.9534C52.3285 50.3582 42.6298 57.3125 31.4923 57.3125C19.8086 57.3125 9.59038 49.5056 6.64618 38.3282C6.4597 37.6221 5.72693 37.1957 5.02089 37.3823C4.31485 37.5688 3.88845 38.3016 4.07504 39.0076C7.31238 51.3574 18.5965 59.9769 31.4925 59.9769C43.7889 59.9769 54.4735 52.3033 58.3503 40.8194L61.4144 48.4797C61.6676 49.1725 62.427 49.5322 63.1196 49.279C63.8123 49.026 64.172 48.2666 63.919 47.5738Z" fill="#40AE28"/>
</g>
<defs>
<clipPath id="clip0">
<rect width="64" height="64" fill="white"/>
</clipPath>
</defs>
</svg>
