<svg width="48" height="48" viewBox="0 0 48 48" fill="none" xmlns="http://www.w3.org/2000/svg">
<g clip-path="url(#clip0)">
<path d="M25.187 22.8142C24.8205 22.4476 24.227 22.4476 23.8605 22.8142C23.4948 23.1798 23.4948 23.7732 23.8605 24.1398C24.227 24.5054 24.8205 24.5054 25.187 24.1398C25.5526 23.7732 25.5526 23.1798 25.187 22.8142Z" fill="#40AE28"/>
<path d="M37.1186 10.8815C35.2867 9.04972 32.3212 9.04963 30.4893 10.8815C28.6622 12.7086 28.6621 15.6823 30.4896 17.5109C32.3173 19.3375 35.291 19.3383 37.1186 17.5107C38.9503 15.6791 38.9507 12.7135 37.1186 10.8815ZM35.7928 16.1848C34.6966 17.2811 32.9121 17.2811 31.8154 16.185C30.719 15.088 30.7189 13.3035 31.8152 12.2073C32.9142 11.1083 34.6936 11.1081 35.7928 12.2073C36.8918 13.3062 36.892 15.0857 35.7928 16.1848Z" fill="#40AE28"/>
<path d="M47.7253 0.274602C47.5411 0.0905715 47.2899 -0.00917829 47.0287 0.000665436C46.8167 0.00825917 41.7697 0.211134 35.7702 2.33166C30.9627 4.0291 26.9556 6.45937 23.86 9.55499C23.1664 10.2486 22.4914 10.9842 21.8455 11.7484C18.7848 9.94668 16.3321 10.5116 14.7816 11.3414C11.2115 13.252 9.00171 18.4398 9.00171 22.1504C9.00199 22.5295 9.23046 22.8714 9.58071 23.0164C9.69668 23.0645 9.81855 23.0879 9.9393 23.0879C10.1833 23.0879 10.4231 22.9925 10.6024 22.8133C12.4852 20.9305 14.8074 21.0482 15.5661 21.148L15.8944 21.4763C15.2483 23.0138 14.7278 24.5427 14.346 26.0296C14.2082 26.5678 14.2547 27.1372 14.4595 27.6581C13.5569 28.074 12.6861 28.6848 11.9278 29.4431C9.51461 31.8564 9.02458 37.7377 9.0049 37.9869C8.98333 38.2603 9.08252 38.5296 9.27649 38.7236C9.45302 38.9 9.6918 38.9981 9.9393 38.9981C9.96386 38.9981 9.98852 38.9972 10.0132 38.9952C10.2624 38.9757 16.1439 38.4856 18.5571 36.0724C19.315 35.3144 19.9257 34.4437 20.3417 33.5413C20.8931 33.7581 21.4607 33.7848 21.9711 33.654C23.4574 33.2724 24.9861 32.7521 26.5237 32.1059L26.8521 32.4342C26.9517 33.1929 27.0695 35.5152 25.1868 37.3977C24.9187 37.6659 24.8385 38.0691 24.9836 38.4193C25.1286 38.7697 25.4705 38.9981 25.8497 38.9981C29.5603 38.9981 34.7479 36.7883 36.6586 33.2182C37.4883 31.6679 38.0533 29.2152 36.2516 26.1543C37.0154 25.5088 37.751 24.8338 38.445 24.1398C41.5406 21.0442 43.9708 17.0371 45.6682 12.23C47.7888 6.23015 47.9916 1.18304 47.9992 0.971164C48.0086 0.711008 47.9093 0.458727 47.7253 0.274602ZM11.0978 20.1339C11.6801 17.3155 13.3717 14.2228 15.6667 12.9945C17.2003 12.1738 18.8767 12.2542 20.659 13.2299C19.1406 15.2269 17.8205 17.3785 16.7201 19.6505C16.7062 19.6419 16.5374 19.4298 16.2239 19.3591C16.095 19.3299 13.6145 18.7964 11.0978 20.1339ZM17.2313 34.7465C15.9422 36.0356 12.9183 36.7154 11.007 36.993C11.2847 35.0817 11.9647 32.0578 13.2536 30.7689C13.9755 30.047 14.8125 29.4997 15.6538 29.1915L18.8087 32.3463C18.5004 33.1876 17.9532 34.0246 17.2313 34.7465ZM21.5053 31.8377C21.234 31.9072 20.9197 31.8052 20.6861 31.5719C19.4733 30.3591 18.9988 29.8846 18.8499 29.7359C18.5769 29.4629 17.9075 28.7934 16.4288 27.3146C16.1949 27.0803 16.0929 26.7661 16.1622 26.4953C16.4625 25.3259 16.8552 24.1261 17.3328 22.9147L25.0854 30.6674C23.8739 31.145 22.6743 31.5376 21.5053 31.8377ZM35.0057 32.3335C33.7774 34.6284 30.6847 36.32 27.8664 36.9023C28.765 35.2113 28.9631 33.0587 28.6348 31.7534C28.5586 31.4503 28.3608 31.2978 28.3497 31.2799C30.6215 30.1796 32.773 28.8595 34.7703 27.341C35.7459 29.1236 35.8263 30.8001 35.0057 32.3335ZM37.1193 22.814C36.2746 23.6587 35.3649 24.4748 34.4156 25.2395C32.1335 27.077 29.6218 28.6335 26.942 29.8724L18.1277 21.0583C19.3667 18.3783 20.9231 15.8666 22.7604 13.5848C23.5258 12.6349 24.3418 11.7251 25.1862 10.8808C27.9636 8.10337 31.548 5.89294 35.8428 4.30181L43.6983 12.1573C42.1074 16.4521 39.897 20.0365 37.1193 22.814ZM44.3729 10.18L37.8201 3.62728C41.3902 2.51841 44.4961 2.10319 46.0463 1.95394C45.897 3.50447 45.4816 6.61031 44.3729 10.18Z" fill="#40AE28"/>
<path d="M22.5347 38.7233C22.1685 38.3572 21.5748 38.3574 21.2088 38.7235L18.5576 41.3757C18.1916 41.7419 18.1917 42.3355 18.5578 42.7015C18.9241 43.0675 19.5177 43.0675 19.8837 42.7013L22.5349 40.0491C22.9009 39.683 22.9008 39.0893 22.5347 38.7233Z" fill="#40AE28"/>
<path d="M9.27688 25.4653C8.91088 25.0992 8.31735 25.0992 7.95106 25.4651L5.29888 28.1164C4.93269 28.4824 4.9326 29.076 5.2986 29.4422C5.66451 29.8082 6.25804 29.8086 6.62441 29.4424L9.27659 26.7911C9.64278 26.4251 9.64288 25.8315 9.27688 25.4653Z" fill="#40AE28"/>
<path d="M15.9059 40.05C15.54 39.6839 14.9463 39.6839 14.5801 40.0499L8.22949 46.3996C7.8633 46.7656 7.8633 47.3593 8.22939 47.7254C8.5953 48.0915 9.18901 48.0916 9.5552 47.7255L15.9058 41.3758C16.272 41.0097 16.272 40.4161 15.9059 40.05Z" fill="#40AE28"/>
<path d="M8.40597 40.05C8.03997 39.6839 7.44625 39.6839 7.08016 40.0499L0.729547 46.3996C0.36336 46.7656 0.36336 47.3593 0.729453 47.7254C1.09536 48.0915 1.68908 48.0916 2.05526 47.7255L8.40588 41.3758C8.77206 41.0097 8.77206 40.4161 8.40597 40.05Z" fill="#40AE28"/>
<path d="M7.95023 32.0941C7.58423 31.7281 6.99051 31.7281 6.62442 32.0942L0.274741 38.4448C-0.0913519 38.8109 -0.0913519 39.4045 0.274835 39.7707C0.640928 40.1368 1.23455 40.1368 1.60064 39.7706L7.95032 33.42C8.31641 33.0538 8.31641 32.4603 7.95023 32.0941Z" fill="#40AE28"/>
<path d="M29.164 18.8362C28.7978 18.4701 28.2044 18.4701 27.8381 18.8362L26.5125 20.1618C26.1464 20.5279 26.1464 21.1215 26.5125 21.4877C26.8787 21.8538 27.4722 21.8538 27.8384 21.4877L29.164 20.1621C29.5301 19.796 29.5301 19.2023 29.164 18.8362Z" fill="#40AE28"/>
</g>
<defs>
<clipPath id="clip0">
<rect width="48" height="48" fill="white"/>
</clipPath>
</defs>
</svg>
