<svg width="50" height="49" viewBox="0 0 50 49" fill="none" xmlns="http://www.w3.org/2000/svg">
<path d="M16.6056 15.82L11.2656 10.62L20.4156 9.29L24.5056 1L28.5956 9.29L37.7356 10.62L35.4956 12.8" stroke="#00B000" stroke-width="1.6" stroke-linecap="round" stroke-linejoin="round"/>
<path d="M23.6278 48.0601C24.1083 48.0601 24.4978 47.6706 24.4978 47.1901C24.4978 46.7096 24.1083 46.3201 23.6278 46.3201C23.1473 46.3201 22.7578 46.7096 22.7578 47.1901C22.7578 47.6706 23.1473 48.0601 23.6278 48.0601Z" fill="#00B000"/>
<path d="M20.42 47.1901H3.32996C0.979956 46.7501 1.17993 44.8801 1.17993 44.8801L1 38.8H49L48.8099 44.8801C48.8099 44.8801 49.01 46.7501 46.67 47.1901H26.76" stroke="#00B000" stroke-width="1.6" stroke-linecap="round" stroke-linejoin="round"/>
<path d="M44.4812 15.79H5.4812C4.36729 15.79 3.29901 16.2325 2.51135 17.0202C1.7237 17.8079 1.28125 18.8761 1.28125 19.9901V38.79H3.90125V20.33C3.89992 20.0814 3.94785 19.8351 4.04236 19.6052C4.13687 19.3753 4.27601 19.1664 4.45178 18.9907C4.62755 18.8149 4.8365 18.6757 5.06641 18.5812C5.29631 18.4867 5.54269 18.4387 5.79126 18.4401H44.1512C44.6525 18.4401 45.1332 18.6391 45.4877 18.9936C45.8421 19.348 46.0413 19.8288 46.0413 20.33V38.79H48.6613V20.02C48.6652 19.4676 48.5601 18.9199 48.3521 18.4081C48.144 17.8964 47.837 17.4308 47.4487 17.0378C47.0604 16.6449 46.5985 16.3325 46.0892 16.1183C45.58 15.9042 45.0336 15.7927 44.4812 15.79Z" stroke="#00B000" stroke-width="1.6" stroke-linecap="round" stroke-linejoin="round"/>
</svg>
