<svg width="48" height="48" viewBox="0 0 48 48" fill="none" xmlns="http://www.w3.org/2000/svg">
<g clip-path="url(#clip0)">
<path d="M46.9687 2.44539C46.8578 2.42927 44.2168 2.05486 40.8558 2.36914C36.3332 2.79226 32.6742 4.28411 30.2742 6.68376C25.1407 11.8173 25.7429 20.7302 25.9777 22.9035C25.7537 23.143 25.1383 23.6677 24.4786 24.6375C23.7033 22.197 22.078 20.7874 21.9841 20.67C22.2119 18.5037 22.7962 9.5678 17.6883 4.45994C15.2884 2.05992 11.6294 0.56769 7.10668 0.144564C3.74546 -0.170181 1.10451 0.204515 0.993788 0.220627C0.583402 0.280298 0.261163 0.60263 0.201493 1.01292C0.185381 1.12374 -0.189128 3.76479 0.125336 7.12591C0.548556 11.6485 2.04078 15.3076 4.44071 17.7075C8.38355 21.6504 15.2128 22.5807 20.6667 22.0023C20.7505 22.1249 23.0445 23.9988 23.0445 27.4861V36.1236C21.6308 35.3063 20.0197 34.8667 18.3608 34.8667C14.646 34.8667 11.1539 37.0401 9.61199 40.2313C8.43432 40.1442 7.23951 40.2906 6.11748 40.6645C3.1245 41.6617 0.793232 44.0118 0.0336291 46.7978C-0.0431836 47.0795 0.0157374 47.3809 0.192969 47.6129C0.3702 47.8449 0.645415 47.981 0.937397 47.981H19.7659C20.2832 47.981 20.7026 47.5615 20.7026 47.0443C20.7026 46.527 20.2832 46.1075 19.7659 46.1075H2.3071C3.16356 44.4585 4.78534 43.083 6.70978 42.4418C8.95271 41.6944 11.4235 42.1178 13.2895 43.5685C13.698 43.886 14.2865 43.8123 14.604 43.4038C14.9215 42.9954 14.8478 42.4067 14.4393 42.0894C13.5726 41.4156 12.5861 40.9081 11.5395 40.5908C12.8733 38.2808 15.5341 36.7401 18.3608 36.7401C21.1451 36.7401 23.6222 38.2678 24.9195 40.6061C25.06 40.8593 25.3096 41.0334 25.5957 41.0774C25.8819 41.1217 26.1723 41.0309 26.3826 40.8318C27.2553 40.0054 28.3986 39.5502 29.6017 39.5502C31.3503 39.5502 32.9408 40.5128 33.7525 42.0625C33.9492 42.4378 34.373 42.6344 34.7864 42.5421C36.0321 42.2639 37.3038 42.2295 38.5658 42.4394C41.166 42.8733 43.6651 44.2774 45.2394 46.1073H28.1966C27.6792 46.1073 27.2598 46.5268 27.2598 47.0441C27.2598 47.5613 27.6792 47.9808 28.1966 47.9808H47.025C47.3551 47.9808 47.6608 47.8072 47.8297 47.5236C47.9987 47.2401 48.0059 46.8887 47.8489 46.5984C46.2199 43.5871 42.697 41.2294 38.8736 40.5914C37.5988 40.3794 36.3157 40.3769 35.0502 40.5838C33.8405 38.7745 31.8113 37.6767 29.6017 37.6767C28.2954 37.6767 27.0396 38.06 25.9715 38.7718C25.657 38.3342 25.3046 37.9248 24.918 37.5456V28.2451C25.4962 25.6997 27.135 24.4414 27.303 24.2276C32.7537 24.803 39.5832 23.8698 43.5217 19.9312C47.5475 15.9055 48.525 8.49514 47.7609 3.23759C47.7013 2.82739 47.379 2.50506 46.9687 2.44539ZM5.76545 16.3827C1.47865 12.0959 1.77297 4.3747 1.97943 1.99772C4.35603 1.78892 12.0678 1.48888 16.3636 5.78468C19.5689 8.99002 20.4122 14.3883 20.2317 18.8987L16.3 14.9247V11.3544C16.3 10.8371 15.8807 10.4176 15.3633 10.4176C14.8459 10.4176 14.4266 10.8371 14.4266 11.3544V13.0311L12.3657 10.9482V7.42014C12.3657 6.90287 11.9463 6.48339 11.429 6.48339C10.9116 6.48339 10.4922 6.90287 10.4922 7.42014V9.05456L8.13044 6.66756C7.76652 6.29979 7.17347 6.2967 6.8057 6.66053C6.43794 7.02446 6.43485 7.61751 6.79868 7.98527L9.20526 10.4177H7.49458C6.97722 10.4177 6.55784 10.8372 6.55784 11.3544C6.55784 11.8717 6.97722 12.2912 7.49458 12.2912H11.0589L13.0978 14.352H11.4289C10.9115 14.352 10.4922 14.7715 10.4922 15.2888C10.4922 15.806 10.9115 16.2255 11.4289 16.2255H14.9514L18.9296 20.2464C15.7703 20.376 9.48656 20.1039 5.76545 16.3827ZM42.1969 18.6065C38.4942 22.3092 32.2306 22.5941 29.0603 22.4699L33.2443 18.2862H36.8146C37.3319 18.2862 37.7513 17.8668 37.7513 17.3495C37.7513 16.8322 37.3319 16.4128 36.8146 16.4128H35.1179L37.2726 14.2582H40.8426C41.36 14.2582 41.7794 13.8388 41.7794 13.3215C41.7794 12.8042 41.36 12.3848 40.8426 12.3848H39.1462L41.535 9.99617C41.9008 9.63037 41.9008 9.03723 41.535 8.67134C41.1692 8.30564 40.576 8.30564 40.2103 8.67134L37.8451 11.0363V9.3872C37.8451 8.86993 37.4257 8.45046 36.9083 8.45046C36.391 8.45046 35.9716 8.86993 35.9716 9.3872V12.9097L33.8171 15.0641V13.4152C33.8171 12.8979 33.3977 12.4784 32.8803 12.4784C32.363 12.4784 31.9436 12.8979 31.9436 13.4152V16.9374L27.7357 21.1451C27.6104 17.9756 27.8938 11.7136 31.5989 8.00841C35.885 3.72301 43.6048 4.01686 45.9831 4.22323C46.1896 6.60227 46.4829 14.3207 42.1969 18.6065Z" fill="#40AE28"/>
<path d="M23.9812 47.981C24.4986 47.981 24.918 47.5616 24.918 47.0443C24.918 46.5269 24.4986 46.1075 23.9812 46.1075C23.4639 46.1075 23.0445 46.5269 23.0445 47.0443C23.0445 47.5616 23.4639 47.981 23.9812 47.981Z" fill="#40AE28"/>
</g>
<defs>
<clipPath id="clip0">
<rect width="48" height="48" fill="white"/>
</clipPath>
</defs>
</svg>
