<svg width="64" height="64" viewBox="0 0 64 64" fill="none" xmlns="http://www.w3.org/2000/svg">
<path d="M39.4537 37.6891V36.629H40.5137C42.3194 36.629 44.0253 35.2761 44.0253 33.0035C44.0253 30.3858 42.8658 27.9312 40.2902 26.0941C41.7039 25.7944 43.0094 25.3269 44.0282 24.7386C45.9784 23.6127 47.3925 21.7091 47.9082 19.5155C48.3398 17.6781 47.2119 15.8402 45.3923 15.3526L44.3683 15.0782L44.6428 14.0537C45.1409 12.1916 44.0415 10.3201 42.2953 9.794C42.0014 9.70537 41.6995 9.63262 41.398 9.5775C40.8883 9.484 40.4003 9.82187 40.3072 10.3312C40.2142 10.8405 40.5515 11.3287 41.0608 11.422C41.2938 11.4646 41.527 11.5209 41.7542 11.5892C42.5552 11.8306 43.0641 12.6994 42.8316 13.5689L42.4009 15.1757L40.5769 16.4895C40.1568 16.7921 40.0614 17.378 40.364 17.7981C40.6672 18.219 41.2532 18.3132 41.6727 18.011L43.407 16.7619L44.9069 17.1639C45.6239 17.356 46.1248 17.999 46.1248 18.7272C46.1248 19.363 45.4632 21.7455 43.0907 23.1151C41.6836 23.9276 39.4953 24.4889 37.3799 24.5801C36.4024 24.6224 36.1386 25.9544 37.0249 26.3669C39.9511 27.7276 42.1502 29.7299 42.1502 33.0039C42.1502 34.1474 41.3318 34.7544 40.5135 34.7544H38.9288L37.3163 32.9925C36.9669 32.6104 36.3738 32.5841 35.9918 32.9339C35.6098 33.2834 35.5836 33.8764 35.9332 34.2584L37.5784 36.056V37.6895C37.5784 38.5637 36.8818 39.2965 36.0271 39.3229C34.2697 39.3738 32.5999 38.7154 31.3599 37.4754C29.9223 36.0379 28.5927 33.3646 28.1079 30.9482V27.5186C28.6711 27.427 29.2097 27.2622 29.7147 27.0352C30.8573 28.3425 30.9838 28.6234 31.5288 28.6234C32.3251 28.6234 32.7668 27.678 32.2343 27.0689L31.3122 26.014C32.5392 24.9494 33.3645 23.4342 33.5267 21.7277L35.8924 20.6574C36.3641 20.444 36.5736 19.8886 36.3601 19.4167C36.1468 18.9452 35.5913 18.7352 35.1194 18.9491L33.4065 19.724C32.8353 17.1054 30.6808 15.0725 27.9997 14.683V12C27.9997 11.4821 27.5801 11.0625 27.0622 11.0625C26.5443 11.0625 26.1249 11.4821 26.1249 12C26.1249 15.773 26.1074 15.5517 26.1074 15.5517C26.1074 16.0486 26.4998 16.4892 27.0624 16.4892C29.6097 16.4892 31.6821 18.5616 31.6821 21.1089C31.6821 23.6561 29.6097 25.7285 27.0624 25.7285C22.7104 25.7285 20.7884 20.2316 24.1664 17.5095C24.5697 17.1845 24.6329 16.5944 24.3082 16.1912C23.9833 15.7881 23.3933 15.7246 22.9899 16.0495C21.8396 16.9766 21.0563 18.2409 20.7337 19.6449L19.4534 18.9729C18.9952 18.7326 18.4283 18.9086 18.1876 19.3671C17.9469 19.8256 18.1234 20.3924 18.5818 20.633L20.5952 21.6899C20.7414 23.3314 21.5005 24.7985 22.642 25.861L21.4595 27.0142C20.8564 27.6024 21.28 28.6229 22.1142 28.6229C22.6073 28.6229 22.6832 28.4399 24.2159 26.945C24.8391 27.2501 25.5182 27.4571 26.2331 27.5487V30.949C25.7481 33.3652 24.4186 36.0377 22.9812 37.475C21.7461 38.7102 20.0847 39.3754 18.3157 39.3226C17.4593 39.2961 16.7627 38.5634 16.7627 37.6891V36.1092L18.7513 34.3223C19.1364 33.9761 19.1681 33.3835 18.8219 32.9984C18.4761 32.6132 17.8833 32.5814 17.498 32.9277L15.4658 34.7539H13.8275C12.9533 34.7539 12.2205 34.0573 12.194 33.2011C12.0949 29.8568 14.2832 27.7735 17.3301 26.36C18.2129 25.9501 17.9576 24.6244 16.9844 24.5732C14.9162 24.4651 12.7797 23.9062 11.4089 23.1147C9.09805 21.7805 8.37492 19.4311 8.37492 18.727C8.37492 17.9986 8.87567 17.3556 9.5928 17.1635L11.1683 16.7412C12.9625 17.6831 12.9474 17.7129 13.249 17.7129C14.2225 17.7129 14.5517 16.3997 13.6857 15.945L12.0789 15.1015C11.6294 13.4237 11.6115 13.4211 11.6115 13.1405C11.6115 12.4282 12.0778 11.7901 12.7457 11.5889C15.5812 10.7336 17.9336 11.8779 19.9618 13.9764C20.6544 14.693 21.8506 13.965 21.5216 13.0174C20.4611 9.96337 20.4261 7.036 22.8141 4.79137C23.1068 4.51625 23.4924 4.36462 23.8998 4.36462C24.7558 4.36462 25.0558 4.83725 26.2051 5.98662V8.2405C26.2051 8.75837 26.6247 9.178 27.1426 9.178C27.6604 9.178 28.0801 8.75837 28.0801 8.2405V5.98662C29.2293 4.8375 29.5295 4.36487 30.3853 4.36487C30.7928 4.36487 31.1784 4.5165 31.4712 4.79162C33.9549 7.126 33.8142 10.2265 32.6368 13.3695C32.2758 14.3334 33.5197 15.0905 34.2099 14.3274C35.6708 12.7127 36.8854 12.0085 37.8434 11.6721C38.3319 11.5006 38.5889 10.9656 38.4174 10.477C38.2461 9.9885 37.7112 9.7315 37.2223 9.903C36.4894 10.1601 35.8419 10.5022 35.2152 10.9324C35.6893 7.79475 34.6309 5.18825 32.7552 3.42525C32.1133 2.822 31.2717 2.48975 30.3852 2.48975C28.7278 2.48975 27.9522 3.46262 27.1424 4.27237C26.3308 3.46062 25.5576 2.48962 23.8997 2.48962C23.0131 2.48962 22.1714 2.82187 21.5297 3.42525C19.6648 5.17825 18.6303 7.74325 19.0454 10.7732C16.9157 9.3965 14.4278 9.123 12.2043 9.79362C10.7513 10.2316 9.73655 11.6079 9.73655 13.1404C9.73655 13.7126 9.84167 13.9957 10.1314 15.0779L9.10755 15.3522C7.28417 15.8406 6.16092 17.681 6.59155 19.5152C7.10717 21.7087 8.5213 23.6124 10.4715 24.7383C11.4574 25.3075 12.7202 25.7655 14.0892 26.0667C11.4734 27.9189 10.2322 30.4606 10.3202 33.2588C10.3787 35.1484 11.9193 36.6286 13.8278 36.6286H14.8878V37.6888C14.8878 39.5019 16.2474 41.2002 18.5125 41.2002C22.8145 41.2002 25.5361 38.2328 27.1708 34.2528C28.8557 38.3556 31.6781 41.3276 36.0836 41.1964C37.9733 41.1381 39.4537 39.5975 39.4537 37.6891V37.6891Z" fill="#40AE28"/>
<path d="M60.3141 48.9501C60.5917 48.0861 59.5915 47.3636 58.8595 47.9123C58.4313 48.233 57.9088 48.5375 57.3482 48.7925C56.4071 49.2208 56.7621 50.639 57.7831 50.5821C59.6036 50.4913 61.1755 50.9181 62.0481 52.5437C62.2212 52.8672 62.0895 53.2648 61.7775 53.4448L61.022 53.8811L59.9918 53.6061C59.4915 53.4724 58.9778 53.7698 58.8442 54.2701C58.7107 54.7704 59.008 55.2841 59.5082 55.4177L60.5375 55.6925L60.9733 56.4475C61.1537 56.7592 61.0681 57.1701 60.7573 57.3626C58.7631 58.5981 56.5582 57.5461 54.8403 55.9699C54.1193 55.3086 52.9907 56.0639 53.326 56.9822C53.9938 58.8121 54.0835 60.5986 52.65 61.9455C52.3905 62.1892 51.9718 62.179 51.7101 61.917L50.819 61.0259C50.4528 60.66 49.8592 60.6597 49.4932 61.0259C48.5645 61.9544 48.4815 62.121 48.1101 62.121C47.9415 62.121 47.7823 62.0587 47.662 61.9456C46.9216 61.2497 46.5138 60.3072 46.5138 59.292C46.5138 58.0861 47.0758 56.4067 47.887 55.1682L48.9805 54.1862C49.3657 53.8402 49.3976 53.2476 49.0516 52.8624C48.7057 52.4772 48.1131 52.4452 47.7277 52.7912L46.5963 53.8073C45.3542 54.6334 43.6497 55.2081 42.4298 55.2082C41.4146 55.2082 40.4722 54.8005 39.7765 54.0604C39.5305 53.7982 39.5452 53.3794 39.8047 53.1202L40.4215 52.5035H41.1726C41.6905 52.5035 42.1101 52.0839 42.1101 51.566C42.1101 51.0481 41.6905 50.6285 41.1726 50.6285H40.4215L39.8046 50.0116C39.5436 49.7509 39.5321 49.3316 39.7762 49.0719C41.12 47.6421 42.897 47.7214 44.7483 48.3991C45.6621 48.7337 46.4192 47.6156 45.7672 46.8913C44.2275 45.1818 43.2087 43.006 44.4295 41.0353C44.5496 40.8415 44.7621 40.7258 44.9977 40.7258C45.2372 40.7258 45.2996 40.7929 46.1102 41.2609L46.4121 42.2994C46.5312 42.7093 46.9055 42.9755 47.3118 42.9755C47.9366 42.9755 48.3868 42.3754 48.2126 41.7761L47.9172 40.7598C48.329 40.0464 48.4455 39.6801 48.9283 39.6688C49.0413 39.6688 49.1397 39.6858 49.2481 39.744C50.7777 40.565 51.25 41.9974 51.2198 43.7168C51.2021 44.7161 52.5638 45.0439 53.0008 44.1424C53.8322 42.4268 55.0095 41.1884 56.9252 41.244C57.2806 41.255 57.5696 41.5623 57.5696 41.9289V42.8511L56.5463 44.0851C56.0377 44.6986 56.4816 45.621 57.2676 45.621C57.8337 45.621 57.9841 45.2886 58.9476 44.1268H59.7675C60.1098 44.1268 60.4541 44.3659 60.4541 44.8845C60.4541 45.0641 60.4408 45.2448 60.4147 45.4215C60.339 45.9338 60.6926 46.4104 61.2047 46.4863C61.716 46.5623 62.1935 46.2084 62.2695 45.6963C62.6165 43.3583 61.187 42.2519 59.7675 42.2519H59.4446C59.4446 38.3909 54.934 38.7798 52.7428 41.1584C51.7787 38.3633 48.3872 36.1965 46.5622 39.3569C43.3292 37.4911 41.375 41.3149 42.1967 44.3805C42.34 44.9153 42.5807 45.4909 42.8957 46.067C41.1216 45.9316 39.5097 46.6176 38.4101 47.7876C37.9688 48.2571 37.7258 48.8724 37.7258 49.5201C37.7258 50.451 38.1331 50.992 38.7072 51.5657C38.4121 51.8606 37.7258 52.4609 37.7258 53.6114C37.7258 54.2589 37.9687 54.874 38.4101 55.3439C40.1985 57.2465 42.5971 57.4474 45.1341 56.5874C44.8176 57.5215 44.6387 58.4641 44.6387 59.2916C44.6387 62.3951 47.4768 65.692 50.156 63.0144C50.7046 63.5634 51.2375 63.9957 52.2016 63.9957C52.8492 63.9957 53.4645 63.7527 53.9338 63.3115C55.1193 62.1976 55.7817 60.5992 55.657 58.8597C57.9493 60.1354 60.0326 60.0166 61.7443 58.9562C62.9387 58.2167 63.272 56.6777 62.5967 55.5094L62.4353 55.2299L62.7147 55.0685C63.5073 54.611 63.9996 53.7602 63.9996 52.8481C64 51.1564 62.1002 49.4458 60.3141 48.9501V48.9501Z" fill="#40AE28"/>
<path d="M49.9661 45.945C49.5998 45.579 49.0064 45.579 48.6402 45.9451L47.7563 46.829C47.3903 47.1951 47.3903 47.7886 47.7563 48.1549C48.1228 48.521 48.7159 48.5208 49.0822 48.1549L49.9661 47.2709C50.3322 46.9046 50.3321 46.3111 49.9661 45.945V45.945Z" fill="#40AE28"/>
<path d="M55.0924 54.1652L55.9764 53.2813C56.3426 52.9151 56.3426 52.3216 55.9766 51.9555C55.6103 51.5895 55.0168 51.5895 54.6507 51.9555L53.7667 52.8392C53.4006 53.2055 53.4005 53.799 53.7665 54.1651C54.1338 54.532 54.7269 54.5305 55.0924 54.1652Z" fill="#40AE28"/>
<path d="M53.611 51.0924C53.4391 50.6039 52.9031 50.3479 52.415 50.5202C52.1656 50.6082 51.8665 50.5357 51.6703 50.3396C51.4742 50.1435 51.4016 49.8444 51.4896 49.5952C51.662 49.1069 51.4058 48.5715 50.9177 48.3991C49.5543 47.9179 49.002 50.3231 50.3443 51.6654C51.6871 53.008 54.0921 52.4554 53.611 51.0924Z" fill="#40AE28"/>
<path d="M48.4423 10.4685C47.781 11.2126 47.4227 12.193 47.4537 13.1927C47.486 14.2297 48.3005 15.05 49.3298 15.1072C49.4617 17.4782 53.0736 17.865 54.9168 14.8172C56.7705 17.8821 60.3732 17.462 60.5038 15.1072C61.5331 15.05 62.3477 14.2296 62.38 13.1926C62.4107 12.2014 62.0588 11.2292 61.408 10.4874C64.2267 9.41574 64.9105 6.07562 62.643 5.33074C62.8542 4.32162 62.2726 3.32249 61.279 3.02299C60.4672 2.77824 59.5966 2.80712 58.8082 3.09362C58.7338 2.12524 58.2976 1.20674 57.5858 0.537868C56.8298 -0.172757 55.6738 -0.177007 54.9053 0.510493C54.1368 -0.176882 52.9807 -0.172632 52.2248 0.537868C51.5203 1.19999 51.086 2.10637 51.005 3.06362C50.2392 2.80562 49.4022 2.78724 48.6197 3.02299C47.6262 3.32249 47.0445 4.32174 47.2558 5.33074C45.0045 6.07024 45.6833 9.39212 48.4423 10.4685V10.4685ZM48.6427 6.89699C49.1428 6.76299 49.4396 6.24887 49.3056 5.74874C49.0973 4.97162 49.0318 4.85724 49.1608 4.81824C50.1225 4.52874 50.8762 4.94162 51.5628 5.65212C52.2557 6.36912 53.4516 5.64074 53.1227 4.69312C52.7613 3.65237 52.703 2.66187 53.5091 1.90412C53.5491 1.86649 53.6197 1.87187 53.6632 1.91562L54.2425 2.49487C54.6087 2.86074 55.2023 2.86099 55.5682 2.49487L56.1477 1.91562C56.1913 1.87174 56.2618 1.86649 56.3018 1.90412C57.1401 2.69199 57.0442 3.74787 56.6406 4.82474C56.2796 5.78862 57.5233 6.54599 58.2137 5.78274C58.9218 4.99999 59.7211 4.51162 60.7378 4.81812C60.8647 4.85649 60.804 4.96212 60.5932 5.74862C60.4592 6.24874 60.756 6.76274 61.2561 6.89687C62.0328 7.10499 62.1651 7.10549 62.1343 7.23687C61.8222 8.56537 60.4431 9.00487 59.08 9.06349C58.1027 9.10549 57.8383 10.4379 58.7247 10.8501C59.755 11.3294 60.541 12.0029 60.506 13.1342C60.5018 13.2665 60.3845 13.2354 59.5696 13.2354C59.0517 13.2354 58.6321 13.655 58.6321 14.1729C58.6321 14.9772 58.6657 15.1051 58.531 15.1092C57.9641 15.126 57.4278 14.9151 57.026 14.5131C56.5002 13.9874 56.0115 12.9904 55.8373 12.0886C55.6426 11.0804 54.1911 11.0804 53.9962 12.0886C53.8221 12.9904 53.3333 13.9872 52.8076 14.5131C52.4057 14.9151 51.8722 15.1266 51.3025 15.1092C51.1701 15.1051 51.2015 14.9866 51.2015 14.1729C51.2015 13.655 50.7818 13.2354 50.264 13.2354C49.4573 13.2354 49.3317 13.2682 49.3276 13.1344C49.2925 11.9981 50.0867 11.3241 51.1138 10.8477C51.9967 10.4379 51.7413 9.11212 50.7682 9.06099C49.4181 8.99049 48.0725 8.54812 47.7642 7.23699C47.7341 7.10849 47.8536 7.10849 48.6427 6.89699V6.89699Z" fill="#40AE28"/>
<path d="M54.9375 11.0532C56.4883 11.0532 57.75 9.79141 57.75 8.24066C57.75 6.68991 56.4883 5.42816 54.9375 5.42816C53.3867 5.42816 52.125 6.68991 52.125 8.24066C52.125 9.79141 53.3867 11.0532 54.9375 11.0532ZM54.9375 7.30316C55.4545 7.30316 55.875 7.72366 55.875 8.24066C55.875 8.75766 55.4545 9.17816 54.9375 9.17816C54.4205 9.17816 54 8.75766 54 8.24066C54 7.72366 54.4205 7.30316 54.9375 7.30316Z" fill="#40AE28"/>
<path d="M16.7363 43.886C16.9476 42.8766 16.3658 41.8775 15.3723 41.5783C14.5607 41.3335 13.69 41.3624 12.9016 41.6489C12.8272 40.6805 12.3911 39.7621 11.6792 39.093C10.9228 38.3822 9.76684 38.3784 8.99872 39.0657C8.23047 38.3782 7.07434 38.3821 6.31809 39.0931C5.61372 39.7554 5.17934 40.6617 5.09834 41.6189C4.33297 41.361 3.49584 41.3422 2.71322 41.5781C1.71972 41.8776 1.13784 42.8768 1.34922 43.886C-0.901657 44.6253 -0.221156 47.9499 2.53597 49.0236C1.87447 49.7679 1.51622 50.7483 1.54722 51.748C1.57947 52.785 2.39397 53.6053 3.42334 53.6625C3.55559 56.0414 7.17272 56.4109 9.01034 53.3725C10.864 56.4374 14.4667 56.0173 14.5973 53.6625C15.6266 53.6053 16.4412 52.7849 16.4735 51.7479C16.5042 50.7566 16.1522 49.7844 15.5015 49.0426C18.32 47.9705 19.0038 44.6308 16.7363 43.886ZM16.2277 45.7921C15.9157 47.1203 14.5368 47.5601 13.1733 47.6188C12.1961 47.6608 11.9317 48.9931 12.8181 49.4054C13.8491 49.8851 14.6343 50.5581 14.5993 51.6895C14.5952 51.8218 14.4778 51.7906 13.663 51.7906C13.1451 51.7906 12.7255 52.2103 12.7255 52.7281C12.7255 53.5325 12.7591 53.6604 12.6243 53.6645C12.0583 53.6801 11.5212 53.4704 11.1193 53.0684C10.5936 52.5426 10.1048 51.5456 9.93072 50.6439C9.73597 49.6356 8.28447 49.6356 8.08959 50.6439C7.91547 51.5456 7.42672 52.5425 6.90097 53.0684C6.49897 53.4704 5.96647 53.6808 5.39584 53.6645C5.26347 53.6604 5.29484 53.5419 5.29484 52.7281C5.29484 52.2103 4.87522 51.7906 4.35734 51.7906C3.55072 51.7906 3.42509 51.8235 3.42097 51.6896C3.38584 50.5534 4.18022 49.8794 5.20722 49.403C6.09009 48.9931 5.83472 47.6674 4.86159 47.6163C3.51222 47.5458 2.16584 47.1035 1.85759 45.7923C1.82734 45.6635 1.94672 45.6635 2.73584 45.452C3.23597 45.318 3.53272 44.8039 3.39872 44.3038C3.19034 43.526 3.12509 43.4121 3.25397 43.3733C4.21534 43.0836 4.96909 43.4964 5.65597 44.2071C6.35047 44.9255 7.54422 44.1943 7.21584 43.2483C6.85447 42.2066 6.79622 41.2168 7.60209 40.4591C7.64197 40.4219 7.71272 40.4267 7.75634 40.4707L8.33559 41.05C8.70172 41.4159 9.29534 41.4161 9.66134 41.05L10.2408 40.4706C10.2845 40.4269 10.3552 40.4215 10.3948 40.4591C11.2331 41.2473 11.1375 42.3026 10.7337 43.3798C10.3726 44.344 11.6162 45.1006 12.3067 44.3379C13.0187 43.5514 13.8173 43.0673 14.8312 43.3734C14.9593 43.4119 14.8952 43.524 14.6863 44.3038C14.5523 44.8039 14.8491 45.3179 15.3492 45.452C16.1262 45.6603 16.2583 45.6608 16.2277 45.7921V45.7921Z" fill="#40AE28"/>
<path d="M9.0625 43.9874C7.51175 43.9874 6.25 45.2491 6.25 46.7999C6.25 48.3506 7.51175 49.6124 9.0625 49.6124C10.6132 49.6124 11.875 48.3506 11.875 46.7999C11.875 45.2491 10.6132 43.9874 9.0625 43.9874ZM9.0625 47.7374C8.5455 47.7374 8.125 47.3169 8.125 46.7999C8.125 46.2829 8.5455 45.8624 9.0625 45.8624C9.5795 45.8624 10 46.2829 10 46.7999C10 47.3169 9.5795 47.7374 9.0625 47.7374Z" fill="#40AE28"/>
<path d="M25 19.2065C24.4821 19.2067 24.0626 19.6263 24.0625 20.1442V21.3942C24.0625 21.9119 24.4822 22.3315 25 22.3317C25.5181 22.3314 25.9374 21.9118 25.9375 21.394V20.144C25.9375 19.6263 25.5178 19.2065 25 19.2065Z" fill="#40AE28"/>
<path d="M29.9375 21.3942V20.1442C29.9375 19.6263 29.5178 19.2065 29 19.2065C28.4821 19.2067 28.0625 19.6263 28.0625 20.144V21.394C28.0625 21.9119 28.4822 22.3315 29 22.3317C29.5186 22.3314 29.9374 21.9113 29.9375 21.3942Z" fill="#40AE28"/>
</svg>
