<svg width="168" height="25" viewBox="0 0 168 25" fill="none" xmlns="http://www.w3.org/2000/svg">
<g id="Union">
<path d="M12.0017 0.5C11.767 0.5 11.5569 0.644088 11.4743 0.86168L8.61983 8.87222H0.563527C0.327608 8.8722 0.116655 9.01778 0.034922 9.237C-0.0468112 9.45622 0.0179818 9.70268 0.19728 9.85456L6.92946 15.3825L4.11217 23.7658C4.03676 23.9953 4.1187 24.2467 4.3153 24.3892C4.5119 24.5316 4.77864 24.5328 4.97652 24.3921L12.0006 19.2895L19.0212 24.3921C19.219 24.5356 19.4879 24.536 19.686 24.393C19.8842 24.2499 19.9663 23.9964 19.889 23.7658L17.0717 15.3825L23.8027 9.85456C23.982 9.70268 24.0468 9.45622 23.9651 9.237C23.8833 9.01778 23.6724 8.8722 23.4365 8.87222H15.3813L12.5291 0.86168C12.4465 0.644088 12.2364 0.5 12.0017 0.5Z" fill="url(#paint0_linear_2033_7743)"/>
<path d="M47.4743 0.86168C47.5569 0.644088 47.767 0.5 48.0017 0.5C48.2364 0.5 48.4465 0.644088 48.5291 0.86168L51.3813 8.87222H59.4365C59.6724 8.8722 59.8833 9.01778 59.9651 9.237C60.0468 9.45622 59.982 9.70268 59.8027 9.85456L53.0717 15.3825L55.889 23.7658C55.9663 23.9964 55.8842 24.2499 55.686 24.393C55.4879 24.536 55.219 24.5356 55.0212 24.3921L48.0006 19.2895L40.9765 24.3921C40.7786 24.5328 40.5119 24.5316 40.3153 24.3892C40.1187 24.2467 40.0368 23.9953 40.1122 23.7658L42.9295 15.3825L36.1973 9.85456C36.018 9.70268 35.9532 9.45622 36.0349 9.237C36.1167 9.01778 36.3276 8.8722 36.5635 8.87222H44.6198L47.4743 0.86168Z" fill="url(#paint1_linear_2033_7743)"/>
<path d="M83.4743 0.86168C83.5569 0.644088 83.767 0.5 84.0017 0.5C84.2364 0.5 84.4465 0.644088 84.5291 0.86168L87.3813 8.87222H95.4365C95.6724 8.8722 95.8833 9.01778 95.9651 9.237C96.0468 9.45622 95.982 9.70268 95.8027 9.85456L89.0717 15.3825L91.8889 23.7658C91.9663 23.9964 91.8842 24.2499 91.686 24.393C91.4879 24.536 91.219 24.5356 91.0212 24.3921L84.0006 19.2895L76.9765 24.3921C76.7786 24.5328 76.5119 24.5316 76.3153 24.3892C76.1187 24.2467 76.0368 23.9953 76.1122 23.7658L78.9295 15.3825L72.1973 9.85456C72.018 9.70268 71.9532 9.45622 72.0349 9.237C72.1167 9.01778 72.3276 8.8722 72.5635 8.87222H80.6198L83.4743 0.86168Z" fill="url(#paint2_linear_2033_7743)"/>
<path d="M119.474 0.86168C119.557 0.644088 119.767 0.5 120.002 0.5C120.236 0.5 120.446 0.644088 120.529 0.86168L123.381 8.87222H131.436C131.672 8.8722 131.883 9.01778 131.965 9.237C132.047 9.45622 131.982 9.70268 131.803 9.85456L125.072 15.3825L127.889 23.7658C127.966 23.9964 127.884 24.2499 127.686 24.393C127.488 24.536 127.219 24.5356 127.021 24.3921L120.001 19.2895L112.977 24.3921C112.779 24.5328 112.512 24.5316 112.315 24.3892C112.119 24.2467 112.037 23.9953 112.112 23.7658L114.929 15.3825L108.197 9.85456C108.018 9.70268 107.953 9.45622 108.035 9.237C108.117 9.01778 108.328 8.8722 108.564 8.87222H116.62L119.474 0.86168Z" fill="url(#paint3_linear_2033_7743)"/>
<path fill-rule="evenodd" clip-rule="evenodd" d="M154.845 1.29575C155.028 0.813804 155.491 0.5 156.002 0.5C156.512 0.5 156.975 0.813804 157.158 1.29575L157.163 1.30946L159.68 8.37974H166.764C167.277 8.37972 167.742 8.69676 167.923 9.18235C168.104 9.66913 167.959 10.2146 167.565 10.5488L167.556 10.5557L161.597 15.4495L164.094 22.8783C164.266 23.3904 164.082 23.9516 163.647 24.2658C163.213 24.5788 162.626 24.578 162.194 24.2638L156 19.7627L149.799 24.2679C149.366 24.5757 148.784 24.5732 148.353 24.2614C147.921 23.9485 147.738 23.3925 147.906 22.8827L147.907 22.8783L150.404 15.4495L144.435 10.5488C144.041 10.2147 143.896 9.66913 144.077 9.18235C144.258 8.69676 144.723 8.37972 145.236 8.37974H152.321L154.845 1.29575ZM166.245 9.80543L166.262 9.7915H166.257L166.245 9.80543Z" fill="url(#paint4_linear_2033_7743)"/>
</g>
<defs>
<linearGradient id="paint0_linear_2033_7743" x1="142.5" y1="0.5" x2="168" y2="0.5" gradientUnits="userSpaceOnUse">
<stop stop-color="#F8A719"/>
<stop offset="0.994792" stop-color="#F8A719" stop-opacity="0"/>
</linearGradient>
<linearGradient id="paint1_linear_2033_7743" x1="142.5" y1="0.5" x2="168" y2="0.5" gradientUnits="userSpaceOnUse">
<stop stop-color="#F8A719"/>
<stop offset="0.994792" stop-color="#F8A719" stop-opacity="0"/>
</linearGradient>
<linearGradient id="paint2_linear_2033_7743" x1="142.5" y1="0.5" x2="168" y2="0.5" gradientUnits="userSpaceOnUse">
<stop stop-color="#F8A719"/>
<stop offset="0.994792" stop-color="#F8A719" stop-opacity="0"/>
</linearGradient>
<linearGradient id="paint3_linear_2033_7743" x1="142.5" y1="0.5" x2="168" y2="0.5" gradientUnits="userSpaceOnUse">
<stop stop-color="#F8A719"/>
<stop offset="0.994792" stop-color="#F8A719" stop-opacity="0"/>
</linearGradient>
<linearGradient id="paint4_linear_2033_7743" x1="142.5" y1="0.5" x2="168" y2="0.5" gradientUnits="userSpaceOnUse">
<stop stop-color="#F8A719"/>
<stop offset="0.994792" stop-color="#F8A719" stop-opacity="0"/>
</linearGradient>
</defs>
</svg>
