<svg width="30" height="30" viewBox="0 0 30 30" fill="none" xmlns="http://www.w3.org/2000/svg">
<g clip-path="url(#clip0_782_637)">
<path d="M26.0742 7.88092L27.3575 6.22858L23.7715 2.64258L22.1191 3.92584C20.8008 3.08203 19.3243 2.46686 17.795 2.13287L17.5312 6.10352e-05H12.4688L12.205 2.13287C10.6757 2.46686 9.19922 3.08203 7.88086 3.92584L6.22852 2.64258L2.64252 6.22858L3.92578 7.88092C3.08197 9.19928 2.4668 10.6758 2.13281 12.2051L0 12.4688V17.5313L2.13281 17.7949C2.4668 19.3242 3.08197 20.8008 3.92578 22.1192L2.64252 23.7715L6.22852 27.3574L7.88086 26.0743C9.19922 26.918 10.6757 27.5333 12.205 27.8673L12.4688 30.0001H17.5312L17.795 27.8672C19.3243 27.5333 20.8008 26.918 22.1191 26.0743L23.7715 27.3574L27.3575 23.7715L26.0742 22.1192C26.918 20.8008 27.5333 19.3242 27.8672 17.7949L30 17.5313V12.4688L27.8672 12.2051C27.5332 10.6758 26.918 9.19928 26.0742 7.88092ZM15 24.668C9.67377 24.668 5.33203 20.3262 5.33203 15.0001C5.33203 9.67383 9.67377 5.33209 15 5.33209C20.3262 5.33209 24.668 9.67383 24.668 15.0001C24.668 20.3262 20.3262 24.668 15 24.668Z" fill="#004080"/>
<path d="M15 7.0899C10.6407 7.0899 7.08984 10.6406 7.08984 15.0001C7.08984 19.3594 10.6407 22.9102 15 22.9102C19.3593 22.9102 22.9102 19.3594 22.9102 15.0001C22.9102 10.6406 19.3593 7.0899 15 7.0899ZM14.1211 18.0059L10.8692 14.7363L12.0996 13.5059L14.1212 15.5098L17.9005 11.748L19.1309 12.9785L14.1211 18.0059Z" fill="#004080"/>
</g>
<defs>
<clipPath id="clip0_782_637">
<rect width="30" height="30" fill="white"/>
</clipPath>
</defs>
</svg>
