<svg width="30" height="30" viewBox="0 0 30 30" fill="none" xmlns="http://www.w3.org/2000/svg">
<g clip-path="url(#clip0_782_621)">
<path d="M14.9999 8.42285L18.2974 10.1566L17.6675 6.48468L20.337 3.88321L16.6488 3.34763L14.9999 0L13.351 3.34763L9.66284 3.88321L12.3323 6.48468L11.7024 10.1566L14.9999 8.42285Z" fill="#004080"/>
<path d="M26.1404 9.32413L24.4915 5.98291L22.8426 9.32413L19.1562 9.85971L21.8239 12.4605L21.194 16.1331L24.4915 14.3994L27.7908 16.1331L27.1591 12.4605L29.9995 9.85971L26.1404 9.32413Z" fill="#004080"/>
<path d="M2.84042 12.4603L2.20871 16.1329L5.50804 14.3992L8.80554 16.1329L8.17566 12.4603L10.8433 9.85953L7.15691 9.32394L5.50804 5.98273L3.85918 9.32394L0 9.85953L2.84042 12.4603Z" fill="#004080"/>
<path d="M19.3945 16.7578C19.3945 14.3349 17.4229 12.3633 15 12.3633C12.5771 12.3633 10.6055 14.3349 10.6055 16.7578C10.6055 19.1808 12.5771 21.1523 15 21.1523C17.4229 21.1523 19.3945 19.1808 19.3945 16.7578Z" fill="#004080"/>
<path d="M8.84766 27.3047V30H21.1523V27.3047C21.1523 23.9127 18.392 21.1523 15 21.1523C11.608 21.1523 8.84766 23.9127 8.84766 27.3047Z" fill="#004080"/>
<path d="M28.1835 29.0625C28.1835 26.6396 26.212 24.668 23.789 24.668C23.3345 24.668 22.9046 24.7572 22.4919 24.8859C22.7407 25.6531 22.9101 26.4558 22.9101 27.3047V30H28.1835V29.0625Z" fill="#004080"/>
<path d="M27.3047 21.1523C27.3047 19.2135 25.7279 17.6367 23.7891 17.6367C21.8502 17.6367 20.2734 19.2135 20.2734 21.1523C20.2734 21.2643 20.2961 21.37 20.3064 21.4792C21.1732 22.2693 21.8722 23.2336 22.3212 24.3365C22.7694 24.5441 23.2635 24.668 23.7891 24.668C25.7279 24.668 27.3047 23.0912 27.3047 21.1523Z" fill="#004080"/>
<path d="M9.6936 21.4792C9.7039 21.37 9.72656 21.2643 9.72656 21.1523C9.72656 19.2135 8.1498 17.6367 6.21094 17.6367C4.27208 17.6367 2.69531 19.2135 2.69531 21.1523C2.69531 23.0912 4.27208 24.668 6.21094 24.668C6.73645 24.668 7.23061 24.5441 7.67876 24.3368C8.12782 23.2336 8.82683 22.2693 9.6936 21.4792Z" fill="#004080"/>
<path d="M1.81641 29.0625V30H7.08984V27.3047C7.08984 26.4558 7.25922 25.6531 7.50801 24.8859C7.09534 24.7572 6.6655 24.668 6.21094 24.668C3.78799 24.668 1.81641 26.6396 1.81641 29.0625Z" fill="#004080"/>
</g>
<defs>
<clipPath id="clip0_782_621">
<rect width="30" height="30" fill="white"/>
</clipPath>
</defs>
</svg>
