<svg width="57" height="57" viewBox="0 0 57 57" xmlns="http://www.w3.org/2000/svg">
        <g id="icon1">
        <g id="Vector">
        <path d="M23.5417 17.3358C24.035 17.3358 24.4349 16.936 24.4349 16.4426C24.4349 15.9494 24.035 15.5495 23.5417 15.5495C23.0484 15.5495 22.6487 15.9494 22.6487 16.4426C22.6487 16.936 23.0484 17.3358 23.5417 17.3358Z"></path>
        <path d="M14.1222 26.9695C15.0779 26.9695 15.8526 26.1948 15.8526 25.2391C15.8526 24.2834 15.0779 23.5087 14.1222 23.5087C13.1664 23.5087 12.3917 24.2834 12.3917 25.2391C12.3917 26.1948 13.1664 26.9695 14.1222 26.9695Z"></path>
        <path d="M22.3441 26.9695C23.2998 26.9695 24.0745 26.1948 24.0745 25.2391C24.0745 24.2834 23.2998 23.5087 22.3441 23.5087C21.3884 23.5087 20.6136 24.2834 20.6136 25.2391C20.6136 26.1948 21.3884 26.9695 22.3441 26.9695Z"></path>
        <path d="M11.9872 31.5812C13.2069 33.7691 15.5482 35.2512 18.233 35.2517C20.9178 35.2512 23.2593 33.7691 24.479 31.5812C24.7213 31.1472 24.5658 30.599 24.1319 30.3568C23.6978 30.1146 23.1498 30.27 22.9075 30.704C21.9905 32.3441 20.2437 33.4523 18.233 33.4519C16.2227 33.4523 14.4757 32.3441 13.5588 30.704C13.3165 30.27 12.7684 30.1146 12.3344 30.3568C11.9005 30.599 11.745 31.1472 11.9872 31.5812Z"></path>
        <path d="M52.971 28.7188C52.8844 28.3806 52.6184 28.1216 52.2872 28.0351C48.4218 26.9986 44.2688 28.1143 41.4401 30.9429C40.9291 31.447 40.4829 32.0011 40.0869 32.5912V28.3374C43.2613 26.2789 45.2118 22.7161 45.2118 18.9156C45.2118 14.9136 43.0668 11.1924 39.6046 9.18425C39.3023 9.0115 38.9353 9.0115 38.633 9.18425C35.1709 11.1924 33.026 14.9136 33.026 18.9156C33.026 22.7161 34.9765 26.2789 38.1507 28.3374V32.692C37.7405 32.0658 37.2654 31.4829 36.7256 30.9429C35.4112 29.6253 33.8043 28.6864 32.0747 28.1575C32.0695 24.0085 30.236 20.2796 27.3387 17.749C26.9644 17.4219 26.3959 17.4601 26.0689 17.8343C25.7417 18.2085 25.7799 18.777 26.1542 19.1041C28.6819 21.3147 30.2755 24.5548 30.2759 28.1755C30.2755 31.5039 28.9294 34.5089 26.7487 36.691C24.5665 38.8717 21.5614 40.2178 18.233 40.2183C14.9047 40.2178 11.8997 38.8717 9.71753 36.691C7.53686 34.5089 6.19076 31.5039 6.19038 28.1755C6.19076 24.8471 7.53686 21.8421 9.71753 19.6599C11.8997 17.4792 14.9047 16.1331 18.233 16.1327C18.7317 16.1327 19.2229 16.1629 19.7048 16.2216C20.1982 16.2817 20.6469 15.9305 20.7069 15.4371C20.7671 14.9438 20.4158 14.4952 19.9224 14.4351C19.3684 14.3676 18.8046 14.3329 18.233 14.3329C10.5878 14.3335 4.39119 20.5301 4.39062 28.1755C4.39119 35.8209 10.5878 42.0174 18.233 42.018C21.6979 42.0177 24.8572 40.7361 27.2849 38.6326C27.5405 38.9534 27.8092 39.2652 28.1028 39.5587C30.2331 41.6891 33.1196 42.8482 36.0634 42.8482C36.7616 42.8482 37.4597 42.7833 38.1507 42.6537V46.3317C38.1507 46.8643 38.5827 47.2963 39.1153 47.2963C39.6479 47.2963 40.0797 46.8643 40.0797 46.3317L40.0869 42.6608C40.7563 42.7833 41.4329 42.8482 42.1024 42.8482C45.0532 42.8482 47.9325 41.6891 50.063 39.5587C52.892 36.7372 54.0002 32.584 52.971 28.7188ZM29.4703 38.1984C29.1755 37.9026 28.9117 37.5844 28.6647 37.2556C29.3788 36.4359 29.9992 35.5351 30.5064 34.5627C30.5533 34.6961 30.6226 34.8231 30.7299 34.9305L36.6969 40.8975C34.0409 41.0774 31.3848 40.1129 29.4703 38.1984ZM38.0644 39.53L32.0902 33.563C31.8143 33.287 31.41 33.2179 31.0662 33.3489C31.4733 32.3399 31.7572 31.2707 31.9172 30.1601C33.1921 30.6122 34.3791 31.3204 35.3652 32.3032C37.2798 34.218 38.2443 36.874 38.0644 39.53ZM39.1225 17.5047C38.5827 17.5047 38.1507 17.9367 38.1507 18.4693V25.9262C36.1498 24.1771 34.9549 21.6219 34.9549 18.9156C34.9549 15.7917 36.5385 12.8695 39.1225 11.1565C41.6991 12.8695 43.2827 15.7917 43.2827 18.9156C43.2827 21.6219 42.088 24.1771 40.0869 25.9262V18.4693C40.0869 17.9367 39.6549 17.5047 39.1225 17.5047ZM48.6955 38.1984C46.7807 40.1129 44.1319 41.0774 41.4762 40.8975L47.2487 35.1176C47.6302 34.7433 47.6302 34.1317 47.2487 33.75C46.8746 33.3758 46.2626 33.3758 45.8884 33.75L40.1086 39.53C39.9286 36.874 40.8932 34.218 42.8076 32.3032C45.0101 30.1009 48.1989 29.158 51.2364 29.7699C51.8484 32.8073 50.9054 35.9885 48.6955 38.1984Z"></path>
        </g>
        </g>
        </svg>