<svg xmlns="http://www.w3.org/2000/svg" width="124" height="56" viewBox="0 0 124 56" fill="none">
          <path d="M38.1325 14.079C32.3017 14.1213 27.5321 20.6973 27.5321 26.4331C27.5321 32.4692 31.0284 39.8321 38.1325 39.8081C45.2366 39.7843 48.9238 31.8574 48.9238 26.4331C48.9238 20.4416 43.9634 14.0367 38.1325 14.079ZM38.1325 14.304C43.0127 14.304 44.3293 19.7732 44.3293 26.4331C44.3293 35.2208 42.7411 39.5562 38.1325 39.5479C33.524 39.5397 32.0246 35.9914 32.0246 26.4331C32.0246 20.4457 33.2523 14.304 38.1325 14.304Z" fill="#FAFAD5"></path>
          <path d="M50.8505 26.5953C50.8244 20.0689 55.972 14.2877 60.3295 14.0009C61.9035 13.8877 63.9267 14.6191 65.1079 15.1401C65.9656 15.5185 67.7165 14.9709 68.0274 13.9662H68.197V22.8564H68.0274C68.0274 22.4774 66.405 14.2244 60.3295 14.2244C55.842 14.2244 55.4085 22.2314 55.4085 26.5953C55.4085 30.9594 55.5392 39.5986 60.7759 39.5986C63.3128 39.5986 65.1905 38.4723 65.6772 36.1939V29.2662H63.548V28.9709H71.8016V29.2662H69.7659V39.3946H69.6002C69.6002 39.3946 69.2693 37.9332 67.5899 37.938C65.4433 37.9442 63.4191 39.8365 60.9515 39.8135C54.4258 39.7526 50.8766 33.1218 50.8505 26.5953Z" fill="#FAFAD5"></path>
          <path d="M11.5255 14.9547H8.95554V14.6616H17.9582V14.9547H15.6997L22.1323 32.6811C24.1438 26.397 25.702 21.7519 27.7992 14.9547H25.5652V14.6616H30.3186V14.9547H28.1539L20.3357 39.6864L11.5255 14.9547Z" fill="#FAFAD5"></path>
          <path d="M73.0614 33.6313L73.0206 14.9262H70.5745V14.646H79.5868V14.9262H77.142L77.1963 35.4355C77.7374 37.7839 78.6997 39.5659 81.9871 39.5924C85.2746 39.619 87.5094 37.619 88.34 34.886V14.9262H85.5417V14.6542H108.446L108.493 23.6335H108.273C107.848 17.8359 105.644 15.6449 101.788 15.0057C100.462 14.7857 99.0699 14.9487 97.3103 14.9349V26.3947C98.8426 26.5149 100.475 26.4166 101.574 25.458C102.575 24.5864 102.857 22.5724 102.931 21.7542H103.125V31.7323H102.915C102.854 31.7323 102.774 29.2283 101.574 28.0403C100.367 26.8446 98.8298 26.5506 97.3103 26.8355V39.0772C99.4565 39.0772 101.167 39.2616 102.653 38.8484C107.169 37.5921 108.758 33.726 108.746 29.8486H108.997V39.367H91.032V39.0772H93.0633V14.9262H88.6745V34.886C88.177 36.7958 86.359 39.9553 81.6996 39.9337C77.3674 39.9136 73.0708 37.9317 73.0614 33.6313Z" fill="#FAFAD5"></path>
        </svg>