<svg width="30" height="30" viewBox="0 0 30 30" fill="none" xmlns="http://www.w3.org/2000/svg">
<path d="M20.0489 9.37518C19.0599 4.78143 16.9505 1.87518 14.9996 1.87518C13.0486 1.87518 10.9393 4.78143 9.9502 9.37518H20.0489Z" fill="#004080"/>
<path d="M9.375 15.0002C9.37477 16.2544 9.45839 17.5072 9.62531 18.7502H20.3747C20.5416 17.5072 20.6252 16.2544 20.625 15.0002C20.6252 13.746 20.5416 12.4932 20.3747 11.2502H9.62531C9.45839 12.4932 9.37477 13.746 9.375 15.0002Z" fill="#004080"/>
<path d="M9.9502 20.6252C10.9393 25.2189 13.0486 28.1252 14.9996 28.1252C16.9505 28.1252 19.0599 25.2189 20.0489 20.6252H9.9502Z" fill="#004080"/>
<path d="M21.9698 9.37514H27.876C26.9886 7.35555 25.6402 5.57203 23.939 4.16765C22.2378 2.76326 20.2312 1.77711 18.0801 1.28827C19.8585 2.85296 21.2535 5.74608 21.9698 9.37514Z" fill="#004080"/>
<path d="M28.5498 11.2502H22.2685C22.4232 12.4942 22.5005 13.7466 22.5001 15.0002C22.5002 16.2538 22.4225 17.5062 22.2676 18.7502H28.5488C29.2325 16.2969 29.2335 13.7034 28.5498 11.2502Z" fill="#004080"/>
<path d="M18.0801 28.7121C20.2315 28.2235 22.2386 27.2374 23.9401 25.8331C25.6416 24.4287 26.9903 22.645 27.8779 20.6252H21.9716C21.2535 24.2542 19.8585 27.1474 18.0801 28.7121Z" fill="#004080"/>
<path d="M8.03027 20.6252H2.12402C3.01164 22.645 4.36031 24.4287 6.06184 25.8331C7.76336 27.2374 9.77037 28.2235 11.9218 28.7121C10.1415 27.1474 8.74652 24.2542 8.03027 20.6252Z" fill="#004080"/>
<path d="M11.9199 1.28827C9.76841 1.77684 7.76141 2.76288 6.05988 4.16728C4.35836 5.57167 3.00969 7.35533 2.12207 9.37514H8.02832C8.74645 5.74608 10.1414 2.85296 11.9199 1.28827Z" fill="#004080"/>
<path d="M7.49999 15.0002C7.49987 13.7466 7.57752 12.4942 7.73249 11.2502H1.45124C0.767554 13.7034 0.767554 16.2969 1.45124 18.7502H7.73249C7.57752 17.5062 7.49987 16.2538 7.49999 15.0002Z" fill="#004080"/>
</svg>
